<?xml version="1.0" standalone="no"?>
<!DOCTYPE svg PUBLIC "-//W3C//DTD SVG 1.1//EN" "http://www.w3.org/Graphics/SVG/1.1/DTD/svg11.dtd" >
<svg>
<metadata>
Created by FontForge 20090914 at Fri May 10 16:34:27 2013
 By www-data
Copyright (c) 2011 by Ryoichi Tsunekawa. All rights reserved.
</metadata>
<defs>
<font id="DharmaGothicC-Thin" horiz-adv-x="166" >
  <font-face 
    font-family="DharmaGothicC-Thin"
    font-weight="400"
    font-stretch="normal"
    units-per-em="1000"
    panose-1="4 5 2 2 2 11 2 2 2 2"
    ascent="836"
    descent="-164"
    x-height="587.999"
    cap-height="700"
    bbox="-11.999 -118.001 1000 787.001"
    underline-thickness="18"
    underline-position="-42"
    unicode-range="U+0020-U+FB02"
  />
<missing-glyph horiz-adv-x="183" 
d="M153 0h-123v700h123v-700zM41 11h101v678h-101v-678z" />
    <glyph glyph-name=".notdef" horiz-adv-x="183" 
d="M153 0h-123v700h123v-700zM41 11h101v678h-101v-678z" />
    <glyph glyph-name="space" unicode=" " horiz-adv-x="86" 
 />
    <glyph glyph-name="exclam" unicode="!" horiz-adv-x="75" 
d="M46 477l-5 -407h-7l-5 407v223h17v-223zM28 0v35h19v-35h-19z" />
    <glyph glyph-name="quotedbl" unicode="&#x22;" horiz-adv-x="101" 
d="M83 639l-3 -119h-9l-4 119v61h16v-61zM33 639l-3 -119h-9l-4 119v61h16v-61z" />
    <glyph glyph-name="numbersign" unicode="#" 
d="M140 700l-5 -127h22v-14h-22l-14 -394h22v-14h-23l-5 -151h-16l5 151h-59l-5 -151h-16l5 151h-20v14h21l14 394h-22v14h22l5 127h16l-5 -127h59l5 127h16zM60 559l-14 -394h59l14 394h-59z" />
    <glyph glyph-name="dollar" unicode="$" 
d="M91 -25h-14v45h-3c-18.667 0 -31.167 3.5 -37.5 10.5s-9.5 20.833 -9.5 41.5v196h15v-190c0 -17.333 1.83301 -28.833 5.5 -34.5s12.834 -8.5 27.501 -8.5h16c14.667 0 23.834 2.83301 27.501 8.5s5.5 17.167 5.5 34.5v130c0 27.333 -2.5 48.833 -7.5 64.5
s-17.167 38.5 -36.5 68.5c-23.333 36 -38 62.833 -44 80.5s-9 41.834 -9 72.501v134c0 20.667 3.16699 34.5 9.5 41.5s18.833 10.5 37.5 10.5h3v45h14v-45h2c18.667 0 31.167 -3.5 37.5 -10.5s9.5 -20.833 9.5 -41.5v-189h-15v183c0 17.333 -1.83301 28.833 -5.5 34.5
s-12.834 8.5 -27.501 8.5h-16c-14.667 0 -23.834 -2.83301 -27.501 -8.5s-5.5 -17.167 -5.5 -34.5v-131c0 -27.333 2.5 -48.833 7.5 -64.5s17.167 -38.5 36.5 -68.5c23.333 -36 38 -62.833 44 -80.5s9 -41.834 9 -72.501v-133c0 -20.667 -3.16699 -34.5 -9.5 -41.5
s-18.833 -10.5 -37.5 -10.5h-2v-45z" />
    <glyph glyph-name="percent" unicode="%" horiz-adv-x="286" 
d="M180 33v357c0 15.333 2.5 25.666 7.5 30.999s14.167 8 27.5 8h16c13.333 0 22.333 -2.66699 27 -8s7 -15.666 7 -30.999v-357c0 -15.333 -2.33301 -25.5 -7 -30.5s-13.667 -7.5 -27 -7.5h-16c-13.333 0 -22.5 2.66699 -27.5 8s-7.5 15.333 -7.5 30zM194 385v-346
c0 -12.667 1.16699 -21 3.5 -25s8.83301 -6 19.5 -6h11c10.667 0 17.167 2 19.5 6s3.5 12.333 3.5 25v346c0 12.667 -1.16699 21 -3.5 25s-8.83301 6 -19.5 6h-11c-10.667 0 -17.167 -2 -19.5 -6s-3.5 -12.333 -3.5 -25zM21 309v357c0 15.333 2.5 25.666 7.5 30.999
s14.167 8 27.5 8h16c13.333 0 22.333 -2.66699 27 -8s7 -15.666 7 -30.999v-357c0 -15.333 -2.33301 -25.5 -7 -30.5s-13.667 -7.5 -27 -7.5h-16c-13.333 0 -22.5 2.66699 -27.5 8s-7.5 15.333 -7.5 30zM35 661v-346c0 -12.667 1.16699 -21 3.5 -25s8.83301 -6 19.5 -6h11
c10.667 0 17.167 2 19.5 6s3.5 12.333 3.5 25v346c0 12.667 -1.16699 21 -3.5 25s-8.83301 6 -19.5 6h-11c-10.667 0 -17.167 -2 -19.5 -6s-3.5 -12.333 -3.5 -25zM92 0l90 700h12l-90 -700h-12z" />
    <glyph glyph-name="ampersand" unicode="&#x26;" horiz-adv-x="180" 
d="M131 0c-3.33301 8 -5.00098 18.667 -5.00098 32c-5.33301 -24.667 -20.666 -37 -45.999 -37h-10c-18 0 -30 3.5 -36 10.5s-9 20.167 -9 39.5v266c0 31.333 9.33301 49 28 53c-10.667 2.66699 -18 8 -22 16s-6 20.667 -6 38v226c0 22 3.5 36.833 10.5 44.5
s20.5 11.5 40.5 11.5h48v-15h-46c-16 0 -26 -3 -30 -9s-6 -18.667 -6 -38v-219c0 -19.333 2 -32 6 -38s14 -9 30 -9h46v221h16v-221h34v-15h-34v-288c0 -27.333 2.33301 -50.333 7 -69h-16zM41.999 310l0.000976562 -258c0 -16.667 1.66699 -28 5 -34s11.666 -9 24.999 -9
h14c25.333 0 38 18.667 38 56v292h-46c-16 0 -26 -3.16699 -30 -9.5s-6 -18.833 -6 -37.5z" />
    <glyph glyph-name="quotesingle" unicode="'" horiz-adv-x="83" 
d="M49 639l-3 -119h-9l-4 119v61h16v-61z" />
    <glyph glyph-name="parenleft" unicode="(" horiz-adv-x="106" 
d="M28 -20v680c0 19.333 3 32.5 9 39.5s18 10.5 36 10.5h18v-14h-15c-14 0 -22.833 -2.83301 -26.5 -8.5s-5.5 -17.167 -5.5 -34.5v-666c0 -17.333 1.83301 -28.833 5.5 -34.5s12.5 -8.5 26.5 -8.5h15v-14h-18c-18 0 -30 3.5 -36 10.5s-9 20.167 -9 39.5z" />
    <glyph glyph-name="parenright" unicode=")" horiz-adv-x="106" 
d="M78 660v-680c0 -19.333 -3 -32.5 -9 -39.5s-18 -10.5 -36 -10.5h-18v14h15c14 0 22.833 2.83301 26.5 8.5s5.5 17.167 5.5 34.5v666c0 17.333 -1.83301 28.833 -5.5 34.5s-12.5 8.5 -26.5 8.5h-15v14h18c18 0 30 -3.5 36 -10.5s9 -20.167 9 -39.5z" />
    <glyph glyph-name="asterisk" unicode="*" horiz-adv-x="141" 
d="M7 603l58 28l-58 28l8 13l52 -36l-4 64h15l-5 -64l53 36l8 -13l-59 -28l59 -28l-8 -13l-53 37l5 -65h-15l4 65l-52 -37z" />
    <glyph glyph-name="plus" unicode="+" 
d="M76 410h15v-53h49v-15h-49v-52h-15v52h-50v15h50v53z" />
    <glyph glyph-name="comma" unicode="," horiz-adv-x="83" 
d="M32 0v35h19v-35l-16 -52l-4 1l10 51h-9z" />
    <glyph glyph-name="hyphen" unicode="-" horiz-adv-x="107" 
d="M91 293v-16h-75v16h75z" />
    <glyph glyph-name="period" unicode="." horiz-adv-x="83" 
d="M32 0v35h19v-35h-19z" />
    <glyph glyph-name="slash" unicode="/" 
d="M17 -20l117 740h15l-117 -740h-15z" />
    <glyph glyph-name="zero" unicode="0" 
d="M140 653v-606c0 -20 -3.16699 -33.667 -9.5 -41s-18.833 -11 -37.5 -11h-20c-18.667 0 -31.167 3.66699 -37.5 11s-9.5 21 -9.5 41v606c0 20 3.16699 33.667 9.5 41s18.833 11 37.5 11h20c18.667 0 31.167 -3.66699 37.5 -11s9.5 -21 9.5 -41zM42 647v-594
c0 -17.333 1.83301 -28.833 5.5 -34.5s12.834 -8.5 27.501 -8.5h16c14.667 0 23.834 2.83301 27.501 8.5s5.5 17.167 5.5 34.5v594c0 17.333 -1.83301 28.833 -5.5 34.5s-12.834 8.5 -27.501 8.5h-16c-14.667 0 -23.834 -2.83301 -27.501 -8.5s-5.5 -17.167 -5.5 -34.5z" />
    <glyph glyph-name="one" unicode="1" horiz-adv-x="76" 
d="M47 0h-16v692c5.33301 0 8 2.66699 8 8h8v-700z" />
    <glyph glyph-name="two" unicode="2" horiz-adv-x="160" 
d="M123 512l0.00195312 135c0 17.333 -1.83301 28.833 -5.5 34.5s-12.834 8.5 -27.501 8.5h-16c-14.667 0 -23.834 -2.83301 -27.501 -8.5s-5.5 -17.167 -5.5 -34.5v-229h-15v235c0 20 3.16699 33.667 9.5 41s18.833 11 37.5 11h19c18.667 0 31.167 -3.66699 37.5 -11
s9.5 -21 9.5 -41v-139c0 -41.333 -3 -74.333 -9 -99s-20.333 -59 -43 -103c-20.667 -39.333 -33.5 -70 -38.5 -92s-7.5 -53 -7.5 -93v-112h101v-15h-117v125c0 41.333 3 74.333 9 99s20.333 59 43 103c20.667 39.333 33.5 70 38.5 92s7.5 53 7.5 93z" />
    <glyph glyph-name="three" unicode="3" horiz-adv-x="163" 
d="M40 647v-211.001h-15v217c0 20 3.33301 33.667 10 41s19.334 11 38.001 11h18c18.667 0 31.167 -3.66699 37.5 -11s9.5 -21 9.5 -41v-235c0 -30 -9.33301 -46.667 -28 -50c18.667 -3.33301 28 -19.666 28 -48.999v-272c0 -20 -3.16699 -33.667 -9.5 -41
s-18.833 -11 -37.5 -11h-18c-18.667 0 -31.334 3.66699 -38.001 11s-10 21 -10 41v254h15v-248c0 -17.333 1.83301 -28.833 5.5 -34.5s12.834 -8.5 27.501 -8.5h16c14.667 0 23.834 2.83301 27.501 8.5s5.5 17.167 5.5 34.5v265c0 17.333 -1.83301 28.833 -5.5 34.5
s-12.834 8.5 -27.501 8.5h-49v15h49c14.667 0 23.834 2.83301 27.501 8.5s5.5 17.167 5.5 34.5v228c0 17.333 -1.83301 28.833 -5.5 34.5s-12.834 8.5 -27.501 8.5h-16c-14.667 0 -23.834 -2.83301 -27.501 -8.5s-5.5 -17.167 -5.5 -34.5z" />
    <glyph glyph-name="four" unicode="4" horiz-adv-x="153" 
d="M96 700h18v-536h36v-15h-36v-149h-16v149h-90v15zM22 164l76 0.000976562v235c0 76 0.666992 161.333 2 256c-5.33301 -38.667 -18.333 -123.334 -39 -254.001z" />
    <glyph glyph-name="five" unicode="5" horiz-adv-x="163" 
d="M41 468l-0.000976562 -102h-15v334h108v-15h-93v-176c6.66699 17.333 20.667 26 42 26h13c16.667 0 28 -3.5 34 -10.5s9 -19.5 9 -37.5v-440c0 -20 -3.16699 -33.667 -9.5 -41s-18.833 -11 -37.5 -11h-19c-18.667 0 -31.167 3.66699 -37.5 11s-9.5 21 -9.5 41v254h15
v-248c0 -17.333 2 -28.833 6 -34.5s13 -8.5 27 -8.5h16c14.667 0 23.834 2.83301 27.501 8.5s5.5 17.167 5.5 34.5v428c0 16 -1.66699 26.667 -5 32s-11.333 8 -24 8h-16c-24.667 0 -37 -17.667 -37 -53z" />
    <glyph glyph-name="six" unicode="6" horiz-adv-x="165" 
d="M140 438l0.00195312 -391c0 -20 -3.16699 -33.667 -9.5 -41s-18.833 -11 -37.5 -11h-20c-18.667 0 -31.167 3.66699 -37.5 11s-9.5 21 -9.5 41v606c0 20 3.16699 33.667 9.5 41s18.833 11 37.5 11h19c18.667 0 31.167 -3.66699 37.5 -11s9.5 -21 9.5 -41v-127h-15v121
c0 17.333 -1.83301 28.833 -5.5 34.5s-12.834 8.5 -27.501 8.5h-16c-14.667 0 -23.834 -2.83301 -27.501 -8.5s-5.5 -17.167 -5.5 -34.5v-187c6.66699 17.333 20.667 26 42 26h13c16.667 0 28 -3.5 34 -10.5s9 -19.5 9 -37.5zM95.002 472h-16.002
c-24.667 0 -37 -17.667 -37 -53v-366c0 -17.333 1.83301 -28.833 5.5 -34.5s12.834 -8.5 27.501 -8.5h16c14.667 0 23.834 2.83301 27.501 8.5s5.5 17.167 5.5 34.5v379c0 16 -1.66699 26.667 -5 32s-11.333 8 -24 8z" />
    <glyph glyph-name="seven" unicode="7" horiz-adv-x="128" 
d="M53 0h-17l71 685h-101v15h116v-13z" />
    <glyph glyph-name="eight" unicode="8" horiz-adv-x="164" 
d="M92 -5l-20 -0.000976562c-18.667 0 -31.167 3.66699 -37.5 11s-9.5 21 -9.5 41v282c0 16.667 1.83301 28.5 5.5 35.5s10.834 11.5 21.501 13.5c-10.667 2 -17.834 6.66699 -21.501 14s-5.5 19.333 -5.5 36v225c0 20 3.16699 33.667 9.5 41s18.833 11 37.5 11h20
c18.667 0 31.167 -3.66699 37.5 -11s9.5 -21 9.5 -41v-225c0 -30 -9.33301 -46.667 -28 -50c18.667 -3.33301 28 -19.666 28 -48.999v-282c0 -20 -3.16699 -33.667 -9.5 -41s-18.833 -11 -37.5 -11zM123 52.999v275c0 17.333 -1.83301 28.833 -5.5 34.5
s-12.834 8.5 -27.501 8.5h-16c-14.667 0 -23.834 -2.83301 -27.501 -8.5s-5.5 -17.167 -5.5 -34.5v-275c0 -17.333 1.83301 -28.833 5.5 -34.5s12.834 -8.5 27.501 -8.5h16c14.667 0 23.834 2.83301 27.501 8.5s5.5 17.167 5.5 34.5zM123 428.999v218
c0 17.333 -1.83301 28.833 -5.5 34.5s-12.834 8.5 -27.501 8.5h-16c-14.667 0 -23.834 -2.83301 -27.501 -8.5s-5.5 -17.167 -5.5 -34.5v-218c0 -17.333 1.83301 -28.833 5.5 -34.5s12.834 -8.5 27.501 -8.5h16c14.667 0 23.834 2.83301 27.501 8.5s5.5 17.167 5.5 34.5z
" />
    <glyph glyph-name="nine" unicode="9" horiz-adv-x="165" 
d="M90 10c14.667 0 23.832 2.83301 27.499 8.5s5.5 17.167 5.5 34.5v197c-7.33301 -17.333 -21.333 -26 -42 -26h-13c-16.667 0 -28 3.5 -34 10.5s-9 19.5 -9 37.5v381c0 20 3.16699 33.667 9.5 41s18.833 11 37.5 11h20c18.667 0 31.167 -3.66699 37.5 -11s9.5 -21 9.5 -41
v-606c0 -20 -3.16699 -33.667 -9.5 -41s-18.833 -11 -37.5 -11h-19c-18.667 0 -31.167 3.66699 -37.5 11s-9.5 21 -9.5 41v137h15v-131c0 -17.333 1.83301 -28.833 5.5 -34.5s12.834 -8.5 27.501 -8.5h16zM69.998 238h16.002c24.667 0 37 17.667 37 53v356
c0 17.333 -1.83301 28.833 -5.5 34.5s-12.834 8.5 -27.501 8.5h-16c-14.667 0 -23.834 -2.83301 -27.501 -8.5s-5.5 -17.167 -5.5 -34.5v-369c0 -16 1.66699 -26.667 5 -32s11.333 -8 24 -8z" />
    <glyph glyph-name="colon" unicode=":" horiz-adv-x="83" 
d="M32 416v35h19v-35h-19zM32 0v35h19v-35h-19z" />
    <glyph glyph-name="semicolon" unicode=";" horiz-adv-x="83" 
d="M32 0v35h19v-35l-16 -52l-4 1l10 51h-9zM32 416v35h19v-35h-19z" />
    <glyph glyph-name="less" unicode="&#x3c;" 
d="M52 350l88 -55h-27l-87 55l87 55h27z" />
    <glyph glyph-name="equal" unicode="=" 
d="M140 396v-15h-114v15h114zM140 318v-15h-114v15h114z" />
    <glyph glyph-name="greater" unicode="&#x3e;" 
d="M26 295l88 55l-88 55h27l87 -55l-87 -55h-27z" />
    <glyph glyph-name="question" unicode="?" horiz-adv-x="145" 
d="M50 0v58h20v-58h-20zM113 510l0.00195312 136.997c0 17.333 -1.83301 28.833 -5.5 34.5s-12.834 8.5 -27.501 8.5h-16c-14.667 0 -23.834 -2.83301 -27.501 -8.5s-5.5 -17.167 -5.5 -34.5v-229h-15v235c0 20 3.16699 33.667 9.5 41s18.833 11 37.5 11h19
c18.667 0 31.167 -3.66699 37.5 -11s9.5 -21 9.5 -41v-141c0 -46.667 -10.5 -99.667 -31.5 -159s-31.5 -118.666 -31.5 -177.999v-82h-12v80c0 60.667 9.83301 120.834 29.5 180.501s29.5 111.834 29.5 156.501z" />
    <glyph glyph-name="at" unicode="@" horiz-adv-x="265" 
d="M174 556l-17 -490.002c0 -10.667 4.66699 -16 14 -16h7c8 0 15 1.83301 21 5.5s11.833 14.667 17.5 33s8.5 43.833 8.5 76.5v311c0 66.667 -6.16699 112.834 -18.5 138.501s-34.166 38.5 -65.499 38.5h-8c-31.333 0 -54.333 -10.667 -69 -32s-22 -63.666 -22 -126.999
v-395c0 -31.333 3 -57 9 -77s14.667 -34.5 26 -43.5s22.333 -14.833 33 -17.5s23.667 -4 39 -4c18.667 0 32.667 2.33301 42 7v-14c-10 -4.66699 -24 -7 -42 -7c-38 0 -68 10.5 -90 31.5s-33 62.833 -33 125.5v394c0 68 8.83301 113.833 26.5 137.5s44.5 35.5 80.5 35.5h8
c36.667 0 62.167 -14 76.5 -42s21.5 -77.667 21.5 -149v-311c0 -50.667 -5.66699 -85 -17 -103s-26.333 -27 -45 -27h-6c-16.667 0 -25.667 8.33301 -27 25c-4.66699 -16.667 -15 -25 -31 -25h-4c-16.667 0 -24.334 10 -23.001 30l16 468c1.33301 18 10.333 27 27 27h6
c15.333 0 24 -8.66699 26 -26l4 22h9zM141 81.998l15 434c0.666992 20.667 -5.33301 31 -18 31h-5c-10 0 -15 -5.33301 -15 -16l-16 -467c0 -9.33301 3 -14 9 -14h5c16 0 24.333 10.667 25 32z" />
    <glyph glyph-name="A" unicode="A" horiz-adv-x="168" 
d="M135 0l-10 120h-86l-9 -120h-15l57 700h22l58 -700h-17zM62 400l-22 -266.001h84l-22 266c-11.333 136.667 -18 227.334 -20 272.001c-2 -45.333 -8.66699 -136 -20 -272z" />
    <glyph glyph-name="B" unicode="B" horiz-adv-x="180" 
d="M30 0v700.001h72c20 0 33.5 -3.83301 40.5 -11.5s10.5 -22.5 10.5 -44.5v-222c0 -31.333 -9.33301 -49.333 -28 -54c18.667 -4.66699 28 -22.334 28 -53.001v-259c0 -22 -3.5 -36.833 -10.5 -44.5s-20.5 -11.5 -40.5 -11.5h-72zM100 361.001h-53v-346h53c16 0 26 3 30 9
s6 18.667 6 38v252c0 18.667 -2 31.167 -6 37.5s-14 9.5 -30 9.5zM136 423.001v215c0 19.333 -2 32 -6 38s-14 9 -30 9h-53v-309h53c16 0 26 3 30 9s6 18.667 6 38z" />
    <glyph glyph-name="C" unicode="C" horiz-adv-x="177" 
d="M45 643v-586c0 -19.333 2 -32 6 -38s14 -9 30 -9h17c16 0 26 3 30 9s6 18.667 6 38v245h16v-251c0 -22 -3.5 -36.833 -10.5 -44.5s-20.5 -11.5 -40.5 -11.5h-20c-20 0 -33.5 3.83301 -40.5 11.5s-10.5 22.5 -10.5 44.5v598c0 22 3.5 36.833 10.5 44.5
s20.5 11.5 40.5 11.5h20c20 0 33.5 -3.83301 40.5 -11.5s10.5 -22.5 10.5 -44.5v-221h-16v215c0 19.333 -2 32 -6 38s-14 9 -30 9h-17c-16 0 -26 -3 -30 -9s-6 -18.667 -6 -38z" />
    <glyph glyph-name="D" unicode="D" horiz-adv-x="181" 
d="M30 0v700h72c20 0 33.5 -3.83301 40.5 -11.5s10.5 -22.5 10.5 -44.5v-588c0 -22 -3.5 -36.833 -10.5 -44.5s-20.5 -11.5 -40.5 -11.5h-72zM47 15h53c16 0 26 3 30 9s6 18.667 6 38v576c0 19.333 -2 32 -6 38s-14 9 -30 9h-53v-670z" />
    <glyph glyph-name="E" unicode="E" horiz-adv-x="139" 
d="M47 685v-309h68v-15h-68v-346h77v-15h-94v700h94v-15h-77z" />
    <glyph glyph-name="F" unicode="F" horiz-adv-x="131" 
d="M47 685v-319h66v-15h-66v-351h-17v700h92v-15h-75z" />
    <glyph glyph-name="G" unicode="G" horiz-adv-x="177" 
d="M90 339v15h60v-303c0 -22 -3.5 -36.833 -10.5 -44.5s-20.5 -11.5 -40.5 -11.5h-20c-20 0 -33.5 3.83301 -40.5 11.5s-10.5 22.5 -10.5 44.5v598c0 22 3.5 36.833 10.5 44.5s20.5 11.5 40.5 11.5h20c20 0 33.5 -3.83301 40.5 -11.5s10.5 -22.5 10.5 -44.5v-221h-16v215
c0 19.333 -2 32 -6 38s-14 9 -30 9h-17c-16 0 -26 -3 -30 -9s-6 -18.667 -6 -38v-586c0 -19.333 2 -32 6 -38s14 -9 30 -9h17c16 0 26 3 30 9s6 18.667 6 38v282h-44z" />
    <glyph glyph-name="H" unicode="H" horiz-adv-x="183" 
d="M47 0h-17v700h17v-324h89v324h17v-700h-17v361h-89v-361z" />
    <glyph glyph-name="I" unicode="I" horiz-adv-x="77" 
d="M30 0v700h17v-700h-17z" />
    <glyph glyph-name="J" unicode="J" horiz-adv-x="164" 
d="M29 302v-245c0 -19.333 2 -32 6 -38s14 -9 30 -9h17c16 0 26 3 30 9s6 18.667 6 38v643h17v-649c0 -22 -3.5 -36.833 -10.5 -44.5s-20.5 -11.5 -40.5 -11.5h-20c-20 0 -33.5 3.83301 -40.5 11.5s-10.5 22.5 -10.5 44.5v251h16z" />
    <glyph glyph-name="K" unicode="K" horiz-adv-x="171" 
d="M30 0l0.000976562 700h17v-328c3.33301 13.333 8.66602 31 15.999 53l86 275h16l-105 -330l107 -370h-18l-89 316c-1.33301 5.33301 -3.5 13 -6.5 23s-5.16699 18 -6.5 24v-363h-17z" />
    <glyph glyph-name="L" unicode="L" horiz-adv-x="127" 
d="M30 0v700h17v-685h71v-15h-88z" />
    <glyph glyph-name="M" unicode="M" horiz-adv-x="231" 
d="M177 535l-49.998 -534.999h-23l-51 535c0 3.33301 -1.33301 20.333 -4 51l-6 69c1.33301 -45.333 2 -85.333 2 -120v-535h-15v700h24l51 -535c5.33301 -52.667 9 -96 11 -130c1.33301 12.667 3.16602 33.667 5.49902 63s4.16602 51.666 5.49902 66.999l50 535h24v-700
h-17v535c0 33.333 0.666992 72 2 116c-1.33301 -15.333 -3 -37.5 -5 -66.5s-3.33301 -45.5 -4 -49.5z" />
    <glyph glyph-name="N" unicode="N" horiz-adv-x="186" 
d="M137 0l-81 563.001c-6.66699 48.667 -11 84.667 -13 108c1.33301 -42.667 2 -78.334 2 -107.001v-564h-15v700h23l77 -535c6 -44 10.333 -80.667 13 -110c-1.33301 64 -2 100.333 -2 109v536h15v-700h-19z" />
    <glyph glyph-name="O" unicode="O" horiz-adv-x="179" 
d="M28 51v598c0 22 3.5 36.833 10.5 44.5s20.5 11.5 40.5 11.5h21c20 0 33.5 -3.83301 40.5 -11.5s10.5 -22.5 10.5 -44.5v-598c0 -22 -3.5 -36.833 -10.5 -44.5s-20.5 -11.5 -40.5 -11.5h-21c-20 0 -33.5 3.83301 -40.5 11.5s-10.5 22.5 -10.5 44.5zM134 57v586
c0 19.333 -2 32 -6 38s-14 9 -30 9h-17c-16 0 -26 -3 -30 -9s-6 -18.667 -6 -38v-586c0 -19.333 2 -32 6 -38s14 -9 30 -9h17c16 0 26 3 30 9s6 18.667 6 38z" />
    <glyph glyph-name="P" unicode="P" horiz-adv-x="161" 
d="M30 0v700h67c20 0 33.5 -3.83301 40.5 -11.5s10.5 -22.5 10.5 -44.5v-291c0 -21.333 -3.5 -35.833 -10.5 -43.5s-20.5 -11.5 -40.5 -11.5h-50v-298h-17zM47 312h48c16 0 26 3.16699 30 9.5s6 18.833 6 37.5v279c0 19.333 -2 32 -6 38s-14 9 -30 9h-48v-373z" />
    <glyph glyph-name="Q" unicode="Q" horiz-adv-x="179" 
d="M28 51v598.002c0 22 3.5 36.833 10.5 44.5s20.5 11.5 40.5 11.5h21c20 0 33.5 -3.83301 40.5 -11.5s10.5 -22.5 10.5 -44.5v-598c0 -21.333 -3.33301 -35.833 -10 -43.5s-19.667 -11.834 -39 -12.501v-37c0 -14.667 2.5 -24.834 7.5 -30.501s13.167 -8.5 24.5 -8.5h8v-12
h-8c-16.667 0 -29 3.33301 -37 10s-12 20.667 -12 42v36h-6c-20 0 -33.5 3.83301 -40.5 11.5s-10.5 22.5 -10.5 44.5zM134 57.002v586c0 19.333 -2 32 -6 38s-14 9 -30 9h-17c-16 0 -26 -3 -30 -9s-6 -18.667 -6 -38v-586c0 -19.333 2 -32 6 -38s14 -9 30 -9h17
c16 0 26 3 30 9s6 18.667 6 38z" />
    <glyph glyph-name="R" unicode="R" horiz-adv-x="181" 
d="M153 305v-238.001c0 -29.333 2 -51.666 6 -66.999h-18c-3.33301 8 -5 27.667 -5 59v243c0 18.667 -2.33301 31.5 -7 38.5s-15 10.5 -31 10.5h-51v-351h-17v700h72c20 0 33.5 -3.83301 40.5 -11.5s10.5 -22.5 10.5 -44.5v-233c0 -16.667 -1.83301 -29 -5.5 -37
s-10.5 -13.333 -20.5 -16c17.333 -4 26 -21.667 26 -53zM136 412.999v225c0 19.333 -2 32 -6 38s-14 9 -30 9h-53v-319h53c16 0 26 3 30 9s6 18.667 6 38z" />
    <glyph glyph-name="S" unicode="S" horiz-adv-x="172" 
d="M128 57l0.000976562 153c0 31.333 -2.5 54.833 -7.5 70.5s-17.833 38.834 -38.5 69.501c-24.667 36.667 -40 64 -46 82s-9 44.667 -9 80v137c0 22 3.5 36.833 10.5 44.5s20.5 11.5 40.5 11.5h16c20 0 33.5 -3.83301 40.5 -11.5s10.5 -22.5 10.5 -44.5v-211h-16v205
c0 19.333 -2 32 -6 38s-14 9 -30 9h-13c-16 0 -26 -3 -30 -9s-6 -18.667 -6 -38v-135c0 -31.333 2.5 -54.833 7.5 -70.5s17.833 -38.834 38.5 -69.501c24.667 -36.667 40 -64 46 -82s9 -44.667 9 -80v-155c0 -22 -3.33301 -36.833 -10 -44.5s-20.334 -11.5 -41.001 -11.5
h-16c-20 0 -33.5 3.83301 -40.5 11.5s-10.5 22.5 -10.5 44.5v231h16v-225c0 -19.333 2 -32 6 -38s14 -9 30 -9h13c16 0 26 3 30 9s6 18.667 6 38z" />
    <glyph glyph-name="T" unicode="T" horiz-adv-x="115" 
d="M66 0h-17v685h-43v15h103v-15h-43v-685z" />
    <glyph glyph-name="U" unicode="U" horiz-adv-x="180" 
d="M46 700v-643c0 -19.333 2 -32 6 -38s14 -9 30 -9h17c16 0 26 3 30 9s6 18.667 6 38v643h16v-649c0 -22 -3.5 -36.833 -10.5 -44.5s-20.5 -11.5 -40.5 -11.5h-20c-20 0 -33.5 3.83301 -40.5 11.5s-10.5 22.5 -10.5 44.5v649h17z" />
    <glyph glyph-name="V" unicode="V" horiz-adv-x="168" 
d="M33 700l33 -400c11.333 -140.667 18 -233.334 20 -278.001c2 44.667 8.66699 137.334 20 278.001l32 400h15l-57 -700h-22l-58 700h17z" />
    <glyph glyph-name="W" unicode="W" horiz-adv-x="249" 
d="M111 419l-29.001 -419.001h-18l-48 700h17l28 -400c6.66699 -95.333 11 -178.666 13 -249.999c1.33301 58 6 141.333 14 250l28 400h20l28 -400c8 -108.667 12.667 -192 14 -250c0.666992 37.333 5.33398 120.333 14.001 249l27 401h15l-48 -700h-18l-29 419
c-8 115.333 -12.667 203.666 -14 264.999c-1.33301 -61.333 -6 -149.666 -14 -264.999z" />
    <glyph glyph-name="X" unicode="X" horiz-adv-x="168" 
d="M111 552l22.999 148h15l-53 -333l56 -367h-17l-27 178c-12.667 77.333 -21 135.333 -25 174c-6 -52.667 -14 -110.667 -24 -174l-27 -178h-16l57 367l-54 333h17l24 -148c14.667 -92.667 23.334 -149.667 26.001 -171c4.66699 37.333 13 94.333 25 171z" />
    <glyph glyph-name="Y" unicode="Y" horiz-adv-x="151" 
d="M85 0h-17v267l-60 433h17l30 -213c10.667 -75.333 18 -139 22 -191c3.33301 41.333 11 105 23 191l29 213h15l-59 -433v-267z" />
    <glyph glyph-name="Z" unicode="Z" horiz-adv-x="134" 
d="M19 685v15h100v-14l-88 -671h88v-15h-105v14l88 671h-83z" />
    <glyph glyph-name="bracketleft" unicode="[" horiz-adv-x="108" 
d="M30 710h63v-14h-47v-752h47v-14h-63v780z" />
    <glyph glyph-name="backslash" unicode="\" 
d="M32 720l117 -740h-15l-117 740h15z" />
    <glyph glyph-name="bracketright" unicode="]" horiz-adv-x="108" 
d="M15 710h63v-780h-63v14h47v752h-47v14z" />
    <glyph glyph-name="asciicircum" unicode="^" 
d="M76 700h14l50 -125h-17l-40 105l-40 -105h-17z" />
    <glyph glyph-name="underscore" unicode="_" horiz-adv-x="500" 
d="M500 -12v-14h-500v14h500z" />
    <glyph glyph-name="grave" unicode="`" horiz-adv-x="83" 
d="M34 683l31 -71h-11l-41 71h21z" />
    <glyph glyph-name="a" unicode="a" horiz-adv-x="159" 
d="M23 224c0 25.333 3.00098 44.333 9.00098 57s18.333 27 37 43c21.333 18.667 34.5 32.667 39.5 42s7.5 24.333 7.5 45v125c0 17.333 -1.66699 28.833 -5 34.5s-12 8.5 -26 8.5h-14c-14 0 -22.667 -2.83301 -26 -8.5s-5 -17.167 -5 -34.5v-147h-15v154
c0 19.333 3 32.5 9 39.5s17.667 10.5 35 10.5h18c18 0 30 -3.5 36 -10.5s9 -20.167 9 -39.5v-492c0 -22 1 -39 3 -51h-14c-2 5.33301 -3 14 -3 26c-6.66699 -20.667 -21.334 -31 -44.001 -31h-8c-16.667 0 -28 3.5 -34 10.5s-9 19.5 -9 37.5v181zM116.001 62v294
c-4.66699 -10.667 -16.667 -24 -36 -40c-18 -15.333 -29.333 -28.5 -34 -39.5s-7 -28.167 -7 -51.5v-176c0 -16 1.66699 -26.667 5 -32s11.333 -8 24 -8h11c24.667 0 37 17.667 37 53z" />
    <glyph glyph-name="b" unicode="b" horiz-adv-x="165" 
d="M123 539c0 16 -1.66699 26.667 -5 32s-11.333 8 -24 8h-13c-24.667 0 -37 -17.667 -37 -53v-464c0 -35.333 12.333 -53 37 -53h13c12.667 0 20.667 2.66699 24 8s5 16 5 32v490zM44 700v-133c6.66699 17.333 20.667 26 42 26h10c16.667 0 28 -3.5 34 -10.5
s9 -19.5 9 -37.5v-502c0 -18 -3 -30.5 -9 -37.5s-17.333 -10.5 -34 -10.5h-10c-24 0 -38.667 10.667 -44 32l-3 -27h-11v700h16z" />
    <glyph glyph-name="c" unicode="c" horiz-adv-x="161" 
d="M121 52v187h15v-194c0 -19.333 -3 -32.5 -9 -39.5s-18 -10.5 -36 -10.5h-20c-18 0 -30 3.5 -36 10.5s-9 20.167 -9 39.5v498c0 19.333 3 32.5 9 39.5s18 10.5 36 10.5h20c18 0 30 -3.5 36 -10.5s9 -20.167 9 -39.5v-184h-15v177c0 17.333 -1.66699 28.833 -5 34.5
s-12 8.5 -26 8.5h-17c-14 0 -22.667 -2.83301 -26 -8.5s-5 -17.167 -5 -34.5v-484c0 -17.333 1.66699 -28.833 5 -34.5s12 -8.5 26 -8.5h17c14 0 22.667 2.83301 26 8.5s5 17.167 5 34.5z" />
    <glyph glyph-name="d" unicode="d" horiz-adv-x="165" 
d="M121 62v464c0 35.333 -12.333 53 -37 53h-13c-12.667 0 -20.667 -2.66699 -24 -8s-5 -16 -5 -32v-490c0 -16 1.66699 -26.667 5 -32s11.333 -8 24 -8h13c24.667 0 37 17.667 37 53zM137 51c0 -22 1.00098 -39 3.00098 -51h-14c-2 5.33301 -3 14 -3 26
c-6.66699 -20.667 -21.334 -31 -44.001 -31h-10c-16.667 0 -28 3.5 -34 10.5s-9 19.5 -9 37.5v502c0 18 3 30.5 9 37.5s17.333 10.5 34 10.5h10c20.667 0 34.667 -8.66699 42 -26v133h16v-649z" />
    <glyph glyph-name="e" unicode="e" horiz-adv-x="161" 
d="M121 52v146h15v-153c0 -19.333 -3 -32.5 -9 -39.5s-18 -10.5 -36 -10.5h-20c-18 0 -30 3.5 -36 10.5s-9 20.167 -9 39.5v498c0 19.333 3 32.5 9 39.5s18 10.5 36 10.5h20c18 0 30 -3.5 36 -10.5s9 -20.167 9 -39.5v-251h-94v-240c0 -17.333 1.66699 -28.833 5 -34.5
s12 -8.5 26 -8.5h17c14 0 22.667 2.83301 26 8.5s5 17.167 5 34.5zM42 536v-230h79v230c0 17.333 -1.66699 28.833 -5 34.5s-12 8.5 -26 8.5h-17c-14 0 -22.667 -2.83301 -26 -8.5s-5 -17.167 -5 -34.5z" />
    <glyph glyph-name="f" unicode="f" horiz-adv-x="91" 
d="M6 574v14h26v62c0 19.333 3 32.5 9 39.5s17.667 10.5 35 10.5h9v-14h-6c-12.667 0 -21 -2.16699 -25 -6.5s-6 -14.833 -6 -31.5v-60h37v-14h-37v-574h-16v574h-26z" />
    <glyph glyph-name="g" unicode="g" horiz-adv-x="157" 
d="M135 111c0 -19.333 -3.00195 -32.5 -9.00195 -39.5s-18 -10.5 -36 -10.5h-24c-9.33301 0 -16 -2.16699 -20 -6.5s-6 -11.833 -6 -22.5v-3c0 -16 10.333 -24 31 -24h29c10.667 0 19.334 -0.666992 26.001 -2s12.667 -5.33301 18 -12s8 -16.334 8 -29.001v-15
c0 -17.333 -4.16699 -29.166 -12.5 -35.499s-21.166 -9.5 -38.499 -9.5h-36c-28.667 0 -43 14 -43 42v14c0 19.333 7.33301 31.333 22 36c-10.667 4.66699 -16 16 -16 34v6c0 14.667 5 24.667 15 30c-12.667 5.33301 -19 21 -19 47v432c0 19.333 3 32.5 9 39.5
s18 10.5 36 10.5h19c21.333 0 34.666 -6 39.999 -18c2.66699 12 8.33398 18 17.001 18h6v-14h-5c-7.33301 0 -11 -5.33301 -11 -16v-452zM39.998 536v-418c0 -17.333 1.66699 -28.833 5 -34.5s12 -8.5 26 -8.5h17c14 0 22.667 2.83301 26 8.5s5 17.167 5 34.5v418
c0 17.333 -1.66699 28.833 -5 34.5s-12 8.5 -26 8.5h-17c-14 0 -22.667 -2.83301 -26 -8.5s-5 -17.167 -5 -34.5zM135.998 -53l0.00195312 14.998c0 10.667 -2.83301 17.834 -8.5 21.501s-14.834 5.5 -27.501 5.5h-35c-10.667 0 -18 -2.16699 -22 -6.5
s-6 -12.166 -6 -23.499v-12c0 -11.333 2.5 -19.333 7.5 -24s13.167 -7 24.5 -7h31c13.333 0 22.666 2 27.999 6s8 12.333 8 25z" />
    <glyph glyph-name="h" unicode="h" 
d="M94 579h-13c-24.667 0 -37 -17.667 -37 -53v-526h-16v700h16v-133c6.66699 17.333 20.667 26 42 26h10c16.667 0 28 -3.5 34 -10.5s9 -19.5 9 -37.5v-545h-16v539c0 16 -1.66699 26.667 -5 32s-11.333 8 -24 8z" />
    <glyph glyph-name="i" unicode="i" horiz-adv-x="72" 
d="M44 588v-588h-16v588h16zM28 663v37h16v-37h-16z" />
    <glyph glyph-name="j" unicode="j" horiz-adv-x="72" 
d="M28 588h15.999v-631c0 -19.333 -2.83301 -32.5 -8.5 -39.5s-17.167 -10.5 -34.5 -10.5h-7v14h4c12.667 0 20.834 2.16699 24.501 6.5s5.5 14.833 5.5 31.5v629zM27.999 663v37h16v-37h-16z" />
    <glyph glyph-name="k" unicode="k" horiz-adv-x="156" 
d="M44 310l-0.000976562 -310h-16v700h16v-381c2 7.33301 5.16699 17.5 9.5 30.5s7.5 22.833 9.5 29.5l66 209h15l-87 -271l93 -317h-17l-73 252c-9.33301 32 -14.666 51.333 -15.999 58z" />
    <glyph glyph-name="l" unicode="l" horiz-adv-x="72" 
d="M44 0h-16v700h16v-700z" />
    <glyph glyph-name="m" unicode="m" horiz-adv-x="249" 
d="M44 0h-16.002v588h14v-27c6.66699 21.333 21.334 32 44.001 32h4c22.667 0 36.334 -8.66699 41.001 -26c6.66699 17.333 20.667 26 42 26h6c16.667 0 28 -3.5 34 -10.5s9 -19.5 9 -37.5v-545h-16v539c0 16 -1.66699 26.667 -5 32s-11.333 8 -24 8h-7
c-24.667 0 -37 -17.667 -37 -53v-526h-16v539c0 16 -1.66699 26.667 -5 32s-11.333 8 -24 8h-7c-24.667 0 -37 -17.333 -37 -52v-527z" />
    <glyph glyph-name="n" unicode="n" 
d="M139 0h-16.001v539c0 16 -1.66699 26.667 -5 32s-11.333 8 -24 8h-13c-24.667 0 -37 -17.667 -37 -53v-526h-16v588h14v-27c6.66699 21.333 21.334 32 44.001 32h10c16.667 0 28 -3.5 34 -10.5s9 -19.5 9 -37.5v-545z" />
    <glyph glyph-name="o" unicode="o" horiz-adv-x="163" 
d="M137 543v-498c0 -19.333 -3 -32.5 -9 -39.5s-18 -10.5 -36 -10.5h-21c-18 0 -30 3.5 -36 10.5s-9 20.167 -9 39.5v498c0 19.333 3 32.5 9 39.5s18 10.5 36 10.5h21c18 0 30 -3.5 36 -10.5s9 -20.167 9 -39.5zM42 536v-484c0 -17.333 1.66699 -28.833 5 -34.5
s12 -8.5 26 -8.5h17c14 0 22.667 2.83301 26 8.5s5 17.167 5 34.5v484c0 17.333 -1.66699 28.833 -5 34.5s-12 8.5 -26 8.5h-17c-14 0 -22.667 -2.83301 -26 -8.5s-5 -17.167 -5 -34.5z" />
    <glyph glyph-name="p" unicode="p" horiz-adv-x="165" 
d="M123 539c0 16 -1.66699 26.667 -5 32s-11.333 8 -24 8h-13c-24.667 0 -37 -17.667 -37 -53v-464c0 -35.333 12.333 -53 37 -53h13c12.667 0 20.667 2.66699 24 8s5 16 5 32v490zM44 -93h-16.001v681h14v-27c6.66699 21.333 21.334 32 44.001 32h10
c16.667 0 28 -3.5 34 -10.5s9 -19.5 9 -37.5v-502c0 -18 -3 -30.5 -9 -37.5s-17.333 -10.5 -34 -10.5h-10c-21.333 0 -35.333 8.66699 -42 26v-114z" />
    <glyph glyph-name="q" unicode="q" horiz-adv-x="165" 
d="M121 62v464c0 35.333 -12.333 53 -37 53h-13c-12.667 0 -20.667 -2.66699 -24 -8s-5 -16 -5 -32v-490c0 -16 1.66699 -26.667 5 -32s11.333 -8 24 -8h13c24.667 0 37 17.667 37 53zM137 588l-0.000976562 -681h-16v114c-7.33301 -17.333 -21.333 -26 -42 -26h-10
c-16.667 0 -28 3.5 -34 10.5s-9 19.5 -9 37.5v502c0 18 3 30.5 9 37.5s17.333 10.5 34 10.5h10c22.667 0 37.334 -10.667 44.001 -32l3 27h11z" />
    <glyph glyph-name="r" unicode="r" horiz-adv-x="92" 
d="M44 0h-16v588h14v-33c5.33301 25.333 18.333 38 39 38h5v-16h-5c-24.667 0 -37 -21.667 -37 -65v-512z" />
    <glyph glyph-name="s" unicode="s" horiz-adv-x="156" 
d="M117 52v119c0 27.333 -2.5 48 -7.5 62s-16.833 33 -35.5 57c-22 27.333 -36 49.333 -42 66s-9 40 -9 70v117c0 19.333 3 32.5 9 39.5s18 10.5 36 10.5h20c18 0 30 -3.5 36 -10.5s9 -20.167 9 -39.5v-154h-15v147c0 17.333 -1.66699 28.833 -5 34.5s-12 8.5 -26 8.5h-17
c-14 0 -22.667 -2.83301 -26 -8.5s-5 -17.167 -5 -34.5v-110c0 -27.333 2.5 -48.333 7.5 -63s16.833 -33.667 35.5 -57c22 -27.333 36 -49.333 42 -66s9 -40 9 -70v-125c0 -19.333 -3 -32.5 -9 -39.5s-18 -10.5 -36 -10.5h-20c-18 0 -30 3.5 -36 10.5s-9 20.167 -9 39.5v164
h15v-157c0 -17.333 1.83301 -28.833 5.5 -34.5s12.5 -8.5 26.5 -8.5h15c14 0 22.833 2.83301 26.5 8.5s5.5 17.167 5.5 34.5z" />
    <glyph glyph-name="t" unicode="t" horiz-adv-x="88" 
d="M6 574v14.001h26v85h16v-85h34v-14h-34v-505c0 -30.667 2.66699 -53.667 8 -69h-18c-4 9.33301 -6 29.666 -6 60.999v513h-26z" />
    <glyph glyph-name="u" unicode="u" 
d="M138 51c0 -22 1.00098 -39 3.00098 -51h-14c-2 5.33301 -3 14 -3 26c-6.66699 -20.667 -21.334 -31 -44.001 -31h-10c-16.667 0 -28 3.5 -34 10.5s-9 19.5 -9 37.5v545h16v-539c0 -16 1.66699 -26.667 5 -32s11.333 -8 24 -8h13c24.667 0 37 17.667 37 53v526h16v-537z
" />
    <glyph glyph-name="v" unicode="v" horiz-adv-x="144" 
d="M23 588l31 -323c10.667 -109.333 17 -188.666 19 -237.999c2 49.333 8.33301 128.666 19 237.999l31 323h14l-56 -588h-19l-55 588h16z" />
    <glyph glyph-name="w" unicode="w" horiz-adv-x="230" 
d="M102 374l-32.002 -374.002h-19l-43 588h16l24 -323c6.66699 -84 11.334 -163.333 14.001 -238c0.666992 32.667 6 112 16 238l29 323h17l29 -323c9.33301 -113.333 14.666 -192.666 15.999 -237.999c0.666992 54 5.33398 133.333 14.001 238l25 323h14l-44 -588h-19
l-31 374c-8 100.667 -12.333 163 -13 187c-1.33301 -33.333 -5.66602 -95.666 -12.999 -186.999z" />
    <glyph glyph-name="x" unicode="x" horiz-adv-x="150" 
d="M115 543l8 45h14l-50 -279l53 -309h-16l-12 68c-16 89.333 -28.667 167 -38 233c-9.33301 -65.333 -22 -143 -38 -233l-12 -68h-14l53 309l-50 279h16l8 -45c22.667 -124.667 35.667 -200 39 -226c3.33301 26 16.333 101.333 39 226z" />
    <glyph glyph-name="y" unicode="y" horiz-adv-x="144" 
d="M77 -45c-2.66699 -26.667 -15.667 -40 -39 -40h-20v14h19c14 0 22 9 24 27l2 26l-56 606h16l31 -323c10.667 -109.333 17 -188.666 19 -237.999c2 49.333 8.33301 128.666 19 237.999l31 323h14z" />
    <glyph glyph-name="z" unicode="z" horiz-adv-x="127" 
d="M20 574v14h93v-13l-82 -561h82v-14h-98v13l82 561h-77z" />
    <glyph glyph-name="braceleft" unicode="{" horiz-adv-x="119" 
d="M11 313l-2 -0.000976562v14h2c12.667 0 20.834 2.33301 24.501 7s5.5 15.334 5.5 32.001v294c0 19.333 3 32.5 9 39.5s18 10.5 36 10.5h18v-14h-15c-14 0 -22.833 -2.83301 -26.5 -8.5s-5.5 -17.167 -5.5 -34.5v-286c0 -26.667 -7 -42.334 -21 -47.001
c14 -5.33301 21 -21 21 -47v-286c0 -17.333 1.83301 -28.833 5.5 -34.5s12.5 -8.5 26.5 -8.5h15v-14h-18c-18 0 -30 3.5 -36 10.5s-9 20.167 -9 39.5v294c0 16.667 -1.83301 27.334 -5.5 32.001s-11.834 7 -24.501 7z" />
    <glyph glyph-name="bar" unicode="|" 
d="M91 700v-793h-16v793h16z" />
    <glyph glyph-name="braceright" unicode="}" horiz-adv-x="119" 
d="M110 313l-2 0.000976562c-12.667 0 -20.834 -2.33301 -24.501 -7s-5.5 -15.334 -5.5 -32.001v-294c0 -19.333 -3 -32.5 -9 -39.5s-18 -10.5 -36 -10.5h-18v14h15c14 0 22.833 2.83301 26.5 8.5s5.5 17.167 5.5 34.5v286c0 26 7 41.667 21 47
c-14 4.66699 -21 20.334 -21 47.001v286c0 17.333 -1.83301 28.833 -5.5 34.5s-12.5 8.5 -26.5 8.5h-15v14h18c18 0 30 -3.5 36 -10.5s9 -20.167 9 -39.5v-294c0 -16.667 1.83301 -27.334 5.5 -32.001s11.834 -7 24.501 -7h2v-14z" />
    <glyph glyph-name="asciitilde" unicode="~" 
d="M140 371l-0.000976562 -22c-8.66699 -13.333 -18.334 -20 -29.001 -20c-6.66699 0 -16.5 4 -29.5 12s-22.5 12 -28.5 12c-10 0 -19 -8 -27 -24v21c8.66699 13.333 18.334 20 29.001 20c6.66699 0 16.334 -3.83301 29.001 -11.5s22 -11.5 28 -11.5c10.667 0 20 8 28 24z
" />
    <glyph glyph-name="uni00A0" unicode="&#xa0;" horiz-adv-x="86" 
 />
    <glyph glyph-name="exclamdown" unicode="&#xa1;" horiz-adv-x="75" 
d="M29 130l5 407h7l5 -407v-223h-17v223zM47 607v-35h-19v35h19z" />
    <glyph glyph-name="cent" unicode="&#xa2;" 
d="M123 108l-0.000976562 187h15v-194c0 -19.333 -3.16699 -32.5 -9.5 -39.5s-18.166 -10.5 -35.499 -10.5h-3v-51h-14v51h-3c-18 0 -30 3.5 -36 10.5s-9 20.167 -9 39.5v498c0 19.333 3 32.5 9 39.5s18 10.5 36 10.5h3v51h14v-51h3c18 0 30 -3.5 36 -10.5
s9 -20.167 9 -39.5v-184h-15v177c0 17.333 -1.66699 28.833 -5 34.5s-12 8.5 -26 8.5h-17c-14 0 -22.667 -2.83301 -26 -8.5s-5 -17.167 -5 -34.5v-484c0 -17.333 1.66699 -28.833 5 -34.5s12 -8.5 26 -8.5h17c14 0 22.667 2.83301 26 8.5s5 17.167 5 34.5z" />
    <glyph glyph-name="sterling" unicode="&#xa3;" 
d="M127 212l-47.999 -0.000976562c-1.33301 -73.333 -15 -139 -41 -197h99v-15h-114v15c26 54.667 39.667 120.334 41 197.001h-31v15h31c-0.666992 13.333 -7 54.5 -19 123.5s-18 132.833 -18 191.5v111c0 20 3.16699 33.667 9.5 41s18.833 11 37.5 11h19
c18.667 0 31.167 -3.66699 37.5 -11s9.5 -21 9.5 -41v-245h-15v239c0 17.333 -1.83301 28.833 -5.5 34.5s-12.834 8.5 -27.501 8.5h-16c-14.667 0 -23.834 -2.83301 -27.501 -8.5s-5.5 -17.167 -5.5 -34.5v-106c0 -56.667 5.83301 -119.667 17.5 -189
s17.834 -111 18.501 -125h48v-15z" />
    <glyph glyph-name="currency" unicode="&#xa4;" 
d="M38 350c0 10.667 3 19.667 9 27l-26 24l10 10l24 -25c8 6.66699 17.333 10 28 10s20 -3.33301 28 -10l24 25l10 -10l-26 -24c6 -7.33301 9 -16.333 9 -27s-3 -19.667 -9 -27l26 -24l-10 -10l-24 25c-8 -6.66699 -17.333 -10 -28 -10s-20 3.33301 -28 10l-24 -25l-10 10
l26 24c-6 7.33301 -9 16.333 -9 27zM49 350c0 -9.33301 3.33301 -17.333 10 -24s14.667 -10 24 -10s17.333 3.33301 24 10s10 14.667 10 24s-3.33301 17.333 -10 24s-14.667 10 -24 10s-17.333 -3.33301 -24 -10s-10 -14.667 -10 -24z" />
    <glyph glyph-name="yen" unicode="&#xa5;" 
d="M105 487l27.001 213h15l-56 -434v-7h53v-14h-53v-53h53v-14h-53v-178h-16v178h-53v14h53v53h-53v14h53v7l-56 434h16l28 -215c10 -70 16.667 -133 20 -189c1.33301 15.333 8.66602 79 21.999 191z" />
    <glyph glyph-name="brokenbar" unicode="&#xa6;" 
d="M91 700v-370h-16v370h16zM91 277v-370h-16v370h16z" />
    <glyph glyph-name="section" unicode="&#xa7;" horiz-adv-x="156" 
d="M38 -19c0 -17.333 1.66699 -28.832 5 -34.499s12 -8.5 26 -8.5h17c14 0 22.667 2.83301 26 8.5s5 17.167 5 34.5v64c0 24.667 -2.5 44.5 -7.5 59.5s-16.5 34.833 -34.5 59.5c-22 30 -36.167 53.167 -42.5 69.5s-9.5 38.166 -9.5 65.499v108c0 22 2.5 37.667 7.5 47
s14.5 14.666 28.5 15.999c-14.667 21.333 -24.334 39.5 -29.001 54.5s-7 34.833 -7 59.5v71c0 19.333 3.16699 32.5 9.5 39.5s18.166 10.5 35.499 10.5h20c17.333 0 29.166 -3.5 35.499 -10.5s9.5 -20.167 9.5 -39.5v-134h-15v127c0 17.333 -1.66699 28.833 -5 34.5
s-12 8.5 -26 8.5h-17c-14 0 -22.667 -2.83301 -26 -8.5s-5 -17.167 -5 -34.5v-64c0 -24.667 2.5 -44.5 7.5 -59.5s16.5 -34.833 34.5 -59.5c22 -30 36.167 -53.167 42.5 -69.5s9.5 -38.166 9.5 -65.499v-108c0 -22.667 -2.5 -38.667 -7.5 -48s-14.5 -14.333 -28.5 -15
c14.667 -21.333 24.334 -39.5 29.001 -54.5s7 -34.833 7 -59.5v-71c0 -19.333 -3.16699 -32.5 -9.5 -39.5s-18.166 -10.5 -35.499 -10.5h-20c-17.333 0 -29.166 3.5 -35.499 10.5s-9.5 20.167 -9.5 39.5v134h15v-127zM69 456.001
c-13.333 -0.666992 -21.666 -4.66602 -24.999 -11.999s-5 -21.333 -5 -42v-103c0 -24.667 3 -44.834 9 -60.501s19 -37.5 39 -65.5c13.333 0 21.666 3.66699 24.999 11s5 21.666 5 42.999v103c0 24.667 -3 44.834 -9 60.501s-19 37.5 -39 65.5z" />
    <glyph glyph-name="dieresis" unicode="&#xa8;" horiz-adv-x="83" 
d="M76 634h-18v25h18v-25zM25 634h-18v25h18v-25z" />
    <glyph glyph-name="copyright" unicode="&#xa9;" horiz-adv-x="269" 
d="M243 608v-516c0 -34 -6.33301 -58.667 -19 -74s-36 -23 -70 -23h-39c-34 0 -57.333 7.66699 -70 23s-19 40 -19 74v516c0 34 6.33301 58.667 19 74s36 23 70 23h39c34 0 57.333 -7.66699 70 -23s19 -40 19 -74zM42 608v-516c0 -31.333 5.16699 -53 15.5 -65
s29.833 -18 58.5 -18h38c28.667 0 48.167 6 58.5 18s15.5 33.667 15.5 65v516c0 31.333 -5.16699 53 -15.5 65s-29.833 18 -58.5 18h-38c-28.667 0 -48.167 -6 -58.5 -18s-15.5 -33.667 -15.5 -65zM108 597v-494c0 -10.667 1.5 -17.834 4.5 -21.501s9.5 -5.5 19.5 -5.5h6
c10 0 16.5 1.83301 19.5 5.5s4.5 10.834 4.5 21.501v208h14v-211c0 -14.667 -2.66699 -24.5 -8 -29.5s-14.666 -7.5 -27.999 -7.5h-11c-14 0 -23.5 2.5 -28.5 7.5s-7.5 14.833 -7.5 29.5v500c0 14.667 2.5 24.5 7.5 29.5s14.5 7.5 28.5 7.5h11
c13.333 0 22.666 -2.5 27.999 -7.5s8 -14.833 8 -29.5v-187h-14v184c0 10.667 -1.5 17.834 -4.5 21.501s-9.5 5.5 -19.5 5.5h-6c-10 0 -16.5 -1.83301 -19.5 -5.5s-4.5 -10.834 -4.5 -21.501z" />
    <glyph glyph-name="ordfeminine" unicode="&#xaa;" horiz-adv-x="125" 
d="M37 664l0.00195312 -85.999h-13v89c0 14.667 2.33301 24.667 7 30s13.667 8 27 8h11c13.333 0 22.333 -2.66699 27 -8s7 -15.333 7 -30v-311c0 -15.333 0.666992 -27 2 -35h-12c-1.33301 4 -2 10 -2 18c-4.66699 -15.333 -15.334 -23 -32.001 -23h-7
c-12 0 -20.167 2.5 -24.5 7.5s-6.5 14.167 -6.5 27.5v113c0 16.667 2.16699 29.5 6.5 38.5s13.166 18.833 26.499 29.5c15.333 11.333 25 20.666 29 27.999s6 18.333 6 33v71c0 12 -1.33301 19.833 -4 23.5s-8.66699 5.5 -18 5.5h-8c-9.33301 0 -15.333 -1.83301 -18 -5.5
s-4 -11.5 -4 -23.5zM89.002 364.001v186.999c-4.66699 -8 -13 -16.667 -25 -26c-12.667 -10.667 -20.667 -19.667 -24 -27s-5 -18.666 -5 -33.999v-108c0 -7.33301 0.333008 -12.833 1 -16.5s2.5 -6.5 5.5 -8.5s7.5 -3 13.5 -3h9c16.667 0 25 12 25 36zM21.002 263v14h83
v-14h-83z" />
    <glyph glyph-name="guillemotleft" unicode="&#xab;" horiz-adv-x="141" 
d="M63 81l-55 213l55 213h15l-55 -213l55 -213h-15zM118 81l-55 213l55 213h15l-55 -213l55 -213h-15z" />
    <glyph glyph-name="logicalnot" unicode="&#xac;" 
d="M126 342h-100v15h114v-67h-14v52z" />
    <glyph glyph-name="uni00AD" unicode="&#xad;" horiz-adv-x="107" 
d="M91 293v-16h-75v16h75z" />
    <glyph glyph-name="registered" unicode="&#xae;" horiz-adv-x="269" 
d="M243 608v-516c0 -34 -6.33301 -58.667 -19 -74s-36 -23 -70 -23h-39c-34 0 -57.333 7.66699 -70 23s-19 40 -19 74v516c0 34 6.33301 58.667 19 74s36 23 70 23h39c34 0 57.333 -7.66699 70 -23s19 -40 19 -74zM42 608v-516c0 -31.333 5.16699 -53 15.5 -65
s29.833 -18 58.5 -18h38c28.667 0 48.167 6 58.5 18s15.5 33.667 15.5 65v516c0 31.333 -5.16699 53 -15.5 65s-29.833 18 -58.5 18h-38c-28.667 0 -48.167 -6 -58.5 -18s-15.5 -33.667 -15.5 -65zM176 594l0.000976562 -213.999c0 -18.667 -5.66699 -30.334 -17 -35.001
c11.333 -4 17 -15.333 17 -34v-184c0 -24.667 1.66699 -44 5 -58h-16c-2.66699 7.33301 -4 24.333 -4 51v190c0 10.667 -1.66699 18.167 -5 22.5s-10 6.5 -20 6.5h-28v-270h-15v562h47c13.333 0 22.666 -2.5 27.999 -7.5s8 -14.833 8 -29.5zM137.001 619.001
l-29 -0.00195312v-267h29c10 0 16.5 1.83301 19.5 5.5s4.5 10.834 4.5 21.501v213c0 10.667 -1.5 17.834 -4.5 21.501s-9.5 5.5 -19.5 5.5z" />
    <glyph glyph-name="macron" unicode="&#xaf;" horiz-adv-x="83" 
d="M83 634h-83v14h83v-14z" />
    <glyph glyph-name="degree" unicode="&#xb0;" horiz-adv-x="120" 
d="M60 693c12.667 0 23.167 -4.16699 31.5 -12.5s12.5 -18.833 12.5 -31.5s-4.16699 -23.167 -12.5 -31.5s-18.833 -12.5 -31.5 -12.5s-23.167 4 -31.5 12s-12.5 18.667 -12.5 32c0 12.667 4.16699 23.167 12.5 31.5s18.833 12.5 31.5 12.5zM60 679
c-8.66699 0 -15.834 -2.83301 -21.501 -8.5s-8.5 -12.834 -8.5 -21.501s2.83301 -15.834 8.5 -21.501s12.834 -8.5 21.501 -8.5s15.834 2.83301 21.501 8.5s8.5 12.834 8.5 21.501s-2.83301 15.834 -8.5 21.501s-12.834 8.5 -21.501 8.5z" />
    <glyph glyph-name="plusminus" unicode="&#xb1;" 
d="M140 291v-16h-114v16h114zM76 425h15v-53h49v-15h-49v-52h-15v52h-50v15h50v53z" />
    <glyph glyph-name="twosuperior" unicode="&#xb2;" horiz-adv-x="127" 
d="M36 661l-0.000976562 -109.002h-13v114c0 15.333 2.5 25.666 7.5 30.999s14.167 8 27.5 8h14c13.333 0 22.5 -2.66699 27.5 -8s7.5 -15.666 7.5 -30.999v-51c0 -30 -2.16699 -54 -6.5 -72s-15.166 -44.333 -32.499 -79c-14 -29.333 -23.167 -52.666 -27.5 -69.999
s-6.5 -39.333 -6.5 -66v-39h72v-13h-87v52c0 28.667 2.5 52 7.5 70s16.167 45 33.5 81c13.333 27.333 22.166 49.833 26.499 67.5s6.5 40.5 6.5 68.5v46c0 8 -0.333008 13.833 -1 17.5s-2.66699 6.83398 -6 9.50098s-8.66602 4 -15.999 4h-11c-10.667 0 -17.167 -2 -19.5 -6
s-3.5 -12.333 -3.5 -25z" />
    <glyph glyph-name="threesuperior" unicode="&#xb3;" horiz-adv-x="127" 
d="M91 315v142.001c0 12.667 -1.16699 21 -3.5 25s-8.83301 6 -19.5 6h-31v13h31c10.667 0 17.167 2 19.5 6s3.5 12.333 3.5 25v129c0 12.667 -1.16699 21 -3.5 25s-8.83301 6 -19.5 6h-11c-10.667 0 -17.167 -2 -19.5 -6s-3.5 -12.333 -3.5 -25v-112h-13v117
c0 15.333 2.5 25.666 7.5 30.999s14.167 8 27.5 8h15c13.333 0 22.333 -2.66699 27 -8s7 -15.666 7 -30.999v-134c0 -22.667 -6.66699 -35.334 -20 -38.001c13.333 -2.66699 20 -15 20 -37v-147c0 -15.333 -2.33301 -25.666 -7 -30.999s-13.667 -8 -27 -8h-15
c-13.333 0 -22.5 2.66699 -27.5 8s-7.5 15.666 -7.5 30.999v116h13v-111c0 -12.667 1.16699 -21 3.5 -25s8.83301 -6 19.5 -6h11c10.667 0 17.167 2 19.5 6s3.5 12.333 3.5 25z" />
    <glyph glyph-name="acute" unicode="&#xb4;" horiz-adv-x="83" 
d="M20 612l31 71h21l-41 -71h-11z" />
    <glyph glyph-name="uni00B5" unicode="&#xb5;" 
d="M43 -93h-15.999v681h16v-539c0 -16 1.66699 -26.667 5 -32s11.333 -8 24 -8h13c24.667 0 37 17.667 37 53v526h16v-537c0 -22 1 -39 3 -51h-14c-2 5.33301 -3 14 -3 26c-6.66699 -20.667 -21.334 -31 -44.001 -31h-10c-11.333 0 -20.333 1.66699 -27 5v-93z" />
    <glyph glyph-name="paragraph" unicode="&#xb6;" horiz-adv-x="196" 
d="M97 685v-756h-17v342h-16c-20 0 -33.5 4 -40.5 12s-10.5 22.667 -10.5 44v317c0 22 3.5 36.833 10.5 44.5s20.5 11.5 40.5 11.5h102v-771h-17v756h-52z" />
    <glyph glyph-name="periodcentered" unicode="&#xb7;" horiz-adv-x="83" 
d="M32 333v35h19v-35h-19z" />
    <glyph glyph-name="cedilla" unicode="&#xb8;" horiz-adv-x="83" 
d="M59 -64c0 10 -1.66797 17.001 -5.00098 21.001s-9.66602 5.33301 -18.999 4v49h7v-37c20.667 0 31 -11.667 31 -35c0 -24 -10.333 -36 -31 -36c-12 0 -20.167 2.83301 -24.5 8.5s-6.5 15.167 -6.5 28.5h15c-1.33301 -10.667 -1 -17.834 1 -21.501s7 -5.5 15 -5.5
c11.333 0 17 8 17 24z" />
    <glyph glyph-name="onesuperior" unicode="&#xb9;" horiz-adv-x="76" 
d="M45 276h-14v417c4.66699 0 7 2.33301 7 7h7v-424z" />
    <glyph glyph-name="ordmasculine" unicode="&#xba;" horiz-adv-x="125" 
d="M22 263v14h82v-14h-82zM22 354v313c0 14.667 2.33301 24.667 7 30s13.334 8 26.001 8h15c13.333 0 22.333 -2.66699 27 -8s7 -15.333 7 -30v-313c0 -14.667 -2.33301 -24.667 -7 -30s-13.667 -8 -27 -8h-15c-12.667 0 -21.334 2.66699 -26.001 8s-7 15.333 -7 30zM90 357
v307c0 12 -1.33301 19.833 -4 23.5s-8.66699 5.5 -18 5.5h-10c-9.33301 0 -15.333 -1.83301 -18 -5.5s-4 -11.5 -4 -23.5v-307c0 -11.333 1.33301 -19 4 -23s8.66699 -6 18 -6h10c9.33301 0 15.333 2 18 6s4 11.667 4 23z" />
    <glyph glyph-name="guillemotright" unicode="&#xbb;" horiz-adv-x="141" 
d="M133 294l-55 -213h-15l55 213l-55 213h15zM78 294l-55 -213h-15l55 213l-55 213h15z" />
    <glyph glyph-name="onequarter" unicode="&#xbc;" horiz-adv-x="229" 
d="M184 424h13v-306h16v-13h-16v-105h-14v105h-65v13zM131 118h52.001v69c0 88 0.333008 151.333 1 190c-10.667 -60 -23.334 -123.333 -38.001 -190zM48.001 0l90 700h12l-90 -700h-12zM45.001 276h-14v417c4.66699 0 7 2.33301 7 7h7v-424z" />
    <glyph glyph-name="onehalf" unicode="&#xbd;" horiz-adv-x="242" 
d="M151 385l-0.000976562 -109.002h-13v114c0 15.333 2.5 25.666 7.5 30.999s14.167 8 27.5 8h14c13.333 0 22.5 -2.66699 27.5 -8s7.5 -15.666 7.5 -30.999v-51c0 -30 -2.16699 -54 -6.5 -72s-15.166 -44.333 -32.499 -79c-14 -29.333 -23.167 -52.666 -27.5 -69.999
s-6.5 -39.333 -6.5 -66v-39h72v-13h-87v52c0 28.667 2.5 52 7.5 70s16.167 45 33.5 81c13.333 27.333 22.166 49.833 26.499 67.5s6.5 40.5 6.5 68.5v46c0 8 -0.333008 13.833 -1 17.5s-2.66699 6.83398 -6 9.50098s-8.66602 4 -15.999 4h-11c-10.667 0 -17.167 -2 -19.5 -6
s-3.5 -12.333 -3.5 -25zM47.999 -0.00195312l90 700h12l-90 -700h-12zM44.999 275.998h-14v417c4.66699 0 7 2.33301 7 7h7v-424z" />
    <glyph glyph-name="threequarters" unicode="&#xbe;" horiz-adv-x="273" 
d="M91 315v142.001c0 12.667 -1.16699 21 -3.5 25s-8.83301 6 -19.5 6h-31v13h31c10.667 0 17.167 2 19.5 6s3.5 12.333 3.5 25v129c0 12.667 -1.16699 21 -3.5 25s-8.83301 6 -19.5 6h-11c-10.667 0 -17.167 -2 -19.5 -6s-3.5 -12.333 -3.5 -25v-112h-13v117
c0 15.333 2.5 25.666 7.5 30.999s14.167 8 27.5 8h15c13.333 0 22.333 -2.66699 27 -8s7 -15.666 7 -30.999v-134c0 -22.667 -6.66699 -35.334 -20 -38.001c13.333 -2.66699 20 -15 20 -37v-147c0 -15.333 -2.33301 -25.666 -7 -30.999s-13.667 -8 -27 -8h-15
c-13.333 0 -22.5 2.66699 -27.5 8s-7.5 15.666 -7.5 30.999v116h13v-111c0 -12.667 1.16699 -21 3.5 -25s8.83301 -6 19.5 -6h11c10.667 0 17.167 2 19.5 6s3.5 12.333 3.5 25zM228 424.001h13v-306h16v-13h-16v-105h-14v105h-65v13zM175 118.001h52.001v69
c0 88 0.333008 151.333 1 190c-10.667 -60 -23.334 -123.333 -38.001 -190zM92.001 0.000976562l90 700h12l-90 -700h-12z" />
    <glyph glyph-name="questiondown" unicode="&#xbf;" horiz-adv-x="145" 
d="M95 607v-58h-20v58h20zM32 97l-0.00195312 -137c0 -17.333 1.83301 -28.833 5.5 -34.5s12.834 -8.5 27.501 -8.5h16c14.667 0 23.834 2.83301 27.501 8.5s5.5 17.167 5.5 34.5v229h15v-235c0 -20 -3.16699 -33.667 -9.5 -41s-18.833 -11 -37.5 -11h-19
c-18.667 0 -31.167 3.66699 -37.5 11s-9.5 21 -9.5 41v141c0 46.667 10.5 99.667 31.5 159s31.5 118.666 31.5 177.999v82h12v-80c0 -61.333 -9.83301 -121.666 -29.5 -180.999s-29.5 -111.333 -29.5 -156z" />
    <glyph glyph-name="Agrave" unicode="&#xc0;" horiz-adv-x="168" 
d="M135 0l-10 120h-86l-9 -120h-15l57 700h22l58 -700h-17zM62 400l-22 -266.001h84l-22 266c-11.333 136.667 -18 227.334 -20 272.001c-2 -45.333 -8.66699 -136 -20 -272zM69 786.999l31 -71h-11l-41 71h21z" />
    <glyph glyph-name="Aacute" unicode="&#xc1;" horiz-adv-x="168" 
d="M135 0l-10 120h-86l-9 -120h-15l57 700h22l58 -700h-17zM62 400l-22 -266.001h84l-22 266c-11.333 136.667 -18 227.334 -20 272.001c-2 -45.333 -8.66699 -136 -20 -272zM69 715.999l31 71h21l-41 -71h-11z" />
    <glyph glyph-name="Acircumflex" unicode="&#xc2;" horiz-adv-x="168" 
d="M135 0l-10 120h-86l-9 -120h-15l57 700h22l58 -700h-17zM62 400l-22 -266.001h84l-22 266c-11.333 136.667 -18 227.334 -20 272.001c-2 -45.333 -8.66699 -136 -20 -272zM90 786.999l35 -71h-11l-30 49l-30 -49h-11l35 71h12z" />
    <glyph glyph-name="Atilde" unicode="&#xc3;" horiz-adv-x="168" 
d="M135 0l-10 120h-86l-9 -120h-15l57 700h22l58 -700h-17zM62 400l-22 -266.001h84l-22 266c-11.333 136.667 -18 227.334 -20 272.001c-2 -45.333 -8.66699 -136 -20 -272zM122 761.999h10.001c0 -12.667 -2 -21.334 -6 -26.001s-10.667 -7 -20 -7
c-8 0 -16.833 3.16699 -26.5 9.5s-16.167 9.5 -19.5 9.5c-8.66699 0 -13 -6.33301 -13 -19h-11c0 12.667 2.16699 21.334 6.5 26.001s11.166 7 20.499 7c7.33301 0 16 -3.16699 26 -9.5s16.667 -9.5 20 -9.5c8.66699 0 13 6.33301 13 19z" />
    <glyph glyph-name="Adieresis" unicode="&#xc4;" horiz-adv-x="168" 
d="M135 0l-10 120h-86l-9 -120h-15l57 700h22l58 -700h-17zM62 400l-22 -266.001h84l-22 266c-11.333 136.667 -18 227.334 -20 272.001c-2 -45.333 -8.66699 -136 -20 -272zM118 737.999h-18v25h18v-25zM67 737.999h-18v25h18v-25z" />
    <glyph glyph-name="Aring" unicode="&#xc5;" horiz-adv-x="168" 
d="M135 0l-10 120h-86l-9 -120h-15l57 700h22l58 -700h-17zM62 400l-22 -266.001h84l-22 266c-11.333 136.667 -18 227.334 -20 272.001c-2 -45.333 -8.66699 -136 -20 -272zM101 750.999c0 12 -5.66699 18 -17 18s-17 -6 -17 -18s5.66699 -18 17 -18s17 6 17 18z
M55 750.999c0 8 2.83301 15 8.5 21s12.5 9 20.5 9s14.833 -3 20.5 -9s8.5 -13 8.5 -21s-2.83301 -15 -8.5 -21s-12.5 -9 -20.5 -9s-14.833 3 -20.5 9s-8.5 13 -8.5 21z" />
    <glyph glyph-name="AE" unicode="&#xc6;" horiz-adv-x="209" 
d="M9 0l85 700h100v-15h-77v-309h68v-15h-68v-346h77v-15h-94v120h-62l-14 -120h-15zM72 400l-32 -266h60v512c-10.667 -101.333 -20 -183.333 -28 -246z" />
    <glyph glyph-name="Ccedilla" unicode="&#xc7;" horiz-adv-x="177" 
d="M103 -64c0 10 -1.66797 17.001 -5.00098 21.001s-9.66602 5.33301 -18.999 4v34c-20 0 -33.5 3.83301 -40.5 11.5s-10.5 22.5 -10.5 44.5v598c0 22 3.5 36.833 10.5 44.5s20.5 11.5 40.5 11.5h20c20 0 33.5 -3.83301 40.5 -11.5s10.5 -22.5 10.5 -44.5v-221h-16v215
c0 19.333 -2 32 -6 38s-14 9 -30 9h-17c-16 0 -26 -3 -30 -9s-6 -18.667 -6 -38v-586c0 -19.333 2 -32 6 -38s14 -9 30 -9h17c16 0 26 3 30 9s6 18.667 6 38v245h16v-251c0 -22 -3.5 -36.833 -10.5 -44.5s-20.5 -11.5 -40.5 -11.5h-13v-22c20.667 0 31 -11.667 31 -35
c0 -24 -10.333 -36 -31 -36c-12 0 -20.167 2.83301 -24.5 8.5s-6.5 15.167 -6.5 28.5h15c-1.33301 -10.667 -1 -17.834 1 -21.501s7 -5.5 15 -5.5c11.333 0 17 8 17 24z" />
    <glyph glyph-name="Egrave" unicode="&#xc8;" horiz-adv-x="139" 
d="M47 685v-309h68v-15h-68v-346h77v-15h-94v700h94v-15h-77zM62 787l31 -71h-11l-41 71h21z" />
    <glyph glyph-name="Eacute" unicode="&#xc9;" horiz-adv-x="139" 
d="M47 685v-309h68v-15h-68v-346h77v-15h-94v700h94v-15h-77zM62 716l31 71h21l-41 -71h-11z" />
    <glyph glyph-name="Ecircumflex" unicode="&#xca;" horiz-adv-x="139" 
d="M47 685v-309h68v-15h-68v-346h77v-15h-94v700h94v-15h-77zM82 787l35 -71h-11l-30 49l-30 -49h-11l35 71h12z" />
    <glyph glyph-name="Edieresis" unicode="&#xcb;" horiz-adv-x="139" 
d="M47 685v-309h68v-15h-68v-346h77v-15h-94v700h94v-15h-77zM110 738h-18v25h18v-25zM59 738h-18v25h18v-25z" />
    <glyph glyph-name="Igrave" unicode="&#xcc;" horiz-adv-x="77" 
d="M24 787l31 -71h-11l-41 71h21zM30 0v700h17v-700h-17z" />
    <glyph glyph-name="Iacute" unicode="&#xcd;" horiz-adv-x="77" 
d="M30 0v700h17v-700h-17zM24 716l31 71h21l-41 -71h-11z" />
    <glyph glyph-name="Icircumflex" unicode="&#xce;" horiz-adv-x="77" 
d="M45 787l35 -71h-11l-30 49l-30 -49h-11l35 71h12zM30 0v700h17v-700h-17z" />
    <glyph glyph-name="Idieresis" unicode="&#xcf;" horiz-adv-x="77" 
d="M73 738h-18v25h18v-25zM22 738h-18v25h18v-25zM30 0v700h17v-700h-17z" />
    <glyph glyph-name="Eth" unicode="&#xd0;" horiz-adv-x="181" 
d="M30 0v362h-18v14h18v324h72c20 0 33.5 -3.83301 40.5 -11.5s10.5 -22.5 10.5 -44.5v-588c0 -22 -3.5 -36.833 -10.5 -44.5s-20.5 -11.5 -40.5 -11.5h-72zM47 15h53c16 0 26 3 30 9s6 18.667 6 38v576c0 19.333 -2 32 -6 38s-14 9 -30 9h-53v-309h48v-14h-48v-347z" />
    <glyph glyph-name="Ntilde" unicode="&#xd1;" horiz-adv-x="186" 
d="M137 0l-81 563.001c-6.66699 48.667 -11 84.667 -13 108c1.33301 -42.667 2 -78.334 2 -107.001v-564h-15v700h23l77 -535c6 -44 10.333 -80.667 13 -110c-1.33301 64 -2 100.333 -2 109v536h15v-700h-19zM131 762.001h10.001c0 -12.667 -2 -21.334 -6 -26.001
s-10.667 -7 -20 -7c-8 0 -16.833 3.16699 -26.5 9.5s-16.167 9.5 -19.5 9.5c-8.66699 0 -13 -6.33301 -13 -19h-11c0 12.667 2.16699 21.334 6.5 26.001s11.166 7 20.499 7c7.33301 0 16 -3.16699 26 -9.5s16.667 -9.5 20 -9.5c8.66699 0 13 6.33301 13 19z" />
    <glyph glyph-name="Ograve" unicode="&#xd2;" horiz-adv-x="179" 
d="M28 51v598c0 22 3.5 36.833 10.5 44.5s20.5 11.5 40.5 11.5h21c20 0 33.5 -3.83301 40.5 -11.5s10.5 -22.5 10.5 -44.5v-598c0 -22 -3.5 -36.833 -10.5 -44.5s-20.5 -11.5 -40.5 -11.5h-21c-20 0 -33.5 3.83301 -40.5 11.5s-10.5 22.5 -10.5 44.5zM134 57v586
c0 19.333 -2 32 -6 38s-14 9 -30 9h-17c-16 0 -26 -3 -30 -9s-6 -18.667 -6 -38v-586c0 -19.333 2 -32 6 -38s14 -9 30 -9h17c16 0 26 3 30 9s6 18.667 6 38zM75 787l31 -71h-11l-41 71h21z" />
    <glyph glyph-name="Oacute" unicode="&#xd3;" horiz-adv-x="179" 
d="M28 51v598c0 22 3.5 36.833 10.5 44.5s20.5 11.5 40.5 11.5h21c20 0 33.5 -3.83301 40.5 -11.5s10.5 -22.5 10.5 -44.5v-598c0 -22 -3.5 -36.833 -10.5 -44.5s-20.5 -11.5 -40.5 -11.5h-21c-20 0 -33.5 3.83301 -40.5 11.5s-10.5 22.5 -10.5 44.5zM134 57v586
c0 19.333 -2 32 -6 38s-14 9 -30 9h-17c-16 0 -26 -3 -30 -9s-6 -18.667 -6 -38v-586c0 -19.333 2 -32 6 -38s14 -9 30 -9h17c16 0 26 3 30 9s6 18.667 6 38zM75 716l31 71h21l-41 -71h-11z" />
    <glyph glyph-name="Ocircumflex" unicode="&#xd4;" horiz-adv-x="179" 
d="M28 51v598c0 22 3.5 36.833 10.5 44.5s20.5 11.5 40.5 11.5h21c20 0 33.5 -3.83301 40.5 -11.5s10.5 -22.5 10.5 -44.5v-598c0 -22 -3.5 -36.833 -10.5 -44.5s-20.5 -11.5 -40.5 -11.5h-21c-20 0 -33.5 3.83301 -40.5 11.5s-10.5 22.5 -10.5 44.5zM134 57v586
c0 19.333 -2 32 -6 38s-14 9 -30 9h-17c-16 0 -26 -3 -30 -9s-6 -18.667 -6 -38v-586c0 -19.333 2 -32 6 -38s14 -9 30 -9h17c16 0 26 3 30 9s6 18.667 6 38zM95 787l35 -71h-11l-30 49l-30 -49h-11l35 71h12z" />
    <glyph glyph-name="Otilde" unicode="&#xd5;" horiz-adv-x="179" 
d="M28 51v598c0 22 3.5 36.833 10.5 44.5s20.5 11.5 40.5 11.5h21c20 0 33.5 -3.83301 40.5 -11.5s10.5 -22.5 10.5 -44.5v-598c0 -22 -3.5 -36.833 -10.5 -44.5s-20.5 -11.5 -40.5 -11.5h-21c-20 0 -33.5 3.83301 -40.5 11.5s-10.5 22.5 -10.5 44.5zM134 57v586
c0 19.333 -2 32 -6 38s-14 9 -30 9h-17c-16 0 -26 -3 -30 -9s-6 -18.667 -6 -38v-586c0 -19.333 2 -32 6 -38s14 -9 30 -9h17c16 0 26 3 30 9s6 18.667 6 38zM127 762h10.001c0 -12.667 -2 -21.334 -6 -26.001s-10.667 -7 -20 -7c-8 0 -16.833 3.16699 -26.5 9.5
s-16.167 9.5 -19.5 9.5c-8.66699 0 -13 -6.33301 -13 -19h-11c0 12.667 2.16699 21.334 6.5 26.001s11.166 7 20.499 7c7.33301 0 16 -3.16699 26 -9.5s16.667 -9.5 20 -9.5c8.66699 0 13 6.33301 13 19z" />
    <glyph glyph-name="Odieresis" unicode="&#xd6;" horiz-adv-x="179" 
d="M28 51v598c0 22 3.5 36.833 10.5 44.5s20.5 11.5 40.5 11.5h21c20 0 33.5 -3.83301 40.5 -11.5s10.5 -22.5 10.5 -44.5v-598c0 -22 -3.5 -36.833 -10.5 -44.5s-20.5 -11.5 -40.5 -11.5h-21c-20 0 -33.5 3.83301 -40.5 11.5s-10.5 22.5 -10.5 44.5zM134 57v586
c0 19.333 -2 32 -6 38s-14 9 -30 9h-17c-16 0 -26 -3 -30 -9s-6 -18.667 -6 -38v-586c0 -19.333 2 -32 6 -38s14 -9 30 -9h17c16 0 26 3 30 9s6 18.667 6 38zM124 738h-18v25h18v-25zM73 738h-18v25h18v-25z" />
    <glyph glyph-name="multiply" unicode="&#xd7;" 
d="M73 350l-43 46l10 11l43 -46l43 46l10 -11l-43 -46l43 -45l-10 -10l-43 45l-43 -45l-10 10z" />
    <glyph glyph-name="Oslash" unicode="&#xd8;" horiz-adv-x="179" 
d="M28 51l-0.000976562 598c0 22 3.5 36.833 10.5 44.5s20.5 11.5 40.5 11.5h21c14.667 0 25.334 -2 32.001 -6l5 31h14l-7 -43c4.66699 -7.33301 7 -20 7 -38v-598c0 -22 -3.5 -36.833 -10.5 -44.5s-20.5 -11.5 -40.5 -11.5h-21c-13.333 0 -24.333 1.66699 -33 5l-4 -30
h-14l6 42c-4 9.33301 -6 22.333 -6 39zM44.999 643l-0.000976562 -556l84 592c-3.33301 7.33301 -13.666 11 -30.999 11h-17c-16 0 -26 -3 -30 -9s-6 -18.667 -6 -38zM133.998 57l-0.000976562 556l-85 -592c4.66699 -7.33301 15.334 -11 32.001 -11h17c16 0 26 3 30 9
s6 18.667 6 38z" />
    <glyph glyph-name="Ugrave" unicode="&#xd9;" horiz-adv-x="180" 
d="M46 700v-643c0 -19.333 2 -32 6 -38s14 -9 30 -9h17c16 0 26 3 30 9s6 18.667 6 38v643h16v-649c0 -22 -3.5 -36.833 -10.5 -44.5s-20.5 -11.5 -40.5 -11.5h-20c-20 0 -33.5 3.83301 -40.5 11.5s-10.5 22.5 -10.5 44.5v649h17zM75 787l31 -71h-11l-41 71h21z" />
    <glyph glyph-name="Uacute" unicode="&#xda;" horiz-adv-x="180" 
d="M46 700v-643c0 -19.333 2 -32 6 -38s14 -9 30 -9h17c16 0 26 3 30 9s6 18.667 6 38v643h16v-649c0 -22 -3.5 -36.833 -10.5 -44.5s-20.5 -11.5 -40.5 -11.5h-20c-20 0 -33.5 3.83301 -40.5 11.5s-10.5 22.5 -10.5 44.5v649h17zM75 716l31 71h21l-41 -71h-11z" />
    <glyph glyph-name="Ucircumflex" unicode="&#xdb;" horiz-adv-x="180" 
d="M46 700v-643c0 -19.333 2 -32 6 -38s14 -9 30 -9h17c16 0 26 3 30 9s6 18.667 6 38v643h16v-649c0 -22 -3.5 -36.833 -10.5 -44.5s-20.5 -11.5 -40.5 -11.5h-20c-20 0 -33.5 3.83301 -40.5 11.5s-10.5 22.5 -10.5 44.5v649h17zM96 787l35 -71h-11l-30 49l-30 -49h-11
l35 71h12z" />
    <glyph glyph-name="Udieresis" unicode="&#xdc;" horiz-adv-x="180" 
d="M46 700v-643c0 -19.333 2 -32 6 -38s14 -9 30 -9h17c16 0 26 3 30 9s6 18.667 6 38v643h16v-649c0 -22 -3.5 -36.833 -10.5 -44.5s-20.5 -11.5 -40.5 -11.5h-20c-20 0 -33.5 3.83301 -40.5 11.5s-10.5 22.5 -10.5 44.5v649h17zM124 738h-18v25h18v-25zM73 738h-18v25h18
v-25z" />
    <glyph glyph-name="Yacute" unicode="&#xdd;" horiz-adv-x="151" 
d="M85 0h-17v267l-60 433h17l30 -213c10.667 -75.333 18 -139 22 -191c3.33301 41.333 11 105 23 191l29 213h15l-59 -433v-267zM63 716l31 71h21l-41 -71h-11z" />
    <glyph glyph-name="Thorn" unicode="&#xde;" horiz-adv-x="161" 
d="M30 0v700h17v-46h50c20 0 33.5 -4 40.5 -12s10.5 -22.667 10.5 -44v-281c0 -21.333 -3.5 -36 -10.5 -44s-20.5 -12 -40.5 -12h-50v-261h-17zM47 276h48c16 0 26 3 30 9s6 18.667 6 38v269c0 18.667 -2 31.167 -6 37.5s-14 9.5 -30 9.5h-48v-363z" />
    <glyph glyph-name="germandbls" unicode="&#xdf;" horiz-adv-x="165" 
d="M123 504l0.000976562 146.999c0 15.333 -1.83301 25.833 -5.5 31.5s-11.834 8.5 -24.501 8.5h-18c-12.667 0 -21 -2.16699 -25 -6.5s-6 -14.833 -6 -31.5v-653h-16v655c0 19.333 3 32.5 9 39.5s17.667 10.5 35 10.5h25c16 0 27 -3.5 33 -10.5s9 -19.5 9 -37.5v-153
c0 -28 -8.33301 -43.667 -25 -47c16.667 -3.33301 25 -18.666 25 -45.999v-361c0 -19.333 -3 -32.5 -9 -39.5s-17.667 -10.5 -35 -10.5h-23v14h20c12.667 0 21 2.16699 25 6.5s6 14.833 6 31.5v358c0 16 -1.83301 26.667 -5.5 32s-11.834 8 -24.501 8h-21v14h21
c12.667 0 20.834 2.83301 24.501 8.5s5.5 16.167 5.5 31.5z" />
    <glyph glyph-name="agrave" unicode="&#xe0;" horiz-adv-x="159" 
d="M23 224c0 25.333 3.00098 44.333 9.00098 57s18.333 27 37 43c21.333 18.667 34.5 32.667 39.5 42s7.5 24.333 7.5 45v125c0 17.333 -1.66699 28.833 -5 34.5s-12 8.5 -26 8.5h-14c-14 0 -22.667 -2.83301 -26 -8.5s-5 -17.167 -5 -34.5v-147h-15v154
c0 19.333 3 32.5 9 39.5s17.667 10.5 35 10.5h18c18 0 30 -3.5 36 -10.5s9 -20.167 9 -39.5v-492c0 -22 1 -39 3 -51h-14c-2 5.33301 -3 14 -3 26c-6.66699 -20.667 -21.334 -31 -44.001 -31h-8c-16.667 0 -28 3.5 -34 10.5s-9 19.5 -9 37.5v181zM116.001 62v294
c-4.66699 -10.667 -16.667 -24 -36 -40c-18 -15.333 -29.333 -28.5 -34 -39.5s-7 -28.167 -7 -51.5v-176c0 -16 1.66699 -26.667 5 -32s11.333 -8 24 -8h11c24.667 0 37 17.667 37 53zM66.001 683l31 -71h-11l-41 71h21z" />
    <glyph glyph-name="aacute" unicode="&#xe1;" horiz-adv-x="159" 
d="M23 224c0 25.333 3.00098 44.333 9.00098 57s18.333 27 37 43c21.333 18.667 34.5 32.667 39.5 42s7.5 24.333 7.5 45v125c0 17.333 -1.66699 28.833 -5 34.5s-12 8.5 -26 8.5h-14c-14 0 -22.667 -2.83301 -26 -8.5s-5 -17.167 -5 -34.5v-147h-15v154
c0 19.333 3 32.5 9 39.5s17.667 10.5 35 10.5h18c18 0 30 -3.5 36 -10.5s9 -20.167 9 -39.5v-492c0 -22 1 -39 3 -51h-14c-2 5.33301 -3 14 -3 26c-6.66699 -20.667 -21.334 -31 -44.001 -31h-8c-16.667 0 -28 3.5 -34 10.5s-9 19.5 -9 37.5v181zM116.001 62v294
c-4.66699 -10.667 -16.667 -24 -36 -40c-18 -15.333 -29.333 -28.5 -34 -39.5s-7 -28.167 -7 -51.5v-176c0 -16 1.66699 -26.667 5 -32s11.333 -8 24 -8h11c24.667 0 37 17.667 37 53zM66.001 612l31 71h21l-41 -71h-11z" />
    <glyph glyph-name="acircumflex" unicode="&#xe2;" horiz-adv-x="159" 
d="M23 224c0 25.333 3.00098 44.333 9.00098 57s18.333 27 37 43c21.333 18.667 34.5 32.667 39.5 42s7.5 24.333 7.5 45v125c0 17.333 -1.66699 28.833 -5 34.5s-12 8.5 -26 8.5h-14c-14 0 -22.667 -2.83301 -26 -8.5s-5 -17.167 -5 -34.5v-147h-15v154
c0 19.333 3 32.5 9 39.5s17.667 10.5 35 10.5h18c18 0 30 -3.5 36 -10.5s9 -20.167 9 -39.5v-492c0 -22 1 -39 3 -51h-14c-2 5.33301 -3 14 -3 26c-6.66699 -20.667 -21.334 -31 -44.001 -31h-8c-16.667 0 -28 3.5 -34 10.5s-9 19.5 -9 37.5v181zM116.001 62v294
c-4.66699 -10.667 -16.667 -24 -36 -40c-18 -15.333 -29.333 -28.5 -34 -39.5s-7 -28.167 -7 -51.5v-176c0 -16 1.66699 -26.667 5 -32s11.333 -8 24 -8h11c24.667 0 37 17.667 37 53zM86.001 683l35 -71h-11l-30 49l-30 -49h-11l35 71h12z" />
    <glyph glyph-name="atilde" unicode="&#xe3;" horiz-adv-x="159" 
d="M23 224c0 25.333 3.00098 44.333 9.00098 57s18.333 27 37 43c21.333 18.667 34.5 32.667 39.5 42s7.5 24.333 7.5 45v125c0 17.333 -1.66699 28.833 -5 34.5s-12 8.5 -26 8.5h-14c-14 0 -22.667 -2.83301 -26 -8.5s-5 -17.167 -5 -34.5v-147h-15v154
c0 19.333 3 32.5 9 39.5s17.667 10.5 35 10.5h18c18 0 30 -3.5 36 -10.5s9 -20.167 9 -39.5v-492c0 -22 1 -39 3 -51h-14c-2 5.33301 -3 14 -3 26c-6.66699 -20.667 -21.334 -31 -44.001 -31h-8c-16.667 0 -28 3.5 -34 10.5s-9 19.5 -9 37.5v181zM116.001 62v294
c-4.66699 -10.667 -16.667 -24 -36 -40c-18 -15.333 -29.333 -28.5 -34 -39.5s-7 -28.167 -7 -51.5v-176c0 -16 1.66699 -26.667 5 -32s11.333 -8 24 -8h11c24.667 0 37 17.667 37 53zM118.001 658h10.001c0 -12.667 -2 -21.334 -6 -26.001s-10.667 -7 -20 -7
c-8 0 -16.833 3.16699 -26.5 9.5s-16.167 9.5 -19.5 9.5c-8.66699 0 -13 -6.33301 -13 -19h-11c0 12.667 2.16699 21.334 6.5 26.001s11.166 7 20.499 7c7.33301 0 16 -3.16699 26 -9.5s16.667 -9.5 20 -9.5c8.66699 0 13 6.33301 13 19z" />
    <glyph glyph-name="adieresis" unicode="&#xe4;" horiz-adv-x="159" 
d="M23 224c0 25.333 3.00098 44.333 9.00098 57s18.333 27 37 43c21.333 18.667 34.5 32.667 39.5 42s7.5 24.333 7.5 45v125c0 17.333 -1.66699 28.833 -5 34.5s-12 8.5 -26 8.5h-14c-14 0 -22.667 -2.83301 -26 -8.5s-5 -17.167 -5 -34.5v-147h-15v154
c0 19.333 3 32.5 9 39.5s17.667 10.5 35 10.5h18c18 0 30 -3.5 36 -10.5s9 -20.167 9 -39.5v-492c0 -22 1 -39 3 -51h-14c-2 5.33301 -3 14 -3 26c-6.66699 -20.667 -21.334 -31 -44.001 -31h-8c-16.667 0 -28 3.5 -34 10.5s-9 19.5 -9 37.5v181zM116.001 62v294
c-4.66699 -10.667 -16.667 -24 -36 -40c-18 -15.333 -29.333 -28.5 -34 -39.5s-7 -28.167 -7 -51.5v-176c0 -16 1.66699 -26.667 5 -32s11.333 -8 24 -8h11c24.667 0 37 17.667 37 53zM115.001 634h-18v25h18v-25zM64.001 634h-18v25h18v-25z" />
    <glyph glyph-name="aring" unicode="&#xe5;" horiz-adv-x="159" 
d="M23 224c0 25.333 3.00098 44.333 9.00098 57s18.333 27 37 43c21.333 18.667 34.5 32.667 39.5 42s7.5 24.333 7.5 45v125c0 17.333 -1.66699 28.833 -5 34.5s-12 8.5 -26 8.5h-14c-14 0 -22.667 -2.83301 -26 -8.5s-5 -17.167 -5 -34.5v-147h-15v154
c0 19.333 3 32.5 9 39.5s17.667 10.5 35 10.5h18c18 0 30 -3.5 36 -10.5s9 -20.167 9 -39.5v-492c0 -22 1 -39 3 -51h-14c-2 5.33301 -3 14 -3 26c-6.66699 -20.667 -21.334 -31 -44.001 -31h-8c-16.667 0 -28 3.5 -34 10.5s-9 19.5 -9 37.5v181zM116.001 62v294
c-4.66699 -10.667 -16.667 -24 -36 -40c-18 -15.333 -29.333 -28.5 -34 -39.5s-7 -28.167 -7 -51.5v-176c0 -16 1.66699 -26.667 5 -32s11.333 -8 24 -8h11c24.667 0 37 17.667 37 53zM97.001 647c0 12 -5.66699 18 -17 18s-17 -6 -17 -18s5.66699 -18 17 -18s17 6 17 18z
M51.001 647c0 8 2.83301 15 8.5 21s12.5 9 20.5 9s14.833 -3 20.5 -9s8.5 -13 8.5 -21s-2.83301 -15 -8.5 -21s-12.5 -9 -20.5 -9s-14.833 3 -20.5 9s-8.5 13 -8.5 21z" />
    <glyph glyph-name="ae" unicode="&#xe6;" horiz-adv-x="251" 
d="M23 224c0 25.333 3.00391 44.333 9.00391 57s18.333 27 37 43c21.333 18.667 34.5 32.667 39.5 42s7.5 24.333 7.5 45v125c0 17.333 -1.66699 28.833 -5 34.5s-12 8.5 -26 8.5h-14c-14 0 -22.667 -2.83301 -26 -8.5s-5 -17.167 -5 -34.5v-147h-15v154
c0 19.333 3.16699 32.5 9.5 39.5s18.166 10.5 35.499 10.5h11c25.333 0 39.666 -8.66699 42.999 -26c3.33301 17.333 17.666 26 42.999 26h13c18 0 30.167 -3.5 36.5 -10.5s9.5 -20.167 9.5 -39.5v-251h-94v-240c0 -17.333 1.66699 -28.833 5 -34.5s12 -8.5 26 -8.5h17
c14 0 22.667 2.83301 26 8.5s5 17.167 5 34.5v146h15v-153c0 -19.333 -3 -32.5 -9 -39.5s-18 -10.5 -36 -10.5h-20c-14.667 0 -25.334 2.16699 -32.001 6.5s-10.667 11.833 -12 22.5c-6.66699 -19.333 -21 -29 -43 -29h-8c-16.667 0 -28 3.5 -34 10.5s-9 19.5 -9 37.5v181z
M68.0039 9h11c24.667 0 37 17.667 37 53v294c-4.66699 -10.667 -16.667 -24 -36 -40c-18.667 -16 -30.167 -29.333 -34.5 -40s-6.5 -27.667 -6.5 -51v-176c0 -16 1.66699 -26.667 5 -32s11.333 -8 24 -8zM211.004 306v230c0 17.333 -1.66699 28.833 -5 34.5s-12 8.5 -26 8.5
h-17c-14 0 -22.667 -2.83301 -26 -8.5s-5 -17.167 -5 -34.5v-230h79z" />
    <glyph glyph-name="ccedilla" unicode="&#xe7;" horiz-adv-x="161" 
d="M96 -64c0 10 -1.66797 17.001 -5.00098 21.001s-9.66602 5.33301 -18.999 4v34h-1c-18 0 -30 3.5 -36 10.5s-9 20.167 -9 39.5v498c0 19.333 3 32.5 9 39.5s18 10.5 36 10.5h20c18 0 30 -3.5 36 -10.5s9 -20.167 9 -39.5v-184h-15v177c0 17.333 -1.66699 28.833 -5 34.5
s-12 8.5 -26 8.5h-17c-14 0 -22.667 -2.83301 -26 -8.5s-5 -17.167 -5 -34.5v-484c0 -17.333 1.66699 -28.833 5 -34.5s12 -8.5 26 -8.5h17c14 0 22.667 2.83301 26 8.5s5 17.167 5 34.5v187h15v-194c0 -19.333 -3 -32.5 -9 -39.5s-18 -10.5 -36 -10.5h-12v-22
c20.667 0 31 -11.667 31 -35c0 -24 -10.333 -36 -31 -36c-12 0 -20.167 2.83301 -24.5 8.5s-6.5 15.167 -6.5 28.5h15c-1.33301 -10.667 -1 -17.834 1 -21.501s7 -5.5 15 -5.5c11.333 0 17 8 17 24z" />
    <glyph glyph-name="egrave" unicode="&#xe8;" horiz-adv-x="161" 
d="M121 52v146h15v-153c0 -19.333 -3 -32.5 -9 -39.5s-18 -10.5 -36 -10.5h-20c-18 0 -30 3.5 -36 10.5s-9 20.167 -9 39.5v498c0 19.333 3 32.5 9 39.5s18 10.5 36 10.5h20c18 0 30 -3.5 36 -10.5s9 -20.167 9 -39.5v-251h-94v-240c0 -17.333 1.66699 -28.833 5 -34.5
s12 -8.5 26 -8.5h17c14 0 22.667 2.83301 26 8.5s5 17.167 5 34.5zM42 536v-230h79v230c0 17.333 -1.66699 28.833 -5 34.5s-12 8.5 -26 8.5h-17c-14 0 -22.667 -2.83301 -26 -8.5s-5 -17.167 -5 -34.5zM68 683l31 -71h-11l-41 71h21z" />
    <glyph glyph-name="eacute" unicode="&#xe9;" horiz-adv-x="161" 
d="M121 52v146h15v-153c0 -19.333 -3 -32.5 -9 -39.5s-18 -10.5 -36 -10.5h-20c-18 0 -30 3.5 -36 10.5s-9 20.167 -9 39.5v498c0 19.333 3 32.5 9 39.5s18 10.5 36 10.5h20c18 0 30 -3.5 36 -10.5s9 -20.167 9 -39.5v-251h-94v-240c0 -17.333 1.66699 -28.833 5 -34.5
s12 -8.5 26 -8.5h17c14 0 22.667 2.83301 26 8.5s5 17.167 5 34.5zM42 536v-230h79v230c0 17.333 -1.66699 28.833 -5 34.5s-12 8.5 -26 8.5h-17c-14 0 -22.667 -2.83301 -26 -8.5s-5 -17.167 -5 -34.5zM68 612l31 71h21l-41 -71h-11z" />
    <glyph glyph-name="ecircumflex" unicode="&#xea;" horiz-adv-x="161" 
d="M121 52v146h15v-153c0 -19.333 -3 -32.5 -9 -39.5s-18 -10.5 -36 -10.5h-20c-18 0 -30 3.5 -36 10.5s-9 20.167 -9 39.5v498c0 19.333 3 32.5 9 39.5s18 10.5 36 10.5h20c18 0 30 -3.5 36 -10.5s9 -20.167 9 -39.5v-251h-94v-240c0 -17.333 1.66699 -28.833 5 -34.5
s12 -8.5 26 -8.5h17c14 0 22.667 2.83301 26 8.5s5 17.167 5 34.5zM42 536v-230h79v230c0 17.333 -1.66699 28.833 -5 34.5s-12 8.5 -26 8.5h-17c-14 0 -22.667 -2.83301 -26 -8.5s-5 -17.167 -5 -34.5zM88 683l35 -71h-11l-30 49l-30 -49h-11l35 71h12z" />
    <glyph glyph-name="edieresis" unicode="&#xeb;" horiz-adv-x="161" 
d="M121 52v146h15v-153c0 -19.333 -3 -32.5 -9 -39.5s-18 -10.5 -36 -10.5h-20c-18 0 -30 3.5 -36 10.5s-9 20.167 -9 39.5v498c0 19.333 3 32.5 9 39.5s18 10.5 36 10.5h20c18 0 30 -3.5 36 -10.5s9 -20.167 9 -39.5v-251h-94v-240c0 -17.333 1.66699 -28.833 5 -34.5
s12 -8.5 26 -8.5h17c14 0 22.667 2.83301 26 8.5s5 17.167 5 34.5zM42 536v-230h79v230c0 17.333 -1.66699 28.833 -5 34.5s-12 8.5 -26 8.5h-17c-14 0 -22.667 -2.83301 -26 -8.5s-5 -17.167 -5 -34.5zM117 634h-18v25h18v-25zM66 634h-18v25h18v-25z" />
    <glyph glyph-name="igrave" unicode="&#xec;" horiz-adv-x="72" 
d="M22 683l31 -71h-11l-41 71h21zM44 588v-588h-16v588h16z" />
    <glyph glyph-name="iacute" unicode="&#xed;" horiz-adv-x="72" 
d="M44 588v-588h-16v588h16zM22 612l31 71h21l-41 -71h-11z" />
    <glyph glyph-name="icircumflex" unicode="&#xee;" horiz-adv-x="72" 
d="M42 683l35 -71h-11l-30 49l-30 -49h-11l35 71h12zM44 588v-588h-16v588h16z" />
    <glyph glyph-name="idieresis" unicode="&#xef;" horiz-adv-x="72" 
d="M71 634h-18v25h18v-25zM20 634h-18v25h18v-25zM44 588v-588h-16v588h16z" />
    <glyph glyph-name="eth" unicode="&#xf0;" horiz-adv-x="170" 
d="M137 647l-0.000976562 -602.001c0 -19.333 -3 -32.5 -9 -39.5s-18 -10.5 -36 -10.5h-21c-18 0 -30 3.5 -36 10.5s-9 20.167 -9 39.5v500c0 18 3 30.5 9 37.5s17.333 10.5 34 10.5h10c20.667 0 34.667 -8.66699 42 -26v77c0 12 -1 21.333 -3 28l-37 -43l-8 7l40 44
c-5.33301 4 -13 6 -23 6h-17v14h17c14.667 0 25.334 -3 32.001 -9l8 9h13l-14 -16c5.33301 -9.33301 8 -21.666 8 -36.999zM120.999 51.999v474c0 35.333 -12.333 53 -37 53h-13c-12.667 0 -20.667 -2.66699 -24 -8s-5 -16 -5 -32v-487c0 -17.333 1.66699 -28.833 5 -34.5
s12 -8.5 26 -8.5h17c14 0 22.667 2.83301 26 8.5s5 17.167 5 34.5z" />
    <glyph glyph-name="ntilde" unicode="&#xf1;" 
d="M139 0h-16.001v539c0 16 -1.66699 26.667 -5 32s-11.333 8 -24 8h-13c-24.667 0 -37 -17.667 -37 -53v-526h-16v588h14v-27c6.66699 21.333 21.334 32 44.001 32h10c16.667 0 28 -3.5 34 -10.5s9 -19.5 9 -37.5v-545zM121.999 658h10.001
c0 -12.667 -2 -21.334 -6 -26.001s-10.667 -7 -20 -7c-8 0 -16.833 3.16699 -26.5 9.5s-16.167 9.5 -19.5 9.5c-8.66699 0 -13 -6.33301 -13 -19h-11c0 12.667 2.16699 21.334 6.5 26.001s11.166 7 20.499 7c7.33301 0 16 -3.16699 26 -9.5s16.667 -9.5 20 -9.5
c8.66699 0 13 6.33301 13 19z" />
    <glyph glyph-name="ograve" unicode="&#xf2;" horiz-adv-x="163" 
d="M137 543v-498c0 -19.333 -3 -32.5 -9 -39.5s-18 -10.5 -36 -10.5h-21c-18 0 -30 3.5 -36 10.5s-9 20.167 -9 39.5v498c0 19.333 3 32.5 9 39.5s18 10.5 36 10.5h21c18 0 30 -3.5 36 -10.5s9 -20.167 9 -39.5zM42 536v-484c0 -17.333 1.66699 -28.833 5 -34.5
s12 -8.5 26 -8.5h17c14 0 22.667 2.83301 26 8.5s5 17.167 5 34.5v484c0 17.333 -1.66699 28.833 -5 34.5s-12 8.5 -26 8.5h-17c-14 0 -22.667 -2.83301 -26 -8.5s-5 -17.167 -5 -34.5zM67 683l31 -71h-11l-41 71h21z" />
    <glyph glyph-name="oacute" unicode="&#xf3;" horiz-adv-x="163" 
d="M137 543v-498c0 -19.333 -3 -32.5 -9 -39.5s-18 -10.5 -36 -10.5h-21c-18 0 -30 3.5 -36 10.5s-9 20.167 -9 39.5v498c0 19.333 3 32.5 9 39.5s18 10.5 36 10.5h21c18 0 30 -3.5 36 -10.5s9 -20.167 9 -39.5zM42 536v-484c0 -17.333 1.66699 -28.833 5 -34.5
s12 -8.5 26 -8.5h17c14 0 22.667 2.83301 26 8.5s5 17.167 5 34.5v484c0 17.333 -1.66699 28.833 -5 34.5s-12 8.5 -26 8.5h-17c-14 0 -22.667 -2.83301 -26 -8.5s-5 -17.167 -5 -34.5zM67 612l31 71h21l-41 -71h-11z" />
    <glyph glyph-name="ocircumflex" unicode="&#xf4;" horiz-adv-x="163" 
d="M137 543v-498c0 -19.333 -3 -32.5 -9 -39.5s-18 -10.5 -36 -10.5h-21c-18 0 -30 3.5 -36 10.5s-9 20.167 -9 39.5v498c0 19.333 3 32.5 9 39.5s18 10.5 36 10.5h21c18 0 30 -3.5 36 -10.5s9 -20.167 9 -39.5zM42 536v-484c0 -17.333 1.66699 -28.833 5 -34.5
s12 -8.5 26 -8.5h17c14 0 22.667 2.83301 26 8.5s5 17.167 5 34.5v484c0 17.333 -1.66699 28.833 -5 34.5s-12 8.5 -26 8.5h-17c-14 0 -22.667 -2.83301 -26 -8.5s-5 -17.167 -5 -34.5zM87 683l35 -71h-11l-30 49l-30 -49h-11l35 71h12z" />
    <glyph glyph-name="otilde" unicode="&#xf5;" horiz-adv-x="163" 
d="M137 543v-498c0 -19.333 -3 -32.5 -9 -39.5s-18 -10.5 -36 -10.5h-21c-18 0 -30 3.5 -36 10.5s-9 20.167 -9 39.5v498c0 19.333 3 32.5 9 39.5s18 10.5 36 10.5h21c18 0 30 -3.5 36 -10.5s9 -20.167 9 -39.5zM42 536v-484c0 -17.333 1.66699 -28.833 5 -34.5
s12 -8.5 26 -8.5h17c14 0 22.667 2.83301 26 8.5s5 17.167 5 34.5v484c0 17.333 -1.66699 28.833 -5 34.5s-12 8.5 -26 8.5h-17c-14 0 -22.667 -2.83301 -26 -8.5s-5 -17.167 -5 -34.5zM119 658h10.001c0 -12.667 -2 -21.334 -6 -26.001s-10.667 -7 -20 -7
c-8 0 -16.833 3.16699 -26.5 9.5s-16.167 9.5 -19.5 9.5c-8.66699 0 -13 -6.33301 -13 -19h-11c0 12.667 2.16699 21.334 6.5 26.001s11.166 7 20.499 7c7.33301 0 16 -3.16699 26 -9.5s16.667 -9.5 20 -9.5c8.66699 0 13 6.33301 13 19z" />
    <glyph glyph-name="odieresis" unicode="&#xf6;" horiz-adv-x="163" 
d="M137 543v-498c0 -19.333 -3 -32.5 -9 -39.5s-18 -10.5 -36 -10.5h-21c-18 0 -30 3.5 -36 10.5s-9 20.167 -9 39.5v498c0 19.333 3 32.5 9 39.5s18 10.5 36 10.5h21c18 0 30 -3.5 36 -10.5s9 -20.167 9 -39.5zM42 536v-484c0 -17.333 1.66699 -28.833 5 -34.5
s12 -8.5 26 -8.5h17c14 0 22.667 2.83301 26 8.5s5 17.167 5 34.5v484c0 17.333 -1.66699 28.833 -5 34.5s-12 8.5 -26 8.5h-17c-14 0 -22.667 -2.83301 -26 -8.5s-5 -17.167 -5 -34.5zM116 634h-18v25h18v-25zM65 634h-18v25h18v-25z" />
    <glyph glyph-name="divide" unicode="&#xf7;" 
d="M140 357v-15h-114v15h114zM73 290v21h19v-21h-19zM73 390v20h19v-20h-19z" />
    <glyph glyph-name="oslash" unicode="&#xf8;" horiz-adv-x="163" 
d="M137 543v-498c0 -19.333 -3 -32.5 -9 -39.5s-18 -10.5 -36 -10.5h-21c-12 0 -21 1.33301 -27 4l-4 -29h-14l6 39c-4 6.66699 -6 18.667 -6 36v498c0 19.333 3 32.5 9 39.5s18 10.5 36 10.5h21c11.333 0 20 -1.33301 26 -4l5 34h14l-7 -44
c4.66699 -7.33301 7 -19.333 7 -36zM90 9c14 0 22.666 2.83301 25.999 8.5s5 17.167 5 34.5v465l-74 -500c4.66699 -5.33301 13.334 -8 26.001 -8h17zM41.999 536v-460l73 495c-4.66699 5.33301 -13 8 -25 8h-17c-14 0 -22.667 -2.83301 -26 -8.5s-5 -17.167 -5 -34.5z" />
    <glyph glyph-name="ugrave" unicode="&#xf9;" 
d="M138 51c0 -22 1.00098 -39 3.00098 -51h-14c-2 5.33301 -3 14 -3 26c-6.66699 -20.667 -21.334 -31 -44.001 -31h-10c-16.667 0 -28 3.5 -34 10.5s-9 19.5 -9 37.5v545h16v-539c0 -16 1.66699 -26.667 5 -32s11.333 -8 24 -8h13c24.667 0 37 17.667 37 53v526h16v-537z
M68.001 683l31 -71h-11l-41 71h21z" />
    <glyph glyph-name="uacute" unicode="&#xfa;" 
d="M138 51c0 -22 1.00098 -39 3.00098 -51h-14c-2 5.33301 -3 14 -3 26c-6.66699 -20.667 -21.334 -31 -44.001 -31h-10c-16.667 0 -28 3.5 -34 10.5s-9 19.5 -9 37.5v545h16v-539c0 -16 1.66699 -26.667 5 -32s11.333 -8 24 -8h13c24.667 0 37 17.667 37 53v526h16v-537z
M68.001 612l31 71h21l-41 -71h-11z" />
    <glyph glyph-name="ucircumflex" unicode="&#xfb;" 
d="M138 51c0 -22 1.00098 -39 3.00098 -51h-14c-2 5.33301 -3 14 -3 26c-6.66699 -20.667 -21.334 -31 -44.001 -31h-10c-16.667 0 -28 3.5 -34 10.5s-9 19.5 -9 37.5v545h16v-539c0 -16 1.66699 -26.667 5 -32s11.333 -8 24 -8h13c24.667 0 37 17.667 37 53v526h16v-537z
M89.001 683l35 -71h-11l-30 49l-30 -49h-11l35 71h12z" />
    <glyph glyph-name="udieresis" unicode="&#xfc;" 
d="M138 51c0 -22 1.00098 -39 3.00098 -51h-14c-2 5.33301 -3 14 -3 26c-6.66699 -20.667 -21.334 -31 -44.001 -31h-10c-16.667 0 -28 3.5 -34 10.5s-9 19.5 -9 37.5v545h16v-539c0 -16 1.66699 -26.667 5 -32s11.333 -8 24 -8h13c24.667 0 37 17.667 37 53v526h16v-537z
M117.001 634h-18v25h18v-25zM66.001 634h-18v25h18v-25z" />
    <glyph glyph-name="yacute" unicode="&#xfd;" horiz-adv-x="144" 
d="M77 -45c-2.66699 -26.667 -15.667 -40 -39 -40h-20v14h19c14 0 22 9 24 27l2 26l-56 606h16l31 -323c10.667 -109.333 17 -188.666 19 -237.999c2 49.333 8.33301 128.666 19 237.999l31 323h14zM58 612l31 71h21l-41 -71h-11z" />
    <glyph glyph-name="thorn" unicode="&#xfe;" horiz-adv-x="165" 
d="M123 539c0 16 -1.66699 26.667 -5 32s-11.333 8 -24 8h-13c-24.667 0 -37 -17.667 -37 -53v-464c0 -35.333 12.333 -53 37 -53h13c12.667 0 20.667 2.66699 24 8s5 16 5 32v490zM44 -93h-16v793h16v-133c6.66699 17.333 20.667 26 42 26h10c16.667 0 28 -3.5 34 -10.5
s9 -19.5 9 -37.5v-502c0 -18 -3 -30.5 -9 -37.5s-17.333 -10.5 -34 -10.5h-10c-21.333 0 -35.333 8.66699 -42 26v-114z" />
    <glyph glyph-name="ydieresis" unicode="&#xff;" horiz-adv-x="144" 
d="M77 -45c-2.66699 -26.667 -15.667 -40 -39 -40h-20v14h19c14 0 22 9 24 27l2 26l-56 606h16l31 -323c10.667 -109.333 17 -188.666 19 -237.999c2 49.333 8.33301 128.666 19 237.999l31 323h14zM107 634h-18v25h18v-25zM56 634h-18v25h18v-25z" />
    <glyph glyph-name="Amacron" unicode="&#x100;" horiz-adv-x="168" 
d="M135 0l-10 120h-86l-9 -120h-15l57 700h22l58 -700h-17zM62 400l-22 -266.001h84l-22 266c-11.333 136.667 -18 227.334 -20 272.001c-2 -45.333 -8.66699 -136 -20 -272zM125 737.999h-83v14h83v-14z" />
    <glyph glyph-name="amacron" unicode="&#x101;" horiz-adv-x="159" 
d="M23 224c0 25.333 3.00098 44.333 9.00098 57s18.333 27 37 43c21.333 18.667 34.5 32.667 39.5 42s7.5 24.333 7.5 45v125c0 17.333 -1.66699 28.833 -5 34.5s-12 8.5 -26 8.5h-14c-14 0 -22.667 -2.83301 -26 -8.5s-5 -17.167 -5 -34.5v-147h-15v154
c0 19.333 3 32.5 9 39.5s17.667 10.5 35 10.5h18c18 0 30 -3.5 36 -10.5s9 -20.167 9 -39.5v-492c0 -22 1 -39 3 -51h-14c-2 5.33301 -3 14 -3 26c-6.66699 -20.667 -21.334 -31 -44.001 -31h-8c-16.667 0 -28 3.5 -34 10.5s-9 19.5 -9 37.5v181zM116.001 62v294
c-4.66699 -10.667 -16.667 -24 -36 -40c-18 -15.333 -29.333 -28.5 -34 -39.5s-7 -28.167 -7 -51.5v-176c0 -16 1.66699 -26.667 5 -32s11.333 -8 24 -8h11c24.667 0 37 17.667 37 53zM122.001 634h-83v14h83v-14z" />
    <glyph glyph-name="Abreve" unicode="&#x102;" horiz-adv-x="168" 
d="M135 0l-10 120h-86l-9 -120h-15l57 700h22l58 -700h-17zM62 400l-22 -266.001h84l-22 266c-11.333 136.667 -18 227.334 -20 272.001c-2 -45.333 -8.66699 -136 -20 -272zM84 739.999c11.333 0 19.5 2.66699 24.5 8s7.5 15 7.5 29h11c0 -18 -3 -31.333 -9 -40
s-17.333 -13 -34 -13s-28 4.33301 -34 13s-9 22 -9 40h11c0 -14 2.5 -23.667 7.5 -29s13.167 -8 24.5 -8z" />
    <glyph glyph-name="abreve" unicode="&#x103;" horiz-adv-x="159" 
d="M23 224c0 25.333 3.00098 44.333 9.00098 57s18.333 27 37 43c21.333 18.667 34.5 32.667 39.5 42s7.5 24.333 7.5 45v125c0 17.333 -1.66699 28.833 -5 34.5s-12 8.5 -26 8.5h-14c-14 0 -22.667 -2.83301 -26 -8.5s-5 -17.167 -5 -34.5v-147h-15v154
c0 19.333 3 32.5 9 39.5s17.667 10.5 35 10.5h18c18 0 30 -3.5 36 -10.5s9 -20.167 9 -39.5v-492c0 -22 1 -39 3 -51h-14c-2 5.33301 -3 14 -3 26c-6.66699 -20.667 -21.334 -31 -44.001 -31h-8c-16.667 0 -28 3.5 -34 10.5s-9 19.5 -9 37.5v181zM116.001 62v294
c-4.66699 -10.667 -16.667 -24 -36 -40c-18 -15.333 -29.333 -28.5 -34 -39.5s-7 -28.167 -7 -51.5v-176c0 -16 1.66699 -26.667 5 -32s11.333 -8 24 -8h11c24.667 0 37 17.667 37 53zM80.001 636c11.333 0 19.5 2.66699 24.5 8s7.5 15 7.5 29h11c0 -18 -3 -31.333 -9 -40
s-17.333 -13 -34 -13s-28 4.33301 -34 13s-9 22 -9 40h11c0 -14 2.5 -23.667 7.5 -29s13.167 -8 24.5 -8z" />
    <glyph glyph-name="Aogonek" unicode="&#x104;" horiz-adv-x="168" 
d="M152 -81l0.000976562 -12c-6.66699 -3.33301 -14.334 -5 -23.001 -5c-13.333 0 -22.666 2.83301 -27.999 8.5s-8 15.167 -8 28.5c0 21.333 13.667 43 41 65l-9 116h-86l-9 -120h-15l57 700h22l58 -700h-15c-18.667 -18 -28 -38.333 -28 -61c0 -16.667 7 -25 21 -25
c9.33301 0 16.666 1.66699 21.999 5zM62.001 400l-22 -266.001h84l-22 266c-11.333 136.667 -18 227.334 -20 272.001c-2 -45.333 -8.66699 -136 -20 -272z" />
    <glyph glyph-name="aogonek" unicode="&#x105;" horiz-adv-x="159" 
d="M135 -81l0.000976562 -12c-6.66699 -3.33301 -14.334 -5 -23.001 -5c-13.333 0 -22.666 2.83301 -27.999 8.5s-8 15.167 -8 28.5c0 24 14.667 45 44 63c-1.33301 3.33301 -2 11.333 -2 24c-6.66699 -20.667 -21.334 -31 -44.001 -31h-8c-16.667 0 -28 3.5 -34 10.5
s-9 19.5 -9 37.5v181c0 25.333 3 44.333 9 57s18.333 27 37 43c21.333 18.667 34.5 32.667 39.5 42s7.5 24.333 7.5 45v125c0 17.333 -1.66699 28.833 -5 34.5s-12 8.5 -26 8.5h-14c-14 0 -22.667 -2.83301 -26 -8.5s-5 -17.167 -5 -34.5v-147h-15v154
c0 19.333 3 32.5 9 39.5s17.667 10.5 35 10.5h18c18 0 30 -3.5 36 -10.5s9 -20.167 9 -39.5v-492c0 -22 1 -39 3 -51h-11c-21.333 -16.667 -32 -37 -32 -61c0 -16.667 7 -25 21 -25c10 0 17.333 1.66699 22 5zM116.001 62v294c-4.66699 -10.667 -16.667 -24 -36 -40
c-18.667 -16 -30.167 -29.333 -34.5 -40s-6.5 -27.667 -6.5 -51v-176c0 -16 1.66699 -26.667 5 -32s11.333 -8 24 -8h11c24.667 0 37 17.667 37 53z" />
    <glyph glyph-name="Cacute" unicode="&#x106;" horiz-adv-x="177" 
d="M45 643v-586c0 -19.333 2 -32 6 -38s14 -9 30 -9h17c16 0 26 3 30 9s6 18.667 6 38v245h16v-251c0 -22 -3.5 -36.833 -10.5 -44.5s-20.5 -11.5 -40.5 -11.5h-20c-20 0 -33.5 3.83301 -40.5 11.5s-10.5 22.5 -10.5 44.5v598c0 22 3.5 36.833 10.5 44.5
s20.5 11.5 40.5 11.5h20c20 0 33.5 -3.83301 40.5 -11.5s10.5 -22.5 10.5 -44.5v-221h-16v215c0 19.333 -2 32 -6 38s-14 9 -30 9h-17c-16 0 -26 -3 -30 -9s-6 -18.667 -6 -38zM74 716l31 71h21l-41 -71h-11z" />
    <glyph glyph-name="cacute" unicode="&#x107;" horiz-adv-x="161" 
d="M121 52v187h15v-194c0 -19.333 -3 -32.5 -9 -39.5s-18 -10.5 -36 -10.5h-20c-18 0 -30 3.5 -36 10.5s-9 20.167 -9 39.5v498c0 19.333 3 32.5 9 39.5s18 10.5 36 10.5h20c18 0 30 -3.5 36 -10.5s9 -20.167 9 -39.5v-184h-15v177c0 17.333 -1.66699 28.833 -5 34.5
s-12 8.5 -26 8.5h-17c-14 0 -22.667 -2.83301 -26 -8.5s-5 -17.167 -5 -34.5v-484c0 -17.333 1.66699 -28.833 5 -34.5s12 -8.5 26 -8.5h17c14 0 22.667 2.83301 26 8.5s5 17.167 5 34.5zM68 612l31 71h21l-41 -71h-11z" />
    <glyph glyph-name="Ccircumflex" unicode="&#x108;" horiz-adv-x="177" 
d="M45 643v-586c0 -19.333 2 -32 6 -38s14 -9 30 -9h17c16 0 26 3 30 9s6 18.667 6 38v245h16v-251c0 -22 -3.5 -36.833 -10.5 -44.5s-20.5 -11.5 -40.5 -11.5h-20c-20 0 -33.5 3.83301 -40.5 11.5s-10.5 22.5 -10.5 44.5v598c0 22 3.5 36.833 10.5 44.5
s20.5 11.5 40.5 11.5h20c20 0 33.5 -3.83301 40.5 -11.5s10.5 -22.5 10.5 -44.5v-221h-16v215c0 19.333 -2 32 -6 38s-14 9 -30 9h-17c-16 0 -26 -3 -30 -9s-6 -18.667 -6 -38zM94 787l35 -71h-11l-30 49l-30 -49h-11l35 71h12z" />
    <glyph glyph-name="ccircumflex" unicode="&#x109;" horiz-adv-x="161" 
d="M121 52v187h15v-194c0 -19.333 -3 -32.5 -9 -39.5s-18 -10.5 -36 -10.5h-20c-18 0 -30 3.5 -36 10.5s-9 20.167 -9 39.5v498c0 19.333 3 32.5 9 39.5s18 10.5 36 10.5h20c18 0 30 -3.5 36 -10.5s9 -20.167 9 -39.5v-184h-15v177c0 17.333 -1.66699 28.833 -5 34.5
s-12 8.5 -26 8.5h-17c-14 0 -22.667 -2.83301 -26 -8.5s-5 -17.167 -5 -34.5v-484c0 -17.333 1.66699 -28.833 5 -34.5s12 -8.5 26 -8.5h17c14 0 22.667 2.83301 26 8.5s5 17.167 5 34.5zM88 683l35 -71h-11l-30 49l-30 -49h-11l35 71h12z" />
    <glyph glyph-name="Cdotaccent" unicode="&#x10a;" horiz-adv-x="177" 
d="M45 643v-586c0 -19.333 2 -32 6 -38s14 -9 30 -9h17c16 0 26 3 30 9s6 18.667 6 38v245h16v-251c0 -22 -3.5 -36.833 -10.5 -44.5s-20.5 -11.5 -40.5 -11.5h-20c-20 0 -33.5 3.83301 -40.5 11.5s-10.5 22.5 -10.5 44.5v598c0 22 3.5 36.833 10.5 44.5
s20.5 11.5 40.5 11.5h20c20 0 33.5 -3.83301 40.5 -11.5s10.5 -22.5 10.5 -44.5v-221h-16v215c0 19.333 -2 32 -6 38s-14 9 -30 9h-17c-16 0 -26 -3 -30 -9s-6 -18.667 -6 -38zM98 738h-20v25h20v-25z" />
    <glyph glyph-name="cdotaccent" unicode="&#x10b;" horiz-adv-x="161" 
d="M121 52v187h15v-194c0 -19.333 -3 -32.5 -9 -39.5s-18 -10.5 -36 -10.5h-20c-18 0 -30 3.5 -36 10.5s-9 20.167 -9 39.5v498c0 19.333 3 32.5 9 39.5s18 10.5 36 10.5h20c18 0 30 -3.5 36 -10.5s9 -20.167 9 -39.5v-184h-15v177c0 17.333 -1.66699 28.833 -5 34.5
s-12 8.5 -26 8.5h-17c-14 0 -22.667 -2.83301 -26 -8.5s-5 -17.167 -5 -34.5v-484c0 -17.333 1.66699 -28.833 5 -34.5s12 -8.5 26 -8.5h17c14 0 22.667 2.83301 26 8.5s5 17.167 5 34.5zM92 634h-20v25h20v-25z" />
    <glyph glyph-name="Ccaron" unicode="&#x10c;" horiz-adv-x="177" 
d="M45 643v-586c0 -19.333 2 -32 6 -38s14 -9 30 -9h17c16 0 26 3 30 9s6 18.667 6 38v245h16v-251c0 -22 -3.5 -36.833 -10.5 -44.5s-20.5 -11.5 -40.5 -11.5h-20c-20 0 -33.5 3.83301 -40.5 11.5s-10.5 22.5 -10.5 44.5v598c0 22 3.5 36.833 10.5 44.5
s20.5 11.5 40.5 11.5h20c20 0 33.5 -3.83301 40.5 -11.5s10.5 -22.5 10.5 -44.5v-221h-16v215c0 19.333 -2 32 -6 38s-14 9 -30 9h-17c-16 0 -26 -3 -30 -9s-6 -18.667 -6 -38zM128 787l-34 -71h-12l-34 71h11l29 -49l29 49h11z" />
    <glyph glyph-name="ccaron" unicode="&#x10d;" horiz-adv-x="161" 
d="M121 52v187h15v-194c0 -19.333 -3 -32.5 -9 -39.5s-18 -10.5 -36 -10.5h-20c-18 0 -30 3.5 -36 10.5s-9 20.167 -9 39.5v498c0 19.333 3 32.5 9 39.5s18 10.5 36 10.5h20c18 0 30 -3.5 36 -10.5s9 -20.167 9 -39.5v-184h-15v177c0 17.333 -1.66699 28.833 -5 34.5
s-12 8.5 -26 8.5h-17c-14 0 -22.667 -2.83301 -26 -8.5s-5 -17.167 -5 -34.5v-484c0 -17.333 1.66699 -28.833 5 -34.5s12 -8.5 26 -8.5h17c14 0 22.667 2.83301 26 8.5s5 17.167 5 34.5zM122 683l-34 -71h-12l-34 71h11l29 -49l29 49h11z" />
    <glyph glyph-name="Dcaron" unicode="&#x10e;" horiz-adv-x="181" 
d="M30 0v700h72c20 0 33.5 -3.83301 40.5 -11.5s10.5 -22.5 10.5 -44.5v-588c0 -22 -3.5 -36.833 -10.5 -44.5s-20.5 -11.5 -40.5 -11.5h-72zM47 15h53c16 0 26 3 30 9s6 18.667 6 38v576c0 19.333 -2 32 -6 38s-14 9 -30 9h-53v-670zM128 787l-34 -71h-12l-34 71h11l29 -49
l29 49h11z" />
    <glyph glyph-name="dcaron" unicode="&#x10f;" horiz-adv-x="197" 
d="M121 62v464c0 35.333 -12.333 53 -37 53h-13c-12.667 0 -20.667 -2.66699 -24 -8s-5 -16 -5 -32v-490c0 -16 1.66699 -26.667 5 -32s11.333 -8 24 -8h13c24.667 0 37 17.667 37 53zM137 51c0 -22 1.00098 -39 3.00098 -51h-14c-2 5.33301 -3 14 -3 26
c-6.66699 -20.667 -21.334 -31 -44.001 -31h-10c-16.667 0 -28 3.5 -34 10.5s-9 19.5 -9 37.5v502c0 18 3 30.5 9 37.5s17.333 10.5 34 10.5h10c20.667 0 34.667 -8.66699 42 -26v133h16v-649zM177.001 665v35h19v-35l-16 -52l-4 1l10 51h-9z" />
    <glyph glyph-name="Dcroat" unicode="&#x110;" horiz-adv-x="181" 
d="M30 0v362h-18v14h18v324h72c20 0 33.5 -3.83301 40.5 -11.5s10.5 -22.5 10.5 -44.5v-588c0 -22 -3.5 -36.833 -10.5 -44.5s-20.5 -11.5 -40.5 -11.5h-72zM47 15h53c16 0 26 3 30 9s6 18.667 6 38v576c0 19.333 -2 32 -6 38s-14 9 -30 9h-53v-309h48v-14h-48v-347z" />
    <glyph glyph-name="dcroat" unicode="&#x111;" horiz-adv-x="165" 
d="M137 51c0 -22 1.00098 -39 3.00098 -51h-14c-2 5.33301 -3 14 -3 26c-6.66699 -20.667 -21.334 -31 -44.001 -31h-10c-16.667 0 -28 3.5 -34 10.5s-9 19.5 -9 37.5v502c0 18 3 30.5 9 37.5s17.333 10.5 34 10.5h10c20.667 0 34.667 -8.66699 42 -26v63h-53v14h53v56h16
v-56h16v-14h-16v-579zM121.001 62v464c0 35.333 -12.333 53 -37 53h-13c-12.667 0 -20.667 -2.66699 -24 -8s-5 -16 -5 -32v-490c0 -16 1.66699 -26.667 5 -32s11.333 -8 24 -8h13c24.667 0 37 17.667 37 53z" />
    <glyph glyph-name="Emacron" unicode="&#x112;" horiz-adv-x="139" 
d="M47 685v-309h68v-15h-68v-346h77v-15h-94v700h94v-15h-77zM118 738h-83v14h83v-14z" />
    <glyph glyph-name="emacron" unicode="&#x113;" horiz-adv-x="161" 
d="M121 52v146h15v-153c0 -19.333 -3 -32.5 -9 -39.5s-18 -10.5 -36 -10.5h-20c-18 0 -30 3.5 -36 10.5s-9 20.167 -9 39.5v498c0 19.333 3 32.5 9 39.5s18 10.5 36 10.5h20c18 0 30 -3.5 36 -10.5s9 -20.167 9 -39.5v-251h-94v-240c0 -17.333 1.66699 -28.833 5 -34.5
s12 -8.5 26 -8.5h17c14 0 22.667 2.83301 26 8.5s5 17.167 5 34.5zM42 536v-230h79v230c0 17.333 -1.66699 28.833 -5 34.5s-12 8.5 -26 8.5h-17c-14 0 -22.667 -2.83301 -26 -8.5s-5 -17.167 -5 -34.5zM124 634h-83v14h83v-14z" />
    <glyph glyph-name="Ebreve" unicode="&#x114;" horiz-adv-x="139" 
d="M47 685v-309h68v-15h-68v-346h77v-15h-94v700h94v-15h-77zM76 740c11.333 0 19.5 2.66699 24.5 8s7.5 15 7.5 29h11c0 -18 -3 -31.333 -9 -40s-17.333 -13 -34 -13s-28 4.33301 -34 13s-9 22 -9 40h11c0 -14 2.5 -23.667 7.5 -29s13.167 -8 24.5 -8z" />
    <glyph glyph-name="ebreve" unicode="&#x115;" horiz-adv-x="161" 
d="M121 52v146h15v-153c0 -19.333 -3 -32.5 -9 -39.5s-18 -10.5 -36 -10.5h-20c-18 0 -30 3.5 -36 10.5s-9 20.167 -9 39.5v498c0 19.333 3 32.5 9 39.5s18 10.5 36 10.5h20c18 0 30 -3.5 36 -10.5s9 -20.167 9 -39.5v-251h-94v-240c0 -17.333 1.66699 -28.833 5 -34.5
s12 -8.5 26 -8.5h17c14 0 22.667 2.83301 26 8.5s5 17.167 5 34.5zM42 536v-230h79v230c0 17.333 -1.66699 28.833 -5 34.5s-12 8.5 -26 8.5h-17c-14 0 -22.667 -2.83301 -26 -8.5s-5 -17.167 -5 -34.5zM82 636c11.333 0 19.5 2.66699 24.5 8s7.5 15 7.5 29h11
c0 -18 -3 -31.333 -9 -40s-17.333 -13 -34 -13s-28 4.33301 -34 13s-9 22 -9 40h11c0 -14 2.5 -23.667 7.5 -29s13.167 -8 24.5 -8z" />
    <glyph glyph-name="Edotaccent" unicode="&#x116;" horiz-adv-x="139" 
d="M47 685v-309h68v-15h-68v-346h77v-15h-94v700h94v-15h-77zM86 738h-20v25h20v-25z" />
    <glyph glyph-name="edotaccent" unicode="&#x117;" horiz-adv-x="161" 
d="M121 52v146h15v-153c0 -19.333 -3 -32.5 -9 -39.5s-18 -10.5 -36 -10.5h-20c-18 0 -30 3.5 -36 10.5s-9 20.167 -9 39.5v498c0 19.333 3 32.5 9 39.5s18 10.5 36 10.5h20c18 0 30 -3.5 36 -10.5s9 -20.167 9 -39.5v-251h-94v-240c0 -17.333 1.66699 -28.833 5 -34.5
s12 -8.5 26 -8.5h17c14 0 22.667 2.83301 26 8.5s5 17.167 5 34.5zM42 536v-230h79v230c0 17.333 -1.66699 28.833 -5 34.5s-12 8.5 -26 8.5h-17c-14 0 -22.667 -2.83301 -26 -8.5s-5 -17.167 -5 -34.5zM92 634h-20v25h20v-25z" />
    <glyph glyph-name="Eogonek" unicode="&#x118;" horiz-adv-x="139" 
d="M124 -81l0.000976562 -12c-6.66699 -3.33301 -14.334 -5 -23.001 -5c-13.333 0 -22.666 2.83301 -27.999 8.5s-8 15.167 -8 28.5c0 20 12 40.333 36 61h-71v700h94v-15h-77v-309h68v-15h-68v-346h77v-15h-15c-18.667 -18 -28 -38.333 -28 -61c0 -16.667 7 -25 21 -25
c9.33301 0 16.666 1.66699 21.999 5z" />
    <glyph glyph-name="eogonek" unicode="&#x119;" horiz-adv-x="161" 
d="M42 536v-230h79v230c0 17.333 -1.66699 28.833 -5 34.5s-12 8.5 -26 8.5h-17c-14 0 -22.667 -2.83301 -26 -8.5s-5 -17.167 -5 -34.5zM136 -81l0.000976562 -12c-6.66699 -3.33301 -14.334 -5 -23.001 -5c-13.333 0 -22.666 2.83301 -27.999 8.5s-8 15.167 -8 28.5
c0 18.667 9.66699 37.667 29 57c-3.33301 -0.666992 -8.33301 -1 -15 -1h-20c-18 0 -30 3.5 -36 10.5s-9 20.167 -9 39.5v498c0 19.333 3 32.5 9 39.5s18 10.5 36 10.5h20c18 0 30 -3.5 36 -10.5s9 -20.167 9 -39.5v-251h-94v-240c0 -17.333 1.66699 -28.833 5 -34.5
s12 -8.5 26 -8.5h17c14 0 22.667 2.83301 26 8.5s5 17.167 5 34.5v146h15v-153c0 -24.667 -5.33301 -39.667 -16 -45c-18 -20 -27 -40.333 -27 -61c0 -16.667 7 -25 21 -25c9.33301 0 16.666 1.66699 21.999 5z" />
    <glyph glyph-name="Ecaron" unicode="&#x11a;" horiz-adv-x="139" 
d="M47 685v-309h68v-15h-68v-346h77v-15h-94v700h94v-15h-77zM116 787l-34 -71h-12l-34 71h11l29 -49l29 49h11z" />
    <glyph glyph-name="ecaron" unicode="&#x11b;" horiz-adv-x="161" 
d="M121 52v146h15v-153c0 -19.333 -3 -32.5 -9 -39.5s-18 -10.5 -36 -10.5h-20c-18 0 -30 3.5 -36 10.5s-9 20.167 -9 39.5v498c0 19.333 3 32.5 9 39.5s18 10.5 36 10.5h20c18 0 30 -3.5 36 -10.5s9 -20.167 9 -39.5v-251h-94v-240c0 -17.333 1.66699 -28.833 5 -34.5
s12 -8.5 26 -8.5h17c14 0 22.667 2.83301 26 8.5s5 17.167 5 34.5zM42 536v-230h79v230c0 17.333 -1.66699 28.833 -5 34.5s-12 8.5 -26 8.5h-17c-14 0 -22.667 -2.83301 -26 -8.5s-5 -17.167 -5 -34.5zM122 683l-34 -71h-12l-34 71h11l29 -49l29 49h11z" />
    <glyph glyph-name="Gcircumflex" unicode="&#x11c;" horiz-adv-x="177" 
d="M90 339v15h60v-303c0 -22 -3.5 -36.833 -10.5 -44.5s-20.5 -11.5 -40.5 -11.5h-20c-20 0 -33.5 3.83301 -40.5 11.5s-10.5 22.5 -10.5 44.5v598c0 22 3.5 36.833 10.5 44.5s20.5 11.5 40.5 11.5h20c20 0 33.5 -3.83301 40.5 -11.5s10.5 -22.5 10.5 -44.5v-221h-16v215
c0 19.333 -2 32 -6 38s-14 9 -30 9h-17c-16 0 -26 -3 -30 -9s-6 -18.667 -6 -38v-586c0 -19.333 2 -32 6 -38s14 -9 30 -9h17c16 0 26 3 30 9s6 18.667 6 38v282h-44zM94 787l35 -71h-11l-30 49l-30 -49h-11l35 71h12z" />
    <glyph glyph-name="gcircumflex" unicode="&#x11d;" horiz-adv-x="157" 
d="M135 111c0 -19.333 -3.00195 -32.5 -9.00195 -39.5s-18 -10.5 -36 -10.5h-24c-9.33301 0 -16 -2.16699 -20 -6.5s-6 -11.833 -6 -22.5v-3c0 -16 10.333 -24 31 -24h29c10.667 0 19.334 -0.666992 26.001 -2s12.667 -5.33301 18 -12s8 -16.334 8 -29.001v-15
c0 -17.333 -4.16699 -29.166 -12.5 -35.499s-21.166 -9.5 -38.499 -9.5h-36c-28.667 0 -43 14 -43 42v14c0 19.333 7.33301 31.333 22 36c-10.667 4.66699 -16 16 -16 34v6c0 14.667 5 24.667 15 30c-12.667 5.33301 -19 21 -19 47v432c0 19.333 3 32.5 9 39.5
s18 10.5 36 10.5h19c21.333 0 34.666 -6 39.999 -18c2.66699 12 8.33398 18 17.001 18h6v-14h-5c-7.33301 0 -11 -5.33301 -11 -16v-452zM39.998 536v-418c0 -17.333 1.66699 -28.833 5 -34.5s12 -8.5 26 -8.5h17c14 0 22.667 2.83301 26 8.5s5 17.167 5 34.5v418
c0 17.333 -1.66699 28.833 -5 34.5s-12 8.5 -26 8.5h-17c-14 0 -22.667 -2.83301 -26 -8.5s-5 -17.167 -5 -34.5zM135.998 -53l0.00195312 14.998c0 10.667 -2.83301 17.834 -8.5 21.501s-14.834 5.5 -27.501 5.5h-35c-10.667 0 -18 -2.16699 -22 -6.5
s-6 -12.166 -6 -23.499v-12c0 -11.333 2.5 -19.333 7.5 -24s13.167 -7 24.5 -7h31c13.333 0 22.666 2 27.999 6s8 12.333 8 25zM86 682.998l35 -71h-11l-30 49l-30 -49h-11l35 71h12z" />
    <glyph glyph-name="Gbreve" unicode="&#x11e;" horiz-adv-x="177" 
d="M90 339v15h60v-303c0 -22 -3.5 -36.833 -10.5 -44.5s-20.5 -11.5 -40.5 -11.5h-20c-20 0 -33.5 3.83301 -40.5 11.5s-10.5 22.5 -10.5 44.5v598c0 22 3.5 36.833 10.5 44.5s20.5 11.5 40.5 11.5h20c20 0 33.5 -3.83301 40.5 -11.5s10.5 -22.5 10.5 -44.5v-221h-16v215
c0 19.333 -2 32 -6 38s-14 9 -30 9h-17c-16 0 -26 -3 -30 -9s-6 -18.667 -6 -38v-586c0 -19.333 2 -32 6 -38s14 -9 30 -9h17c16 0 26 3 30 9s6 18.667 6 38v282h-44zM88 740c11.333 0 19.5 2.66699 24.5 8s7.5 15 7.5 29h11c0 -18 -3 -31.333 -9 -40s-17.333 -13 -34 -13
s-28 4.33301 -34 13s-9 22 -9 40h11c0 -14 2.5 -23.667 7.5 -29s13.167 -8 24.5 -8z" />
    <glyph glyph-name="gbreve" unicode="&#x11f;" horiz-adv-x="157" 
d="M135 111c0 -19.333 -3.00195 -32.5 -9.00195 -39.5s-18 -10.5 -36 -10.5h-24c-9.33301 0 -16 -2.16699 -20 -6.5s-6 -11.833 -6 -22.5v-3c0 -16 10.333 -24 31 -24h29c10.667 0 19.334 -0.666992 26.001 -2s12.667 -5.33301 18 -12s8 -16.334 8 -29.001v-15
c0 -17.333 -4.16699 -29.166 -12.5 -35.499s-21.166 -9.5 -38.499 -9.5h-36c-28.667 0 -43 14 -43 42v14c0 19.333 7.33301 31.333 22 36c-10.667 4.66699 -16 16 -16 34v6c0 14.667 5 24.667 15 30c-12.667 5.33301 -19 21 -19 47v432c0 19.333 3 32.5 9 39.5
s18 10.5 36 10.5h19c21.333 0 34.666 -6 39.999 -18c2.66699 12 8.33398 18 17.001 18h6v-14h-5c-7.33301 0 -11 -5.33301 -11 -16v-452zM39.998 536v-418c0 -17.333 1.66699 -28.833 5 -34.5s12 -8.5 26 -8.5h17c14 0 22.667 2.83301 26 8.5s5 17.167 5 34.5v418
c0 17.333 -1.66699 28.833 -5 34.5s-12 8.5 -26 8.5h-17c-14 0 -22.667 -2.83301 -26 -8.5s-5 -17.167 -5 -34.5zM135.998 -53l0.00195312 14.998c0 10.667 -2.83301 17.834 -8.5 21.501s-14.834 5.5 -27.501 5.5h-35c-10.667 0 -18 -2.16699 -22 -6.5
s-6 -12.166 -6 -23.499v-12c0 -11.333 2.5 -19.333 7.5 -24s13.167 -7 24.5 -7h31c13.333 0 22.666 2 27.999 6s8 12.333 8 25zM80 635.998c11.333 0 19.5 2.66699 24.5 8s7.5 15 7.5 29h11c0 -18 -3 -31.333 -9 -40s-17.333 -13 -34 -13s-28 4.33301 -34 13s-9 22 -9 40h11
c0 -14 2.5 -23.667 7.5 -29s13.167 -8 24.5 -8z" />
    <glyph glyph-name="Gdotaccent" unicode="&#x120;" horiz-adv-x="177" 
d="M90 339v15h60v-303c0 -22 -3.5 -36.833 -10.5 -44.5s-20.5 -11.5 -40.5 -11.5h-20c-20 0 -33.5 3.83301 -40.5 11.5s-10.5 22.5 -10.5 44.5v598c0 22 3.5 36.833 10.5 44.5s20.5 11.5 40.5 11.5h20c20 0 33.5 -3.83301 40.5 -11.5s10.5 -22.5 10.5 -44.5v-221h-16v215
c0 19.333 -2 32 -6 38s-14 9 -30 9h-17c-16 0 -26 -3 -30 -9s-6 -18.667 -6 -38v-586c0 -19.333 2 -32 6 -38s14 -9 30 -9h17c16 0 26 3 30 9s6 18.667 6 38v282h-44zM98 738h-20v25h20v-25z" />
    <glyph glyph-name="gdotaccent" unicode="&#x121;" horiz-adv-x="157" 
d="M135 111c0 -19.333 -3.00195 -32.5 -9.00195 -39.5s-18 -10.5 -36 -10.5h-24c-9.33301 0 -16 -2.16699 -20 -6.5s-6 -11.833 -6 -22.5v-3c0 -16 10.333 -24 31 -24h29c10.667 0 19.334 -0.666992 26.001 -2s12.667 -5.33301 18 -12s8 -16.334 8 -29.001v-15
c0 -17.333 -4.16699 -29.166 -12.5 -35.499s-21.166 -9.5 -38.499 -9.5h-36c-28.667 0 -43 14 -43 42v14c0 19.333 7.33301 31.333 22 36c-10.667 4.66699 -16 16 -16 34v6c0 14.667 5 24.667 15 30c-12.667 5.33301 -19 21 -19 47v432c0 19.333 3 32.5 9 39.5
s18 10.5 36 10.5h19c21.333 0 34.666 -6 39.999 -18c2.66699 12 8.33398 18 17.001 18h6v-14h-5c-7.33301 0 -11 -5.33301 -11 -16v-452zM39.998 536v-418c0 -17.333 1.66699 -28.833 5 -34.5s12 -8.5 26 -8.5h17c14 0 22.667 2.83301 26 8.5s5 17.167 5 34.5v418
c0 17.333 -1.66699 28.833 -5 34.5s-12 8.5 -26 8.5h-17c-14 0 -22.667 -2.83301 -26 -8.5s-5 -17.167 -5 -34.5zM135.998 -53l0.00195312 14.998c0 10.667 -2.83301 17.834 -8.5 21.501s-14.834 5.5 -27.501 5.5h-35c-10.667 0 -18 -2.16699 -22 -6.5
s-6 -12.166 -6 -23.499v-12c0 -11.333 2.5 -19.333 7.5 -24s13.167 -7 24.5 -7h31c13.333 0 22.666 2 27.999 6s8 12.333 8 25zM90 633.998h-20v25h20v-25z" />
    <glyph glyph-name="uni0122" unicode="&#x122;" horiz-adv-x="177" 
d="M90 339v15h60v-303c0 -22 -3.5 -36.833 -10.5 -44.5s-20.5 -11.5 -40.5 -11.5h-20c-20 0 -33.5 3.83301 -40.5 11.5s-10.5 22.5 -10.5 44.5v598c0 22 3.5 36.833 10.5 44.5s20.5 11.5 40.5 11.5h20c20 0 33.5 -3.83301 40.5 -11.5s10.5 -22.5 10.5 -44.5v-221h-16v215
c0 19.333 -2 32 -6 38s-14 9 -30 9h-17c-16 0 -26 -3 -30 -9s-6 -18.667 -6 -38v-586c0 -19.333 2 -32 6 -38s14 -9 30 -9h17c16 0 26 3 30 9s6 18.667 6 38v282h-44zM78 -76v26h20v-26l-17 -42l-4 2l10 40h-9z" />
    <glyph glyph-name="uni0123" unicode="&#x123;" horiz-adv-x="157" 
d="M90 660v-26h-20v26l17 42l4 -2l-10 -40h9zM135 111c0 -19.333 -3.00195 -32.5 -9.00195 -39.5s-18 -10.5 -36 -10.5h-24c-9.33301 0 -16 -2.16699 -20 -6.5s-6 -11.833 -6 -22.5v-3c0 -16 10.333 -24 31 -24h29c10.667 0 19.334 -0.666992 26.001 -2
s12.667 -5.33301 18 -12s8 -16.334 8 -29.001v-15c0 -17.333 -4.16699 -29.166 -12.5 -35.499s-21.166 -9.5 -38.499 -9.5h-36c-28.667 0 -43 14 -43 42v14c0 19.333 7.33301 31.333 22 36c-10.667 4.66699 -16 16 -16 34v6c0 14.667 5 24.667 15 30
c-12.667 5.33301 -19 21 -19 47v432c0 19.333 3 32.5 9 39.5s18 10.5 36 10.5h19c21.333 0 34.666 -6 39.999 -18c2.66699 12 8.33398 18 17.001 18h6v-14h-5c-7.33301 0 -11 -5.33301 -11 -16v-452zM39.998 536v-418c0 -17.333 1.66699 -28.833 5 -34.5s12 -8.5 26 -8.5h17
c14 0 22.667 2.83301 26 8.5s5 17.167 5 34.5v418c0 17.333 -1.66699 28.833 -5 34.5s-12 8.5 -26 8.5h-17c-14 0 -22.667 -2.83301 -26 -8.5s-5 -17.167 -5 -34.5zM135.998 -53l0.00195312 14.998c0 10.667 -2.83301 17.834 -8.5 21.501s-14.834 5.5 -27.501 5.5h-35
c-10.667 0 -18 -2.16699 -22 -6.5s-6 -12.166 -6 -23.499v-12c0 -11.333 2.5 -19.333 7.5 -24s13.167 -7 24.5 -7h31c13.333 0 22.666 2 27.999 6s8 12.333 8 25z" />
    <glyph glyph-name="Hcircumflex" unicode="&#x124;" horiz-adv-x="183" 
d="M47 0h-17v700h17v-324h89v324h17v-700h-17v361h-89v-361zM97 787l35 -71h-11l-30 49l-30 -49h-11l35 71h12z" />
    <glyph glyph-name="hcircumflex" unicode="&#x125;" 
d="M94 579h-13c-24.667 0 -37 -17.667 -37 -53v-526h-16v700h16v-133c6.66699 17.333 20.667 26 42 26h10c16.667 0 28 -3.5 34 -10.5s9 -19.5 9 -37.5v-545h-16v539c0 16 -1.66699 26.667 -5 32s-11.333 8 -24 8zM42 787l35 -71h-11l-30 49l-30 -49h-11l35 71h12z" />
    <glyph glyph-name="Hbar" unicode="&#x126;" horiz-adv-x="183" 
d="M47 0h-17v532h-18v14h18v154h17v-154h89v154h17v-154h18v-14h-18v-532h-17v361h-89v-361zM47 376h89v156h-89v-156z" />
    <glyph glyph-name="hbar" unicode="&#x127;" 
d="M94 579h-13c-24.667 0 -37 -17.667 -37 -53v-526h-16v630h-16v14h16v56h16v-56h53v-14h-53v-63c6.66699 17.333 20.667 26 42 26h10c16.667 0 28 -3.5 34 -10.5s9 -19.5 9 -37.5v-545h-16v539c0 16 -1.66699 26.667 -5 32s-11.333 8 -24 8z" />
    <glyph glyph-name="Itilde" unicode="&#x128;" horiz-adv-x="77" 
d="M77 762h10.001c0 -12.667 -2 -21.334 -6 -26.001s-10.667 -7 -20 -7c-8 0 -16.833 3.16699 -26.5 9.5s-16.167 9.5 -19.5 9.5c-8.66699 0 -13 -6.33301 -13 -19h-11c0 12.667 2.16699 21.334 6.5 26.001s11.166 7 20.499 7c7.33301 0 16 -3.16699 26 -9.5
s16.667 -9.5 20 -9.5c8.66699 0 13 6.33301 13 19zM30.001 0v700h17v-700h-17z" />
    <glyph glyph-name="itilde" unicode="&#x129;" horiz-adv-x="72" 
d="M74 658h10.001c0 -12.667 -2 -21.334 -6 -26.001s-10.667 -7 -20 -7c-8 0 -16.833 3.16699 -26.5 9.5s-16.167 9.5 -19.5 9.5c-8.66699 0 -13 -6.33301 -13 -19h-11c0 12.667 2.16699 21.334 6.5 26.001s11.166 7 20.499 7c7.33301 0 16 -3.16699 26 -9.5
s16.667 -9.5 20 -9.5c8.66699 0 13 6.33301 13 19zM44.001 588v-588h-16v588h16z" />
    <glyph glyph-name="Imacron" unicode="&#x12a;" horiz-adv-x="77" 
d="M30 0v700h17v-700h-17zM80 738h-83v14h83v-14z" />
    <glyph glyph-name="imacron" unicode="&#x12b;" horiz-adv-x="72" 
d="M44 588v-588h-16v588h16zM78 634h-83v14h83v-14z" />
    <glyph glyph-name="Ibreve" unicode="&#x12c;" horiz-adv-x="77" 
d="M39 740c11.333 0 19.5 2.66699 24.5 8s7.5 15 7.5 29h11c0 -18 -3 -31.333 -9 -40s-17.333 -13 -34 -13s-28 4.33301 -34 13s-9 22 -9 40h11c0 -14 2.5 -23.667 7.5 -29s13.167 -8 24.5 -8zM30 0v700h17v-700h-17z" />
    <glyph glyph-name="ibreve" unicode="&#x12d;" horiz-adv-x="72" 
d="M36 636c11.333 0 19.5 2.66699 24.5 8s7.5 15 7.5 29h11c0 -18 -3 -31.333 -9 -40s-17.333 -13 -34 -13s-28 4.33301 -34 13s-9 22 -9 40h11c0 -14 2.5 -23.667 7.5 -29s13.167 -8 24.5 -8zM44 588v-588h-16v588h16z" />
    <glyph glyph-name="Iogonek" unicode="&#x12e;" horiz-adv-x="77" 
d="M63 -81v-12c-6.66699 -3.33301 -14.334 -5 -23.001 -5c-13.333 0 -22.666 2.83301 -27.999 8.5s-8 15.167 -8 28.5c0 21.333 8.66699 41.666 26 60.999v700h17v-700h-9c-12 -17.333 -18 -37.666 -18 -60.999c0 -16.667 7 -25 21 -25c10 0 17.333 1.66699 22 5z" />
    <glyph glyph-name="iogonek" unicode="&#x12f;" horiz-adv-x="72" 
d="M60 -81l0.000976562 -12.002c-6.66699 -3.33301 -14.334 -5 -23.001 -5c-13.333 0 -22.666 2.83301 -27.999 8.5s-8 15.167 -8 28.5c0 20.667 9 41.334 27 62.001v587h16v-588h-9c-12 -17.333 -18 -37.666 -18 -60.999c0 -16.667 7 -25 21 -25
c9.33301 0 16.666 1.66699 21.999 5zM28.001 662.998v37h16v-37h-16z" />
    <glyph glyph-name="Idotaccent" unicode="&#x130;" horiz-adv-x="77" 
d="M30 0v700h17v-700h-17zM49 738h-20v25h20v-25z" />
    <glyph glyph-name="dotlessi" unicode="&#x131;" horiz-adv-x="72" 
d="M44 588v-588h-16v588h16z" />
    <glyph glyph-name="IJ" unicode="&#x132;" horiz-adv-x="241" 
d="M106 302v-245c0 -19.333 2 -32 6 -38s14 -9 30 -9h17c16 0 26 3 30 9s6 18.667 6 38v643h17v-649c0 -22 -3.5 -36.833 -10.5 -44.5s-20.5 -11.5 -40.5 -11.5h-20c-20 0 -33.5 3.83301 -40.5 11.5s-10.5 22.5 -10.5 44.5v251h16zM30 0v700h17v-700h-17z" />
    <glyph glyph-name="ij" unicode="&#x133;" horiz-adv-x="144" 
d="M100 588h15.999v-631c0 -19.333 -2.83301 -32.5 -8.5 -39.5s-17.167 -10.5 -34.5 -10.5h-7v14h4c12.667 0 20.834 2.16699 24.501 6.5s5.5 14.833 5.5 31.5v629zM99.999 663v37h16v-37h-16zM43.999 588v-588h-16v588h16zM27.999 663v37h16v-37h-16z" />
    <glyph glyph-name="Jcircumflex" unicode="&#x134;" horiz-adv-x="164" 
d="M29 302v-245c0 -19.333 2 -32 6 -38s14 -9 30 -9h17c16 0 26 3 30 9s6 18.667 6 38v643h17v-649c0 -22 -3.5 -36.833 -10.5 -44.5s-20.5 -11.5 -40.5 -11.5h-20c-20 0 -33.5 3.83301 -40.5 11.5s-10.5 22.5 -10.5 44.5v251h16zM132 787l35 -71h-11l-30 49l-30 -49h-11
l35 71h12z" />
    <glyph glyph-name="jcircumflex" unicode="&#x135;" horiz-adv-x="72" 
d="M28 588h15.999v-631c0 -19.333 -2.83301 -32.5 -8.5 -39.5s-17.167 -10.5 -34.5 -10.5h-7v14h4c12.667 0 20.834 2.16699 24.501 6.5s5.5 14.833 5.5 31.5v629zM41.999 683l35 -71h-11l-30 49l-30 -49h-11l35 71h12z" />
    <glyph glyph-name="uni0136" unicode="&#x136;" horiz-adv-x="171" 
d="M30 0l0.000976562 700h17v-328c3.33301 13.333 8.66602 31 15.999 53l86 275h16l-105 -330l107 -370h-18l-89 316c-1.33301 5.33301 -3.5 13 -6.5 23s-5.16699 18 -6.5 24v-363h-17zM84.001 -76v26h20v-26l-17 -42l-4 2l10 40h-9z" />
    <glyph glyph-name="uni0137" unicode="&#x137;" horiz-adv-x="156" 
d="M44 310l-0.000976562 -310h-16v700h16v-381c2 7.33301 5.16699 17.5 9.5 30.5s7.5 22.833 9.5 29.5l66 209h15l-87 -271l93 -317h-17l-73 252c-9.33301 32 -14.666 51.333 -15.999 58zM76.999 -76v26h20v-26l-17 -42l-4 2l10 40h-9z" />
    <glyph glyph-name="kgreenlandic" unicode="&#x138;" horiz-adv-x="156" 
d="M44 310l-0.000976562 -310h-16v588h16v-269c2 7.33301 5.16699 17.5 9.5 30.5s7.5 22.833 9.5 29.5l66 209h15l-87 -271l93 -317h-17l-73 252c-9.33301 32 -14.666 51.333 -15.999 58z" />
    <glyph glyph-name="Lacute" unicode="&#x139;" horiz-adv-x="127" 
d="M30 0v700h17v-685h71v-15h-88zM36 716l31 71h21l-41 -71h-11z" />
    <glyph glyph-name="lacute" unicode="&#x13a;" horiz-adv-x="72" 
d="M44 0h-16v700h16v-700zM22 716l31 71h21l-41 -71h-11z" />
    <glyph glyph-name="uni013B" unicode="&#x13b;" horiz-adv-x="127" 
d="M65 -76v26h20v-26l-17 -42l-4 2l10 40h-9zM30 0v700h17v-685h71v-15h-88z" />
    <glyph glyph-name="uni013C" unicode="&#x13c;" horiz-adv-x="72" 
d="M26 -76v26h20v-26l-17 -42l-4 2l10 40h-9zM44 0h-16v700h16v-700z" />
    <glyph glyph-name="Lcaron" unicode="&#x13d;" horiz-adv-x="127" 
d="M92 665v35h19v-35l-16 -52l-4 1l10 51h-9zM30 0v700h17v-685h71v-15h-88z" />
    <glyph glyph-name="lcaron" unicode="&#x13e;" horiz-adv-x="104" 
d="M84 665v35h19v-35l-16 -52l-4 1l10 51h-9zM44 0h-16v700h16v-700z" />
    <glyph glyph-name="Ldot" unicode="&#x13f;" horiz-adv-x="127" 
d="M30 0v700h17v-685h71v-15h-88zM92 351v35h19v-35h-19z" />
    <glyph glyph-name="ldot" unicode="&#x140;" horiz-adv-x="108" 
d="M84 333v35h19v-35h-19zM44 0h-16v700h16v-700z" />
    <glyph glyph-name="Lslash" unicode="&#x141;" horiz-adv-x="127" 
d="M30 0v324l-18 -18v18l18 18v358h17v-341l35 35v-18l-35 -35v-326h71v-15h-88z" />
    <glyph glyph-name="lslash" unicode="&#x142;" horiz-adv-x="72" 
d="M44 0h-16v333l-27 -27v18l27 27v349h16v-333l27 27v-18l-27 -27v-349z" />
    <glyph glyph-name="Nacute" unicode="&#x143;" horiz-adv-x="186" 
d="M137 0l-81 563.001c-6.66699 48.667 -11 84.667 -13 108c1.33301 -42.667 2 -78.334 2 -107.001v-564h-15v700h23l77 -535c6 -44 10.333 -80.667 13 -110c-1.33301 64 -2 100.333 -2 109v536h15v-700h-19zM78 716.001l31 71h21l-41 -71h-11z" />
    <glyph glyph-name="nacute" unicode="&#x144;" 
d="M139 0h-16.001v539c0 16 -1.66699 26.667 -5 32s-11.333 8 -24 8h-13c-24.667 0 -37 -17.667 -37 -53v-526h-16v588h14v-27c6.66699 21.333 21.334 32 44.001 32h10c16.667 0 28 -3.5 34 -10.5s9 -19.5 9 -37.5v-545zM67.999 612l31 71h21l-41 -71h-11z" />
    <glyph glyph-name="uni0145" unicode="&#x145;" horiz-adv-x="186" 
d="M137 0l-81 563.001c-6.66699 48.667 -11 84.667 -13 108c1.33301 -42.667 2 -78.334 2 -107.001v-564h-15v700h23l77 -535c6 -44 10.333 -80.667 13 -110c-1.33301 64 -2 100.333 -2 109v536h15v-700h-19zM82 -75.999v26h20v-26l-17 -42l-4 2l10 40h-9z" />
    <glyph glyph-name="uni0146" unicode="&#x146;" 
d="M139 0h-16.001v539c0 16 -1.66699 26.667 -5 32s-11.333 8 -24 8h-13c-24.667 0 -37 -17.667 -37 -53v-526h-16v588h14v-27c6.66699 21.333 21.334 32 44.001 32h10c16.667 0 28 -3.5 34 -10.5s9 -19.5 9 -37.5v-545zM73.999 -76v26h20v-26l-17 -42l-4 2l10 40h-9z" />
    <glyph glyph-name="Ncaron" unicode="&#x147;" horiz-adv-x="186" 
d="M137 0l-81 563.001c-6.66699 48.667 -11 84.667 -13 108c1.33301 -42.667 2 -78.334 2 -107.001v-564h-15v700h23l77 -535c6 -44 10.333 -80.667 13 -110c-1.33301 64 -2 100.333 -2 109v536h15v-700h-19zM133 787.001l-34 -71h-12l-34 71h11l29 -49l29 49h11z" />
    <glyph glyph-name="ncaron" unicode="&#x148;" 
d="M139 0h-16.001v539c0 16 -1.66699 26.667 -5 32s-11.333 8 -24 8h-13c-24.667 0 -37 -17.667 -37 -53v-526h-16v588h14v-27c6.66699 21.333 21.334 32 44.001 32h10c16.667 0 28 -3.5 34 -10.5s9 -19.5 9 -37.5v-545zM122.999 683l-34 -71h-12l-34 71h11l29 -49l29 49h11
z" />
    <glyph glyph-name="napostrophe" unicode="&#x149;" 
d="M139 0h-16.001v539c0 16 -1.66699 26.667 -5 32s-11.333 8 -24 8h-13c-24.667 0 -37 -17.667 -37 -53v-526h-16v588h14v-27c6.66699 21.333 21.334 32 44.001 32h10c16.667 0 28 -3.5 34 -10.5s9 -19.5 9 -37.5v-545zM28.999 675v26h20v-26l-17 -42l-4 2l10 40h-9z" />
    <glyph glyph-name="Omacron" unicode="&#x14c;" horiz-adv-x="179" 
d="M28 51v598c0 22 3.5 36.833 10.5 44.5s20.5 11.5 40.5 11.5h21c20 0 33.5 -3.83301 40.5 -11.5s10.5 -22.5 10.5 -44.5v-598c0 -22 -3.5 -36.833 -10.5 -44.5s-20.5 -11.5 -40.5 -11.5h-21c-20 0 -33.5 3.83301 -40.5 11.5s-10.5 22.5 -10.5 44.5zM134 57v586
c0 19.333 -2 32 -6 38s-14 9 -30 9h-17c-16 0 -26 -3 -30 -9s-6 -18.667 -6 -38v-586c0 -19.333 2 -32 6 -38s14 -9 30 -9h17c16 0 26 3 30 9s6 18.667 6 38zM131 738h-83v14h83v-14z" />
    <glyph glyph-name="omacron" unicode="&#x14d;" horiz-adv-x="163" 
d="M137 543v-498c0 -19.333 -3 -32.5 -9 -39.5s-18 -10.5 -36 -10.5h-21c-18 0 -30 3.5 -36 10.5s-9 20.167 -9 39.5v498c0 19.333 3 32.5 9 39.5s18 10.5 36 10.5h21c18 0 30 -3.5 36 -10.5s9 -20.167 9 -39.5zM42 536v-484c0 -17.333 1.66699 -28.833 5 -34.5
s12 -8.5 26 -8.5h17c14 0 22.667 2.83301 26 8.5s5 17.167 5 34.5v484c0 17.333 -1.66699 28.833 -5 34.5s-12 8.5 -26 8.5h-17c-14 0 -22.667 -2.83301 -26 -8.5s-5 -17.167 -5 -34.5zM123 634h-83v14h83v-14z" />
    <glyph glyph-name="Obreve" unicode="&#x14e;" horiz-adv-x="179" 
d="M28 51v598c0 22 3.5 36.833 10.5 44.5s20.5 11.5 40.5 11.5h21c20 0 33.5 -3.83301 40.5 -11.5s10.5 -22.5 10.5 -44.5v-598c0 -22 -3.5 -36.833 -10.5 -44.5s-20.5 -11.5 -40.5 -11.5h-21c-20 0 -33.5 3.83301 -40.5 11.5s-10.5 22.5 -10.5 44.5zM134 57v586
c0 19.333 -2 32 -6 38s-14 9 -30 9h-17c-16 0 -26 -3 -30 -9s-6 -18.667 -6 -38v-586c0 -19.333 2 -32 6 -38s14 -9 30 -9h17c16 0 26 3 30 9s6 18.667 6 38zM89 740c11.333 0 19.5 2.66699 24.5 8s7.5 15 7.5 29h11c0 -18 -3 -31.333 -9 -40s-17.333 -13 -34 -13
s-28 4.33301 -34 13s-9 22 -9 40h11c0 -14 2.5 -23.667 7.5 -29s13.167 -8 24.5 -8z" />
    <glyph glyph-name="obreve" unicode="&#x14f;" horiz-adv-x="163" 
d="M137 543v-498c0 -19.333 -3 -32.5 -9 -39.5s-18 -10.5 -36 -10.5h-21c-18 0 -30 3.5 -36 10.5s-9 20.167 -9 39.5v498c0 19.333 3 32.5 9 39.5s18 10.5 36 10.5h21c18 0 30 -3.5 36 -10.5s9 -20.167 9 -39.5zM42 536v-484c0 -17.333 1.66699 -28.833 5 -34.5
s12 -8.5 26 -8.5h17c14 0 22.667 2.83301 26 8.5s5 17.167 5 34.5v484c0 17.333 -1.66699 28.833 -5 34.5s-12 8.5 -26 8.5h-17c-14 0 -22.667 -2.83301 -26 -8.5s-5 -17.167 -5 -34.5zM81 636c11.333 0 19.5 2.66699 24.5 8s7.5 15 7.5 29h11c0 -18 -3 -31.333 -9 -40
s-17.333 -13 -34 -13s-28 4.33301 -34 13s-9 22 -9 40h11c0 -14 2.5 -23.667 7.5 -29s13.167 -8 24.5 -8z" />
    <glyph glyph-name="Ohungarumlaut" unicode="&#x150;" horiz-adv-x="179" 
d="M28 51v598c0 22 3.5 36.833 10.5 44.5s20.5 11.5 40.5 11.5h21c20 0 33.5 -3.83301 40.5 -11.5s10.5 -22.5 10.5 -44.5v-598c0 -22 -3.5 -36.833 -10.5 -44.5s-20.5 -11.5 -40.5 -11.5h-21c-20 0 -33.5 3.83301 -40.5 11.5s-10.5 22.5 -10.5 44.5zM134 57v586
c0 19.333 -2 32 -6 38s-14 9 -30 9h-17c-16 0 -26 -3 -30 -9s-6 -18.667 -6 -38v-586c0 -19.333 2 -32 6 -38s14 -9 30 -9h17c16 0 26 3 30 9s6 18.667 6 38zM50 716l31 71h21l-41 -71h-11zM98 716l31 71h21l-41 -71h-11z" />
    <glyph glyph-name="ohungarumlaut" unicode="&#x151;" horiz-adv-x="163" 
d="M137 543v-498c0 -19.333 -3 -32.5 -9 -39.5s-18 -10.5 -36 -10.5h-21c-18 0 -30 3.5 -36 10.5s-9 20.167 -9 39.5v498c0 19.333 3 32.5 9 39.5s18 10.5 36 10.5h21c18 0 30 -3.5 36 -10.5s9 -20.167 9 -39.5zM42 536v-484c0 -17.333 1.66699 -28.833 5 -34.5
s12 -8.5 26 -8.5h17c14 0 22.667 2.83301 26 8.5s5 17.167 5 34.5v484c0 17.333 -1.66699 28.833 -5 34.5s-12 8.5 -26 8.5h-17c-14 0 -22.667 -2.83301 -26 -8.5s-5 -17.167 -5 -34.5zM42 612l31 71h21l-41 -71h-11zM90 612l31 71h21l-41 -71h-11z" />
    <glyph glyph-name="OE" unicode="&#x152;" horiz-adv-x="233" 
d="M141 685v-309h68v-15h-68v-346h77v-15h-139c-20 -0 -33.5 3.83301 -40.5 11.5s-10.5 22.5 -10.5 44.5v588c0 22 3.5 36.833 10.5 44.5s20.5 11.5 40.5 11.5h139v-15h-77zM81 15h43v670h-43c-16 0 -26 -3 -30 -9s-6 -18.667 -6 -38v-576c0 -19.333 2 -32 6 -38
s14 -9 30 -9z" />
    <glyph glyph-name="oe" unicode="&#x153;" horiz-adv-x="256" 
d="M216 52v146h15v-153c0 -19.333 -3.16699 -32.5 -9.5 -39.5s-18.166 -10.5 -35.499 -10.5h-14c-25.333 0 -39.666 9.33301 -42.999 28c-3.33301 -18.667 -17.666 -28 -42.999 -28h-15c-18 0 -30 3.5 -36 10.5s-9 20.167 -9 39.5v498c0 19.333 3 32.5 9 39.5
s18 10.5 36 10.5h15c25.333 0 39.666 -9.33301 42.999 -28c3.33301 18.667 17.666 28 42.999 28h14c17.333 0 29.166 -3.5 35.499 -10.5s9.5 -20.167 9.5 -39.5v-251h-94v-240c0 -17.333 1.66699 -28.833 5 -34.5s12 -8.5 26 -8.5h17c14 0 22.667 2.83301 26 8.5
s5 17.167 5 34.5zM42 536v-484c0 -17.333 1.66699 -28.833 5 -34.5s12 -8.5 26 -8.5h17c14 0 22.667 2.83301 26 8.5s5 17.167 5 34.5v484c0 17.333 -1.66699 28.833 -5 34.5s-12 8.5 -26 8.5h-17c-14 0 -22.667 -2.83301 -26 -8.5s-5 -17.167 -5 -34.5zM137 536v-230h79
v230c0 17.333 -1.66699 28.833 -5 34.5s-12 8.5 -26 8.5h-17c-14 0 -22.667 -2.83301 -26 -8.5s-5 -17.167 -5 -34.5z" />
    <glyph glyph-name="Racute" unicode="&#x154;" horiz-adv-x="181" 
d="M153 305v-238.001c0 -29.333 2 -51.666 6 -66.999h-18c-3.33301 8 -5 27.667 -5 59v243c0 18.667 -2.33301 31.5 -7 38.5s-15 10.5 -31 10.5h-51v-351h-17v700h72c20 0 33.5 -3.83301 40.5 -11.5s10.5 -22.5 10.5 -44.5v-233c0 -16.667 -1.83301 -29 -5.5 -37
s-10.5 -13.333 -20.5 -16c17.333 -4 26 -21.667 26 -53zM136 412.999v225c0 19.333 -2 32 -6 38s-14 9 -30 9h-53v-319h53c16 0 26 3 30 9s6 18.667 6 38zM74 715.999l31 71h21l-41 -71h-11z" />
    <glyph glyph-name="racute" unicode="&#x155;" horiz-adv-x="92" 
d="M44 0h-16v588h14v-33c5.33301 25.333 18.333 38 39 38h5v-16h-5c-24.667 0 -37 -21.667 -37 -65v-512zM33 612l31 71h21l-41 -71h-11z" />
    <glyph glyph-name="uni0156" unicode="&#x156;" horiz-adv-x="181" 
d="M153 305v-238.001c0 -29.333 2 -51.666 6 -66.999h-18c-3.33301 8 -5 27.667 -5 59v243c0 18.667 -2.33301 31.5 -7 38.5s-15 10.5 -31 10.5h-51v-351h-17v700h72c20 0 33.5 -3.83301 40.5 -11.5s10.5 -22.5 10.5 -44.5v-233c0 -16.667 -1.83301 -29 -5.5 -37
s-10.5 -13.333 -20.5 -16c17.333 -4 26 -21.667 26 -53zM136 412.999v225c0 19.333 -2 32 -6 38s-14 9 -30 9h-53v-319h53c16 0 26 3 30 9s6 18.667 6 38zM83 -76.001v26h20v-26l-17 -42l-4 2l10 40h-9z" />
    <glyph glyph-name="uni0157" unicode="&#x157;" horiz-adv-x="92" 
d="M44 0h-16v588h14v-33c5.33301 25.333 18.333 38 39 38h5v-16h-5c-24.667 0 -37 -21.667 -37 -65v-512zM26 -76v26h20v-26l-17 -42l-4 2l10 40h-9z" />
    <glyph glyph-name="Rcaron" unicode="&#x158;" horiz-adv-x="181" 
d="M153 305v-238.001c0 -29.333 2 -51.666 6 -66.999h-18c-3.33301 8 -5 27.667 -5 59v243c0 18.667 -2.33301 31.5 -7 38.5s-15 10.5 -31 10.5h-51v-351h-17v700h72c20 0 33.5 -3.83301 40.5 -11.5s10.5 -22.5 10.5 -44.5v-233c0 -16.667 -1.83301 -29 -5.5 -37
s-10.5 -13.333 -20.5 -16c17.333 -4 26 -21.667 26 -53zM136 412.999v225c0 19.333 -2 32 -6 38s-14 9 -30 9h-53v-319h53c16 0 26 3 30 9s6 18.667 6 38zM128 786.999l-34 -71h-12l-34 71h11l29 -49l29 49h11z" />
    <glyph glyph-name="rcaron" unicode="&#x159;" horiz-adv-x="92" 
d="M44 0h-16v588h14v-33c5.33301 25.333 18.333 38 39 38h5v-16h-5c-24.667 0 -37 -21.667 -37 -65v-512zM88 683l-34 -71h-12l-34 71h11l29 -49l29 49h11z" />
    <glyph glyph-name="Sacute" unicode="&#x15a;" horiz-adv-x="172" 
d="M128 57l0.000976562 153c0 31.333 -2.5 54.833 -7.5 70.5s-17.833 38.834 -38.5 69.501c-24.667 36.667 -40 64 -46 82s-9 44.667 -9 80v137c0 22 3.5 36.833 10.5 44.5s20.5 11.5 40.5 11.5h16c20 0 33.5 -3.83301 40.5 -11.5s10.5 -22.5 10.5 -44.5v-211h-16v205
c0 19.333 -2 32 -6 38s-14 9 -30 9h-13c-16 0 -26 -3 -30 -9s-6 -18.667 -6 -38v-135c0 -31.333 2.5 -54.833 7.5 -70.5s17.833 -38.834 38.5 -69.501c24.667 -36.667 40 -64 46 -82s9 -44.667 9 -80v-155c0 -22 -3.33301 -36.833 -10 -44.5s-20.334 -11.5 -41.001 -11.5
h-16c-20 0 -33.5 3.83301 -40.5 11.5s-10.5 22.5 -10.5 44.5v231h16v-225c0 -19.333 2 -32 6 -38s14 -9 30 -9h13c16 0 26 3 30 9s6 18.667 6 38zM71.001 716l31 71h21l-41 -71h-11z" />
    <glyph glyph-name="sacute" unicode="&#x15b;" horiz-adv-x="156" 
d="M117 52v119c0 27.333 -2.5 48 -7.5 62s-16.833 33 -35.5 57c-22 27.333 -36 49.333 -42 66s-9 40 -9 70v117c0 19.333 3 32.5 9 39.5s18 10.5 36 10.5h20c18 0 30 -3.5 36 -10.5s9 -20.167 9 -39.5v-154h-15v147c0 17.333 -1.66699 28.833 -5 34.5s-12 8.5 -26 8.5h-17
c-14 0 -22.667 -2.83301 -26 -8.5s-5 -17.167 -5 -34.5v-110c0 -27.333 2.5 -48.333 7.5 -63s16.833 -33.667 35.5 -57c22 -27.333 36 -49.333 42 -66s9 -40 9 -70v-125c0 -19.333 -3 -32.5 -9 -39.5s-18 -10.5 -36 -10.5h-20c-18 0 -30 3.5 -36 10.5s-9 20.167 -9 39.5v164
h15v-157c0 -17.333 1.83301 -28.833 5.5 -34.5s12.5 -8.5 26.5 -8.5h15c14 0 22.833 2.83301 26.5 8.5s5.5 17.167 5.5 34.5zM63 612l31 71h21l-41 -71h-11z" />
    <glyph glyph-name="Scircumflex" unicode="&#x15c;" horiz-adv-x="172" 
d="M128 57l0.000976562 153c0 31.333 -2.5 54.833 -7.5 70.5s-17.833 38.834 -38.5 69.501c-24.667 36.667 -40 64 -46 82s-9 44.667 -9 80v137c0 22 3.5 36.833 10.5 44.5s20.5 11.5 40.5 11.5h16c20 0 33.5 -3.83301 40.5 -11.5s10.5 -22.5 10.5 -44.5v-211h-16v205
c0 19.333 -2 32 -6 38s-14 9 -30 9h-13c-16 0 -26 -3 -30 -9s-6 -18.667 -6 -38v-135c0 -31.333 2.5 -54.833 7.5 -70.5s17.833 -38.834 38.5 -69.501c24.667 -36.667 40 -64 46 -82s9 -44.667 9 -80v-155c0 -22 -3.33301 -36.833 -10 -44.5s-20.334 -11.5 -41.001 -11.5
h-16c-20 0 -33.5 3.83301 -40.5 11.5s-10.5 22.5 -10.5 44.5v231h16v-225c0 -19.333 2 -32 6 -38s14 -9 30 -9h13c16 0 26 3 30 9s6 18.667 6 38zM92.001 787l35 -71h-11l-30 49l-30 -49h-11l35 71h12z" />
    <glyph glyph-name="scircumflex" unicode="&#x15d;" horiz-adv-x="156" 
d="M117 52v119c0 27.333 -2.5 48 -7.5 62s-16.833 33 -35.5 57c-22 27.333 -36 49.333 -42 66s-9 40 -9 70v117c0 19.333 3 32.5 9 39.5s18 10.5 36 10.5h20c18 0 30 -3.5 36 -10.5s9 -20.167 9 -39.5v-154h-15v147c0 17.333 -1.66699 28.833 -5 34.5s-12 8.5 -26 8.5h-17
c-14 0 -22.667 -2.83301 -26 -8.5s-5 -17.167 -5 -34.5v-110c0 -27.333 2.5 -48.333 7.5 -63s16.833 -33.667 35.5 -57c22 -27.333 36 -49.333 42 -66s9 -40 9 -70v-125c0 -19.333 -3 -32.5 -9 -39.5s-18 -10.5 -36 -10.5h-20c-18 0 -30 3.5 -36 10.5s-9 20.167 -9 39.5v164
h15v-157c0 -17.333 1.83301 -28.833 5.5 -34.5s12.5 -8.5 26.5 -8.5h15c14 0 22.833 2.83301 26.5 8.5s5.5 17.167 5.5 34.5zM84 683l35 -71h-11l-30 49l-30 -49h-11l35 71h12z" />
    <glyph glyph-name="Scedilla" unicode="&#x15e;" horiz-adv-x="172" 
d="M103 -64c0 10 -1.66699 17.001 -5 21.001s-9.66602 5.33301 -18.999 4v34h-1c-20 0 -33.5 3.83301 -40.5 11.5s-10.5 22.5 -10.5 44.5v231h16v-225c0 -19.333 2 -32 6 -38s14 -9 30 -9h13c16 0 26 3 30 9s6 18.667 6 38v153c0 31.333 -2.5 54.833 -7.5 70.5
s-17.833 38.834 -38.5 69.501c-24.667 36.667 -40 64 -46 82s-9 44.667 -9 80v137c0 22 3.5 36.833 10.5 44.5s20.5 11.5 40.5 11.5h16c20 0 33.5 -3.83301 40.5 -11.5s10.5 -22.5 10.5 -44.5v-211h-16v205c0 19.333 -2 32 -6 38s-14 9 -30 9h-13c-16 0 -26 -3 -30 -9
s-6 -18.667 -6 -38v-135c0 -31.333 2.5 -54.833 7.5 -70.5s17.833 -38.834 38.5 -69.501c24.667 -36.667 40 -64 46 -82s9 -44.667 9 -80v-155c0 -22 -3.33301 -36.833 -10 -44.5s-20.334 -11.5 -41.001 -11.5h-8v-22c20.667 0 31 -11.667 31 -35c0 -24 -10.333 -36 -31 -36
c-12 0 -20.167 2.83301 -24.5 8.5s-6.5 15.167 -6.5 28.5h15c-1.33301 -10.667 -1 -17.834 1 -21.501s7 -5.5 15 -5.5c11.333 0 17 8 17 24z" />
    <glyph glyph-name="scedilla" unicode="&#x15f;" horiz-adv-x="156" 
d="M94 -64c0 10 -1.66797 17.001 -5.00098 21.001s-9.66602 5.33301 -18.999 4v34h-2c-18 0 -30 3.5 -36 10.5s-9 20.167 -9 39.5v164h15v-157c0 -17.333 1.83301 -28.833 5.5 -34.5s12.5 -8.5 26.5 -8.5h15c14 0 22.833 2.83301 26.5 8.5s5.5 17.167 5.5 34.5v119
c0 27.333 -2.5 48 -7.5 62s-16.833 33 -35.5 57c-22 27.333 -36 49.333 -42 66s-9 40 -9 70v117c0 19.333 3 32.5 9 39.5s18 10.5 36 10.5h20c18 0 30 -3.5 36 -10.5s9 -20.167 9 -39.5v-154h-15v147c0 17.333 -1.66699 28.833 -5 34.5s-12 8.5 -26 8.5h-17
c-14 0 -22.667 -2.83301 -26 -8.5s-5 -17.167 -5 -34.5v-110c0 -27.333 2.5 -48.333 7.5 -63s16.833 -33.667 35.5 -57c22 -27.333 36 -49.333 42 -66s9 -40 9 -70v-125c0 -19.333 -3 -32.5 -9 -39.5s-18 -10.5 -36 -10.5h-11v-22c20.667 0 31 -11.667 31 -35
c0 -24 -10.333 -36 -31 -36c-12 0 -20.167 2.83301 -24.5 8.5s-6.5 15.167 -6.5 28.5h15c-1.33301 -10.667 -1 -17.834 1 -21.501s7 -5.5 15 -5.5c11.333 0 17 8 17 24z" />
    <glyph glyph-name="Scaron" unicode="&#x160;" horiz-adv-x="172" 
d="M128 57l0.000976562 153c0 31.333 -2.5 54.833 -7.5 70.5s-17.833 38.834 -38.5 69.501c-24.667 36.667 -40 64 -46 82s-9 44.667 -9 80v137c0 22 3.5 36.833 10.5 44.5s20.5 11.5 40.5 11.5h16c20 0 33.5 -3.83301 40.5 -11.5s10.5 -22.5 10.5 -44.5v-211h-16v205
c0 19.333 -2 32 -6 38s-14 9 -30 9h-13c-16 0 -26 -3 -30 -9s-6 -18.667 -6 -38v-135c0 -31.333 2.5 -54.833 7.5 -70.5s17.833 -38.834 38.5 -69.501c24.667 -36.667 40 -64 46 -82s9 -44.667 9 -80v-155c0 -22 -3.33301 -36.833 -10 -44.5s-20.334 -11.5 -41.001 -11.5
h-16c-20 0 -33.5 3.83301 -40.5 11.5s-10.5 22.5 -10.5 44.5v231h16v-225c0 -19.333 2 -32 6 -38s14 -9 30 -9h13c16 0 26 3 30 9s6 18.667 6 38zM126.001 787l-34 -71h-12l-34 71h11l29 -49l29 49h11z" />
    <glyph glyph-name="scaron" unicode="&#x161;" horiz-adv-x="156" 
d="M117 52v119c0 27.333 -2.5 48 -7.5 62s-16.833 33 -35.5 57c-22 27.333 -36 49.333 -42 66s-9 40 -9 70v117c0 19.333 3 32.5 9 39.5s18 10.5 36 10.5h20c18 0 30 -3.5 36 -10.5s9 -20.167 9 -39.5v-154h-15v147c0 17.333 -1.66699 28.833 -5 34.5s-12 8.5 -26 8.5h-17
c-14 0 -22.667 -2.83301 -26 -8.5s-5 -17.167 -5 -34.5v-110c0 -27.333 2.5 -48.333 7.5 -63s16.833 -33.667 35.5 -57c22 -27.333 36 -49.333 42 -66s9 -40 9 -70v-125c0 -19.333 -3 -32.5 -9 -39.5s-18 -10.5 -36 -10.5h-20c-18 0 -30 3.5 -36 10.5s-9 20.167 -9 39.5v164
h15v-157c0 -17.333 1.83301 -28.833 5.5 -34.5s12.5 -8.5 26.5 -8.5h15c14 0 22.833 2.83301 26.5 8.5s5.5 17.167 5.5 34.5zM118 683l-34 -71h-12l-34 71h11l29 -49l29 49h11z" />
    <glyph glyph-name="uni0162" unicode="&#x162;" horiz-adv-x="115" 
d="M74 -64c0 10 -1.66797 17.001 -5.00098 21.001s-9.66602 5.33301 -18.999 4v39h-1v685h-43v15h103v-15h-43v-685h-9v-27c20.667 0 31 -11.667 31 -35c0 -24 -10.333 -36 -31 -36c-12 0 -20.167 2.83301 -24.5 8.5s-6.5 15.167 -6.5 28.5h15
c-1.33301 -10.667 -1 -17.834 1 -21.501s7 -5.5 15 -5.5c11.333 0 17 8 17 24z" />
    <glyph glyph-name="uni0163" unicode="&#x163;" horiz-adv-x="88" 
d="M61 -64c0 10 -1.66797 17 -5.00098 21s-9.66602 5.33301 -18.999 4v41c-3.33301 10.667 -5 30.334 -5 59.001v513h-26v14h26v85h16v-85h34v-14h-34v-505c0 -30.667 2.66699 -53.667 8 -69h-12v-27c20.667 0 31 -11.667 31 -35c0 -24 -10.333 -36 -31 -36
c-12 0 -20.167 2.83301 -24.5 8.5s-6.5 15.167 -6.5 28.5h15c-1.33301 -10.667 -1 -17.834 1 -21.501s7 -5.5 15 -5.5c11.333 0 17 8 17 24z" />
    <glyph glyph-name="Tcaron" unicode="&#x164;" horiz-adv-x="115" 
d="M66 0h-17v685h-43v15h103v-15h-43v-685zM97 787l-34 -71h-12l-34 71h11l29 -49l29 49h11z" />
    <glyph glyph-name="tcaron" unicode="&#x165;" horiz-adv-x="108" 
d="M6 574v14.001h26v85h16v-85h34v-14h-34v-505c0 -30.667 2.66699 -53.667 8 -69h-18c-4 9.33301 -6 29.666 -6 60.999v513h-26zM88 665.001v35h19v-35l-16 -52l-4 1l10 51h-9z" />
    <glyph glyph-name="Tbar" unicode="&#x166;" horiz-adv-x="115" 
d="M66 0h-17v532h-33v14h33v139h-43v15h103v-15h-43v-139h33v-14h-33v-532z" />
    <glyph glyph-name="tbar" unicode="&#x167;" horiz-adv-x="88" 
d="M6 574v14.001h26v85h16v-85h34v-14h-34v-73h34v-14h-34v-418c0 -30.667 2.66699 -53.667 8 -69h-18c-4 9.33301 -6 29.666 -6 60.999v426h-26v14h26v73h-26z" />
    <glyph glyph-name="Utilde" unicode="&#x168;" horiz-adv-x="180" 
d="M128 762h10.001c0 -12.667 -2 -21.334 -6 -26.001s-10.667 -7 -20 -7c-8 0 -16.833 3.16699 -26.5 9.5s-16.167 9.5 -19.5 9.5c-8.66699 0 -13 -6.33301 -13 -19h-11c0 12.667 2.16699 21.334 6.5 26.001s11.166 7 20.499 7c7.33301 0 16 -3.16699 26 -9.5
s16.667 -9.5 20 -9.5c8.66699 0 13 6.33301 13 19zM46.001 700v-643c0 -19.333 2 -32 6 -38s14 -9 30 -9h17c16 0 26 3 30 9s6 18.667 6 38v643h16v-649c0 -22 -3.5 -36.833 -10.5 -44.5s-20.5 -11.5 -40.5 -11.5h-20c-20 0 -33.5 3.83301 -40.5 11.5s-10.5 22.5 -10.5 44.5
v649h17z" />
    <glyph glyph-name="utilde" unicode="&#x169;" 
d="M138 51c0 -22 1.00098 -39 3.00098 -51h-14c-2 5.33301 -3 14 -3 26c-6.66699 -20.667 -21.334 -31 -44.001 -31h-10c-16.667 0 -28 3.5 -34 10.5s-9 19.5 -9 37.5v545h16v-539c0 -16 1.66699 -26.667 5 -32s11.333 -8 24 -8h13c24.667 0 37 17.667 37 53v526h16v-537z
M121.001 658h10.001c0 -12.667 -2 -21.334 -6 -26.001s-10.667 -7 -20 -7c-8 0 -16.833 3.16699 -26.5 9.5s-16.167 9.5 -19.5 9.5c-8.66699 0 -13 -6.33301 -13 -19h-11c0 12.667 2.16699 21.334 6.5 26.001s11.166 7 20.499 7c7.33301 0 16 -3.16699 26 -9.5
s16.667 -9.5 20 -9.5c8.66699 0 13 6.33301 13 19z" />
    <glyph glyph-name="Umacron" unicode="&#x16a;" horiz-adv-x="180" 
d="M46 700v-643c0 -19.333 2 -32 6 -38s14 -9 30 -9h17c16 0 26 3 30 9s6 18.667 6 38v643h16v-649c0 -22 -3.5 -36.833 -10.5 -44.5s-20.5 -11.5 -40.5 -11.5h-20c-20 0 -33.5 3.83301 -40.5 11.5s-10.5 22.5 -10.5 44.5v649h17zM131 738h-83v14h83v-14z" />
    <glyph glyph-name="umacron" unicode="&#x16b;" 
d="M138 51c0 -22 1.00098 -39 3.00098 -51h-14c-2 5.33301 -3 14 -3 26c-6.66699 -20.667 -21.334 -31 -44.001 -31h-10c-16.667 0 -28 3.5 -34 10.5s-9 19.5 -9 37.5v545h16v-539c0 -16 1.66699 -26.667 5 -32s11.333 -8 24 -8h13c24.667 0 37 17.667 37 53v526h16v-537z
M124.001 634h-83v14h83v-14z" />
    <glyph glyph-name="Ubreve" unicode="&#x16c;" horiz-adv-x="180" 
d="M46 700v-643c0 -19.333 2 -32 6 -38s14 -9 30 -9h17c16 0 26 3 30 9s6 18.667 6 38v643h16v-649c0 -22 -3.5 -36.833 -10.5 -44.5s-20.5 -11.5 -40.5 -11.5h-20c-20 0 -33.5 3.83301 -40.5 11.5s-10.5 22.5 -10.5 44.5v649h17zM90 740c11.333 0 19.5 2.66699 24.5 8
s7.5 15 7.5 29h11c0 -18 -3 -31.333 -9 -40s-17.333 -13 -34 -13s-28 4.33301 -34 13s-9 22 -9 40h11c0 -14 2.5 -23.667 7.5 -29s13.167 -8 24.5 -8z" />
    <glyph glyph-name="ubreve" unicode="&#x16d;" 
d="M138 51c0 -22 1.00098 -39 3.00098 -51h-14c-2 5.33301 -3 14 -3 26c-6.66699 -20.667 -21.334 -31 -44.001 -31h-10c-16.667 0 -28 3.5 -34 10.5s-9 19.5 -9 37.5v545h16v-539c0 -16 1.66699 -26.667 5 -32s11.333 -8 24 -8h13c24.667 0 37 17.667 37 53v526h16v-537z
M83.001 636c11.333 0 19.5 2.66699 24.5 8s7.5 15 7.5 29h11c0 -18 -3 -31.333 -9 -40s-17.333 -13 -34 -13s-28 4.33301 -34 13s-9 22 -9 40h11c0 -14 2.5 -23.667 7.5 -29s13.167 -8 24.5 -8z" />
    <glyph glyph-name="Uring" unicode="&#x16e;" horiz-adv-x="180" 
d="M107 751c0 12 -5.66699 18 -17 18s-17 -6 -17 -18s5.66699 -18 17 -18s17 6 17 18zM61 751c0 8 2.83301 15 8.5 21s12.5 9 20.5 9s14.833 -3 20.5 -9s8.5 -13 8.5 -21s-2.83301 -15 -8.5 -21s-12.5 -9 -20.5 -9s-14.833 3 -20.5 9s-8.5 13 -8.5 21zM46 700v-643
c0 -19.333 2 -32 6 -38s14 -9 30 -9h17c16 0 26 3 30 9s6 18.667 6 38v643h16v-649c0 -22 -3.5 -36.833 -10.5 -44.5s-20.5 -11.5 -40.5 -11.5h-20c-20 0 -33.5 3.83301 -40.5 11.5s-10.5 22.5 -10.5 44.5v649h17z" />
    <glyph glyph-name="uring" unicode="&#x16f;" 
d="M138 51c0 -22 1.00098 -39 3.00098 -51h-14c-2 5.33301 -3 14 -3 26c-6.66699 -20.667 -21.334 -31 -44.001 -31h-10c-16.667 0 -28 3.5 -34 10.5s-9 19.5 -9 37.5v545h16v-539c0 -16 1.66699 -26.667 5 -32s11.333 -8 24 -8h13c24.667 0 37 17.667 37 53v526h16v-537z
M100.001 647c0 12 -5.66699 18 -17 18s-17 -6 -17 -18s5.66699 -18 17 -18s17 6 17 18zM54.001 647c0 8 2.83301 15 8.5 21s12.5 9 20.5 9s14.833 -3 20.5 -9s8.5 -13 8.5 -21s-2.83301 -15 -8.5 -21s-12.5 -9 -20.5 -9s-14.833 3 -20.5 9s-8.5 13 -8.5 21z" />
    <glyph glyph-name="Uhungarumlaut" unicode="&#x170;" horiz-adv-x="180" 
d="M46 700v-643c0 -19.333 2 -32 6 -38s14 -9 30 -9h17c16 0 26 3 30 9s6 18.667 6 38v643h16v-649c0 -22 -3.5 -36.833 -10.5 -44.5s-20.5 -11.5 -40.5 -11.5h-20c-20 0 -33.5 3.83301 -40.5 11.5s-10.5 22.5 -10.5 44.5v649h17zM50 716l31 71h21l-41 -71h-11zM98 716
l31 71h21l-41 -71h-11z" />
    <glyph glyph-name="uhungarumlaut" unicode="&#x171;" 
d="M138 51c0 -22 1.00098 -39 3.00098 -51h-14c-2 5.33301 -3 14 -3 26c-6.66699 -20.667 -21.334 -31 -44.001 -31h-10c-16.667 0 -28 3.5 -34 10.5s-9 19.5 -9 37.5v545h16v-539c0 -16 1.66699 -26.667 5 -32s11.333 -8 24 -8h13c24.667 0 37 17.667 37 53v526h16v-537z
M43.001 612l31 71h21l-41 -71h-11zM91.001 612l31 71h21l-41 -71h-11z" />
    <glyph glyph-name="Uogonek" unicode="&#x172;" horiz-adv-x="180" 
d="M151 -81v-11.999c-6.66699 -3.33301 -14.334 -5 -23.001 -5c-13.333 0 -22.666 2.83301 -27.999 8.5s-8 15.167 -8 28.5c0 17.333 10 36.666 30 57.999c-4 -1.33301 -11.333 -2 -22 -2h-20c-20 0 -33.5 3.83301 -40.5 11.5s-10.5 22.5 -10.5 44.5v649h17v-643
c0 -19.333 2 -32 6 -38s14 -9 30 -9h17c16 0 26 3 30 9s6 18.667 6 38v643h16v-649c0 -20.667 -3 -35 -9 -43l-18 -22.5c-3.33301 -4.33301 -6.83301 -10.833 -10.5 -19.5s-5.5 -17.667 -5.5 -27c0 -16.667 7 -25 21 -25c10 0 17.333 1.66699 22 5z" />
    <glyph glyph-name="uogonek" unicode="&#x173;" 
d="M141 -81l0.000976562 -12c-6.66699 -3.33301 -14.334 -5 -23.001 -5c-13.333 0 -22.666 2.83301 -27.999 8.5s-8 15.167 -8 28.5c0 24 14.667 45 44 63c-1.33301 3.33301 -2 11.333 -2 24c-6.66699 -20.667 -21.334 -31 -44.001 -31h-10c-16.667 0 -28 3.5 -34 10.5
s-9 19.5 -9 37.5v545h16v-539c0 -16 1.66699 -26.667 5 -32s11.333 -8 24 -8h13c24.667 0 37 17.667 37 53v526h16v-537c0 -22 1 -39 3 -51h-11c-21.333 -16.667 -32 -37 -32 -61c0 -16.667 7 -25 21 -25c10 0 17.333 1.66699 22 5z" />
    <glyph glyph-name="Wcircumflex" unicode="&#x174;" horiz-adv-x="249" 
d="M111 419l-29.001 -419.001h-18l-48 700h17l28 -400c6.66699 -95.333 11 -178.666 13 -249.999c1.33301 58 6 141.333 14 250l28 400h20l28 -400c8 -108.667 12.667 -192 14 -250c0.666992 37.333 5.33398 120.333 14.001 249l27 401h15l-48 -700h-18l-29 419
c-8 115.333 -12.667 203.666 -14 264.999c-1.33301 -61.333 -6 -149.666 -14 -264.999zM129.999 786.999l35 -71h-11l-30 49l-30 -49h-11l35 71h12z" />
    <glyph glyph-name="wcircumflex" unicode="&#x175;" horiz-adv-x="230" 
d="M102 374l-32.002 -374.002h-19l-43 588h16l24 -323c6.66699 -84 11.334 -163.333 14.001 -238c0.666992 32.667 6 112 16 238l29 323h17l29 -323c9.33301 -113.333 14.666 -192.666 15.999 -237.999c0.666992 54 5.33398 133.333 14.001 238l25 323h14l-44 -588h-19
l-31 374c-8 100.667 -12.333 163 -13 187c-1.33301 -33.333 -5.66602 -95.666 -12.999 -186.999zM120.998 682.998l35 -71h-11l-30 49l-30 -49h-11l35 71h12z" />
    <glyph glyph-name="Ycircumflex" unicode="&#x176;" horiz-adv-x="151" 
d="M85 0h-17v267l-60 433h17l30 -213c10.667 -75.333 18 -139 22 -191c3.33301 41.333 11 105 23 191l29 213h15l-59 -433v-267zM83 787l35 -71h-11l-30 49l-30 -49h-11l35 71h12z" />
    <glyph glyph-name="ycircumflex" unicode="&#x177;" horiz-adv-x="144" 
d="M77 -45c-2.66699 -26.667 -15.667 -40 -39 -40h-20v14h19c14 0 22 9 24 27l2 26l-56 606h16l31 -323c10.667 -109.333 17 -188.666 19 -237.999c2 49.333 8.33301 128.666 19 237.999l31 323h14zM79 683l35 -71h-11l-30 49l-30 -49h-11l35 71h12z" />
    <glyph glyph-name="Ydieresis" unicode="&#x178;" horiz-adv-x="151" 
d="M85 0h-17v267l-60 433h17l30 -213c10.667 -75.333 18 -139 22 -191c3.33301 41.333 11 105 23 191l29 213h15l-59 -433v-267zM112 738h-18v25h18v-25zM61 738h-18v25h18v-25z" />
    <glyph glyph-name="Zacute" unicode="&#x179;" horiz-adv-x="134" 
d="M19 685v15h100v-14l-88 -671h88v-15h-105v14l88 671h-83zM55 716l31 71h21l-41 -71h-11z" />
    <glyph glyph-name="zacute" unicode="&#x17a;" horiz-adv-x="127" 
d="M20 574v14h93v-13l-82 -561h82v-14h-98v13l82 561h-77zM51 612l31 71h21l-41 -71h-11z" />
    <glyph glyph-name="Zdotaccent" unicode="&#x17b;" horiz-adv-x="134" 
d="M19 685v15h100v-14l-88 -671h88v-15h-105v14l88 671h-83zM79 738h-20v25h20v-25z" />
    <glyph glyph-name="zdotaccent" unicode="&#x17c;" horiz-adv-x="127" 
d="M20 574v14h93v-13l-82 -561h82v-14h-98v13l82 561h-77zM75 634h-20v25h20v-25z" />
    <glyph glyph-name="Zcaron" unicode="&#x17d;" horiz-adv-x="134" 
d="M19 685v15h100v-14l-88 -671h88v-15h-105v14l88 671h-83zM109 787l-34 -71h-12l-34 71h11l29 -49l29 49h11z" />
    <glyph glyph-name="zcaron" unicode="&#x17e;" horiz-adv-x="127" 
d="M20 574v14h93v-13l-82 -561h82v-14h-98v13l82 561h-77zM105 683l-34 -71h-12l-34 71h11l29 -49l29 49h11z" />
    <glyph glyph-name="florin" unicode="&#x192;" 
d="M48 574l1.00195 14h28l4 62c1.33301 19.333 5.33301 32.5 12 39.5s18.667 10.5 36 10.5h16l-1 -14h-13c-12.667 0 -21.334 -2.16699 -26.001 -6.5s-7.33398 -14.833 -8.00098 -31.5l-4 -60h42l-2 -14h-41l-45 -667h-16l45 667h-28z" />
    <glyph glyph-name="AEacute" unicode="&#x1fc;" horiz-adv-x="209" 
d="M9 0l85 700h100v-15h-77v-309h68v-15h-68v-346h77v-15h-94v120h-62l-14 -120h-15zM72 400l-32 -266h60v512c-10.667 -101.333 -20 -183.333 -28 -246zM90 716l31 71h21l-41 -71h-11z" />
    <glyph glyph-name="aeacute" unicode="&#x1fd;" horiz-adv-x="253" 
d="M23 224c0 25.333 3.00391 44.333 9.00391 57s18.333 27 37 43c21.333 18.667 34.5 32.667 39.5 42s7.5 24.333 7.5 45v125c0 17.333 -1.66699 28.833 -5 34.5s-12 8.5 -26 8.5h-14c-14 0 -22.667 -2.83301 -26 -8.5s-5 -17.167 -5 -34.5v-147h-15v154
c0 19.333 3.16699 32.5 9.5 39.5s18.166 10.5 35.499 10.5h11c25.333 0 39.666 -8.66699 42.999 -26c3.33301 17.333 17.666 26 42.999 26h13c18 0 30.167 -3.5 36.5 -10.5s9.5 -20.167 9.5 -39.5v-251h-94v-240c0 -17.333 1.66699 -28.833 5 -34.5s12 -8.5 26 -8.5h17
c14 0 22.667 2.83301 26 8.5s5 17.167 5 34.5v146h15v-153c0 -19.333 -3 -32.5 -9 -39.5s-18 -10.5 -36 -10.5h-20c-14.667 0 -25.334 2.16699 -32.001 6.5s-10.667 11.833 -12 22.5c-6.66699 -19.333 -21 -29 -43 -29h-8c-16.667 0 -28 3.5 -34 10.5s-9 19.5 -9 37.5v181z
M68.0039 9h11c24.667 0 37 17.667 37 53v294c-4.66699 -10.667 -16.667 -24 -36 -40c-18.667 -16 -30.167 -29.333 -34.5 -40s-6.5 -27.667 -6.5 -51v-176c0 -16 1.66699 -26.667 5 -32s11.333 -8 24 -8zM211.004 306v230c0 17.333 -1.66699 28.833 -5 34.5s-12 8.5 -26 8.5
h-17c-14 0 -22.667 -2.83301 -26 -8.5s-5 -17.167 -5 -34.5v-230h79zM112.004 612l31 71h21l-41 -71h-11z" />
    <glyph glyph-name="Oslashacute" unicode="&#x1fe;" horiz-adv-x="179" 
d="M28 51l-0.000976562 598c0 22 3.5 36.833 10.5 44.5s20.5 11.5 40.5 11.5h21c14.667 0 25.334 -2 32.001 -6l5 31h14l-7 -43c4.66699 -7.33301 7 -20 7 -38v-598c0 -22 -3.5 -36.833 -10.5 -44.5s-20.5 -11.5 -40.5 -11.5h-21c-13.333 0 -24.333 1.66699 -33 5l-4 -30
h-14l6 42c-4 9.33301 -6 22.333 -6 39zM44.999 643l-0.000976562 -556l84 592c-3.33301 7.33301 -13.666 11 -30.999 11h-17c-16 0 -26 -3 -30 -9s-6 -18.667 -6 -38zM133.998 57l-0.000976562 556l-85 -592c4.66699 -7.33301 15.334 -11 32.001 -11h17c16 0 26 3 30 9
s6 18.667 6 38zM74.9971 716l31 71h21l-41 -71h-11z" />
    <glyph glyph-name="oslashacute" unicode="&#x1ff;" horiz-adv-x="163" 
d="M137 543v-498c0 -19.333 -3 -32.5 -9 -39.5s-18 -10.5 -36 -10.5h-21c-12 0 -21 1.33301 -27 4l-4 -29h-14l6 39c-4 6.66699 -6 18.667 -6 36v498c0 19.333 3 32.5 9 39.5s18 10.5 36 10.5h21c11.333 0 20 -1.33301 26 -4l5 34h14l-7 -44
c4.66699 -7.33301 7 -19.333 7 -36zM90 9c14 0 22.666 2.83301 25.999 8.5s5 17.167 5 34.5v465l-74 -500c4.66699 -5.33301 13.334 -8 26.001 -8h17zM41.999 536v-460l73 495c-4.66699 5.33301 -13 8 -25 8h-17c-14 0 -22.667 -2.83301 -26 -8.5s-5 -17.167 -5 -34.5z
M66.999 612l31 71h21l-41 -71h-11z" />
    <glyph glyph-name="uni0218" unicode="&#x218;" horiz-adv-x="172" 
d="M128 57l0.000976562 153c0 31.333 -2.5 54.833 -7.5 70.5s-17.833 38.834 -38.5 69.501c-24.667 36.667 -40 64 -46 82s-9 44.667 -9 80v137c0 22 3.5 36.833 10.5 44.5s20.5 11.5 40.5 11.5h16c20 0 33.5 -3.83301 40.5 -11.5s10.5 -22.5 10.5 -44.5v-211h-16v205
c0 19.333 -2 32 -6 38s-14 9 -30 9h-13c-16 0 -26 -3 -30 -9s-6 -18.667 -6 -38v-135c0 -31.333 2.5 -54.833 7.5 -70.5s17.833 -38.834 38.5 -69.501c24.667 -36.667 40 -64 46 -82s9 -44.667 9 -80v-155c0 -22 -3.33301 -36.833 -10 -44.5s-20.334 -11.5 -41.001 -11.5
h-16c-20 0 -33.5 3.83301 -40.5 11.5s-10.5 22.5 -10.5 44.5v231h16v-225c0 -19.333 2 -32 6 -38s14 -9 30 -9h13c16 0 26 3 30 9s6 18.667 6 38zM76.001 -76v26h20v-26l-17 -42l-4 2l10 40h-9z" />
    <glyph glyph-name="uni0219" unicode="&#x219;" horiz-adv-x="156" 
d="M117 52v119c0 27.333 -2.5 48 -7.5 62s-16.833 33 -35.5 57c-22 27.333 -36 49.333 -42 66s-9 40 -9 70v117c0 19.333 3 32.5 9 39.5s18 10.5 36 10.5h20c18 0 30 -3.5 36 -10.5s9 -20.167 9 -39.5v-154h-15v147c0 17.333 -1.66699 28.833 -5 34.5s-12 8.5 -26 8.5h-17
c-14 0 -22.667 -2.83301 -26 -8.5s-5 -17.167 -5 -34.5v-110c0 -27.333 2.5 -48.333 7.5 -63s16.833 -33.667 35.5 -57c22 -27.333 36 -49.333 42 -66s9 -40 9 -70v-125c0 -19.333 -3 -32.5 -9 -39.5s-18 -10.5 -36 -10.5h-20c-18 0 -30 3.5 -36 10.5s-9 20.167 -9 39.5v164
h15v-157c0 -17.333 1.83301 -28.833 5.5 -34.5s12.5 -8.5 26.5 -8.5h15c14 0 22.833 2.83301 26.5 8.5s5.5 17.167 5.5 34.5zM67 -76v26h20v-26l-17 -42l-4 2l10 40h-9z" />
    <glyph glyph-name="uni021A" unicode="&#x21a;" horiz-adv-x="115" 
d="M66 0h-17v685h-43v15h103v-15h-43v-685zM47 -76v26h20v-26l-17 -42l-4 2l10 40h-9z" />
    <glyph glyph-name="uni021B" unicode="&#x21b;" horiz-adv-x="88" 
d="M6 574v14.001h26v85h16v-85h34v-14h-34v-505c0 -30.667 2.66699 -53.667 8 -69h-18c-4 9.33301 -6 29.666 -6 60.999v513h-26zM32 -75.999v26h20v-26l-17 -42l-4 2l10 40h-9z" />
    <glyph glyph-name="uni0237" unicode="&#x237;" horiz-adv-x="72" 
d="M28 588h15.999v-631c0 -19.333 -2.83301 -32.5 -8.5 -39.5s-17.167 -10.5 -34.5 -10.5h-7v14h4c12.667 0 20.834 2.16699 24.501 6.5s5.5 14.833 5.5 31.5v629z" />
    <glyph glyph-name="circumflex" unicode="&#x2c6;" horiz-adv-x="83" 
d="M47 683l35 -71h-11l-30 49l-30 -49h-11l35 71h12z" />
    <glyph glyph-name="caron" unicode="&#x2c7;" horiz-adv-x="83" 
d="M81 683l-34 -71h-12l-34 71h11l29 -49l29 49h11z" />
    <glyph glyph-name="breve" unicode="&#x2d8;" horiz-adv-x="83" 
d="M41 636c11.333 0 19.5 2.66699 24.5 8s7.5 15 7.5 29h11c0 -18 -3 -31.333 -9 -40s-17.333 -13 -34 -13s-28 4.33301 -34 13s-9 22 -9 40h11c0 -14 2.5 -23.667 7.5 -29s13.167 -8 24.5 -8z" />
    <glyph glyph-name="dotaccent" unicode="&#x2d9;" horiz-adv-x="83" 
d="M51 634h-20v25h20v-25z" />
    <glyph glyph-name="ring" unicode="&#x2da;" horiz-adv-x="83" 
d="M58 647c0 12 -5.66699 18 -17 18s-17 -6 -17 -18s5.66699 -18 17 -18s17 6 17 18zM12 647c0 8 2.83301 15 8.5 21s12.5 9 20.5 9s14.833 -3 20.5 -9s8.5 -13 8.5 -21s-2.83301 -15 -8.5 -21s-12.5 -9 -20.5 -9s-14.833 3 -20.5 9s-8.5 13 -8.5 21z" />
    <glyph glyph-name="ogonek" unicode="&#x2db;" horiz-adv-x="83" 
d="M71 -81l0.000976562 -12c-6.66699 -3.33301 -14.334 -5 -23.001 -5c-13.333 0 -22.666 2.83301 -27.999 8.5s-8 15.167 -8 28.5c0 22 16 45.667 48 71h7c-26 -23.333 -39 -47 -39 -71c0 -16.667 7 -25 21 -25c9.33301 0 16.666 1.66699 21.999 5z" />
    <glyph glyph-name="tilde" unicode="&#x2dc;" horiz-adv-x="83" 
d="M79 658h10.001c0 -12.667 -2 -21.334 -6 -26.001s-10.667 -7 -20 -7c-8 0 -16.833 3.16699 -26.5 9.5s-16.167 9.5 -19.5 9.5c-8.66699 0 -13 -6.33301 -13 -19h-11c0 12.667 2.16699 21.334 6.5 26.001s11.166 7 20.499 7c7.33301 0 16 -3.16699 26 -9.5
s16.667 -9.5 20 -9.5c8.66699 0 13 6.33301 13 19z" />
    <glyph glyph-name="hungarumlaut" unicode="&#x2dd;" horiz-adv-x="83" 
d="M-5 612l31 71h21l-41 -71h-11zM43 612l31 71h21l-41 -71h-11z" />
    <glyph glyph-name="pi" unicode="&#x3c0;" horiz-adv-x="167" 
d="M44 574v-574h-16v588h111v-588h-16v574h-79z" />
    <glyph glyph-name="uni1E02" unicode="&#x1e02;" horiz-adv-x="180" 
d="M30 0v700.001h72c20 0 33.5 -3.83301 40.5 -11.5s10.5 -22.5 10.5 -44.5v-222c0 -31.333 -9.33301 -49.333 -28 -54c18.667 -4.66699 28 -22.334 28 -53.001v-259c0 -22 -3.5 -36.833 -10.5 -44.5s-20.5 -11.5 -40.5 -11.5h-72zM100 361.001h-53v-346h53c16 0 26 3 30 9
s6 18.667 6 38v252c0 18.667 -2 31.167 -6 37.5s-14 9.5 -30 9.5zM136 423.001v215c0 19.333 -2 32 -6 38s-14 9 -30 9h-53v-309h53c16 0 26 3 30 9s6 18.667 6 38zM98 738.001h-20v25h20v-25z" />
    <glyph glyph-name="uni1E03" unicode="&#x1e03;" horiz-adv-x="165" 
d="M123 539c0 16 -1.66699 26.667 -5 32s-11.333 8 -24 8h-13c-24.667 0 -37 -17.667 -37 -53v-464c0 -35.333 12.333 -53 37 -53h13c12.667 0 20.667 2.66699 24 8s5 16 5 32v490zM44 700v-133c6.66699 17.333 20.667 26 42 26h10c16.667 0 28 -3.5 34 -10.5
s9 -19.5 9 -37.5v-502c0 -18 -3 -30.5 -9 -37.5s-17.333 -10.5 -34 -10.5h-10c-24 0 -38.667 10.667 -44 32l-3 -27h-11v700h16zM46 738h-20v25h20v-25z" />
    <glyph glyph-name="uni1E0A" unicode="&#x1e0a;" horiz-adv-x="181" 
d="M30 0v700h72c20 0 33.5 -3.83301 40.5 -11.5s10.5 -22.5 10.5 -44.5v-588c0 -22 -3.5 -36.833 -10.5 -44.5s-20.5 -11.5 -40.5 -11.5h-72zM47 15h53c16 0 26 3 30 9s6 18.667 6 38v576c0 19.333 -2 32 -6 38s-14 9 -30 9h-53v-670zM98 738h-20v25h20v-25z" />
    <glyph glyph-name="uni1E0B" unicode="&#x1e0b;" horiz-adv-x="165" 
d="M121 62v464c0 35.333 -12.333 53 -37 53h-13c-12.667 0 -20.667 -2.66699 -24 -8s-5 -16 -5 -32v-490c0 -16 1.66699 -26.667 5 -32s11.333 -8 24 -8h13c24.667 0 37 17.667 37 53zM137 51c0 -22 1.00098 -39 3.00098 -51h-14c-2 5.33301 -3 14 -3 26
c-6.66699 -20.667 -21.334 -31 -44.001 -31h-10c-16.667 0 -28 3.5 -34 10.5s-9 19.5 -9 37.5v502c0 18 3 30.5 9 37.5s17.333 10.5 34 10.5h10c20.667 0 34.667 -8.66699 42 -26v133h16v-649zM139.001 738h-20v25h20v-25z" />
    <glyph glyph-name="uni1E1E" unicode="&#x1e1e;" horiz-adv-x="131" 
d="M47 685v-319h66v-15h-66v-351h-17v700h92v-15h-75zM86 738h-20v25h20v-25z" />
    <glyph glyph-name="uni1E1F" unicode="&#x1e1f;" horiz-adv-x="91" 
d="M6 574v14h26v62c0 19.333 3 32.5 9 39.5s17.667 10.5 35 10.5h9v-14h-6c-12.667 0 -21 -2.16699 -25 -6.5s-6 -14.833 -6 -31.5v-60h37v-14h-37v-574h-16v574h-26zM62 738h-20v25h20v-25z" />
    <glyph glyph-name="uni1E40" unicode="&#x1e40;" horiz-adv-x="231" 
d="M177 535l-49.998 -534.999h-23l-51 535c0 3.33301 -1.33301 20.333 -4 51l-6 69c1.33301 -45.333 2 -85.333 2 -120v-535h-15v700h24l51 -535c5.33301 -52.667 9 -96 11 -130c1.33301 12.667 3.16602 33.667 5.49902 63s4.16602 51.666 5.49902 66.999l50 535h24v-700
h-17v535c0 33.333 0.666992 72 2 116c-1.33301 -15.333 -3 -37.5 -5 -66.5s-3.33301 -45.5 -4 -49.5zM125.002 738.001h-20v25h20v-25z" />
    <glyph glyph-name="uni1E41" unicode="&#x1e41;" horiz-adv-x="249" 
d="M44 0h-16.002v588h14v-27c6.66699 21.333 21.334 32 44.001 32h4c22.667 0 36.334 -8.66699 41.001 -26c6.66699 17.333 20.667 26 42 26h6c16.667 0 28 -3.5 34 -10.5s9 -19.5 9 -37.5v-545h-16v539c0 16 -1.66699 26.667 -5 32s-11.333 8 -24 8h-7
c-24.667 0 -37 -17.667 -37 -53v-526h-16v539c0 16 -1.66699 26.667 -5 32s-11.333 8 -24 8h-7c-24.667 0 -37 -17.333 -37 -52v-527zM133.998 634h-20v25h20v-25z" />
    <glyph glyph-name="uni1E56" unicode="&#x1e56;" horiz-adv-x="161" 
d="M30 0v700h67c20 0 33.5 -3.83301 40.5 -11.5s10.5 -22.5 10.5 -44.5v-291c0 -21.333 -3.5 -35.833 -10.5 -43.5s-20.5 -11.5 -40.5 -11.5h-50v-298h-17zM47 312h48c16 0 26 3.16699 30 9.5s6 18.833 6 37.5v279c0 19.333 -2 32 -6 38s-14 9 -30 9h-48v-373zM95 738h-20
v25h20v-25z" />
    <glyph glyph-name="uni1E57" unicode="&#x1e57;" horiz-adv-x="165" 
d="M123 539c0 16 -1.66699 26.667 -5 32s-11.333 8 -24 8h-13c-24.667 0 -37 -17.667 -37 -53v-464c0 -35.333 12.333 -53 37 -53h13c12.667 0 20.667 2.66699 24 8s5 16 5 32v490zM44 -93h-16.001v681h14v-27c6.66699 21.333 21.334 32 44.001 32h10
c16.667 0 28 -3.5 34 -10.5s9 -19.5 9 -37.5v-502c0 -18 -3 -30.5 -9 -37.5s-17.333 -10.5 -34 -10.5h-10c-21.333 0 -35.333 8.66699 -42 26v-114zM92.999 634h-20v25h20v-25z" />
    <glyph glyph-name="uni1E60" unicode="&#x1e60;" horiz-adv-x="172" 
d="M128 57l0.000976562 153c0 31.333 -2.5 54.833 -7.5 70.5s-17.833 38.834 -38.5 69.501c-24.667 36.667 -40 64 -46 82s-9 44.667 -9 80v137c0 22 3.5 36.833 10.5 44.5s20.5 11.5 40.5 11.5h16c20 0 33.5 -3.83301 40.5 -11.5s10.5 -22.5 10.5 -44.5v-211h-16v205
c0 19.333 -2 32 -6 38s-14 9 -30 9h-13c-16 0 -26 -3 -30 -9s-6 -18.667 -6 -38v-135c0 -31.333 2.5 -54.833 7.5 -70.5s17.833 -38.834 38.5 -69.501c24.667 -36.667 40 -64 46 -82s9 -44.667 9 -80v-155c0 -22 -3.33301 -36.833 -10 -44.5s-20.334 -11.5 -41.001 -11.5
h-16c-20 0 -33.5 3.83301 -40.5 11.5s-10.5 22.5 -10.5 44.5v231h16v-225c0 -19.333 2 -32 6 -38s14 -9 30 -9h13c16 0 26 3 30 9s6 18.667 6 38zM96.001 738h-20v25h20v-25z" />
    <glyph glyph-name="uni1E61" unicode="&#x1e61;" horiz-adv-x="156" 
d="M117 52v119c0 27.333 -2.5 48 -7.5 62s-16.833 33 -35.5 57c-22 27.333 -36 49.333 -42 66s-9 40 -9 70v117c0 19.333 3 32.5 9 39.5s18 10.5 36 10.5h20c18 0 30 -3.5 36 -10.5s9 -20.167 9 -39.5v-154h-15v147c0 17.333 -1.66699 28.833 -5 34.5s-12 8.5 -26 8.5h-17
c-14 0 -22.667 -2.83301 -26 -8.5s-5 -17.167 -5 -34.5v-110c0 -27.333 2.5 -48.333 7.5 -63s16.833 -33.667 35.5 -57c22 -27.333 36 -49.333 42 -66s9 -40 9 -70v-125c0 -19.333 -3 -32.5 -9 -39.5s-18 -10.5 -36 -10.5h-20c-18 0 -30 3.5 -36 10.5s-9 20.167 -9 39.5v164
h15v-157c0 -17.333 1.83301 -28.833 5.5 -34.5s12.5 -8.5 26.5 -8.5h15c14 0 22.833 2.83301 26.5 8.5s5.5 17.167 5.5 34.5zM88 634h-20v25h20v-25z" />
    <glyph glyph-name="uni1E6A" unicode="&#x1e6a;" horiz-adv-x="115" 
d="M66 0h-17v685h-43v15h103v-15h-43v-685zM67 738h-20v25h20v-25z" />
    <glyph glyph-name="uni1E6B" unicode="&#x1e6b;" horiz-adv-x="88" 
d="M6 574v14.001h26v85h16v-85h34v-14h-34v-505c0 -30.667 2.66699 -53.667 8 -69h-18c-4 9.33301 -6 29.666 -6 60.999v513h-26zM50 719.001h-20v25h20v-25z" />
    <glyph glyph-name="Wgrave" unicode="&#x1e80;" horiz-adv-x="249" 
d="M111 419l-29.001 -419.001h-18l-48 700h17l28 -400c6.66699 -95.333 11 -178.666 13 -249.999c1.33301 58 6 141.333 14 250l28 400h20l28 -400c8 -108.667 12.667 -192 14 -250c0.666992 37.333 5.33398 120.333 14.001 249l27 401h15l-48 -700h-18l-29 419
c-8 115.333 -12.667 203.666 -14 264.999c-1.33301 -61.333 -6 -149.666 -14 -264.999zM109.999 786.999l31 -71h-11l-41 71h21z" />
    <glyph glyph-name="wgrave" unicode="&#x1e81;" horiz-adv-x="230" 
d="M102 374l-32.002 -374.002h-19l-43 588h16l24 -323c6.66699 -84 11.334 -163.333 14.001 -238c0.666992 32.667 6 112 16 238l29 323h17l29 -323c9.33301 -113.333 14.666 -192.666 15.999 -237.999c0.666992 54 5.33398 133.333 14.001 238l25 323h14l-44 -588h-19
l-31 374c-8 100.667 -12.333 163 -13 187c-1.33301 -33.333 -5.66602 -95.666 -12.999 -186.999zM99.998 682.998l31 -71h-11l-41 71h21z" />
    <glyph glyph-name="Wacute" unicode="&#x1e82;" horiz-adv-x="249" 
d="M111 419l-29.001 -419.001h-18l-48 700h17l28 -400c6.66699 -95.333 11 -178.666 13 -249.999c1.33301 58 6 141.333 14 250l28 400h20l28 -400c8 -108.667 12.667 -192 14 -250c0.666992 37.333 5.33398 120.333 14.001 249l27 401h15l-48 -700h-18l-29 419
c-8 115.333 -12.667 203.666 -14 264.999c-1.33301 -61.333 -6 -149.666 -14 -264.999zM109.999 715.999l31 71h21l-41 -71h-11z" />
    <glyph glyph-name="wacute" unicode="&#x1e83;" horiz-adv-x="230" 
d="M102 374l-32.002 -374.002h-19l-43 588h16l24 -323c6.66699 -84 11.334 -163.333 14.001 -238c0.666992 32.667 6 112 16 238l29 323h17l29 -323c9.33301 -113.333 14.666 -192.666 15.999 -237.999c0.666992 54 5.33398 133.333 14.001 238l25 323h14l-44 -588h-19
l-31 374c-8 100.667 -12.333 163 -13 187c-1.33301 -33.333 -5.66602 -95.666 -12.999 -186.999zM99.998 611.998l31 71h21l-41 -71h-11z" />
    <glyph glyph-name="Wdieresis" unicode="&#x1e84;" horiz-adv-x="249" 
d="M111 419l-29.001 -419.001h-18l-48 700h17l28 -400c6.66699 -95.333 11 -178.666 13 -249.999c1.33301 58 6 141.333 14 250l28 400h20l28 -400c8 -108.667 12.667 -192 14 -250c0.666992 37.333 5.33398 120.333 14.001 249l27 401h15l-48 -700h-18l-29 419
c-8 115.333 -12.667 203.666 -14 264.999c-1.33301 -61.333 -6 -149.666 -14 -264.999zM158.999 737.999h-18v25h18v-25zM107.999 737.999h-18v25h18v-25z" />
    <glyph glyph-name="wdieresis" unicode="&#x1e85;" horiz-adv-x="230" 
d="M102 374l-32.002 -374.002h-19l-43 588h16l24 -323c6.66699 -84 11.334 -163.333 14.001 -238c0.666992 32.667 6 112 16 238l29 323h17l29 -323c9.33301 -113.333 14.666 -192.666 15.999 -237.999c0.666992 54 5.33398 133.333 14.001 238l25 323h14l-44 -588h-19
l-31 374c-8 100.667 -12.333 163 -13 187c-1.33301 -33.333 -5.66602 -95.666 -12.999 -186.999zM148.998 633.998h-18v25h18v-25zM97.998 633.998h-18v25h18v-25z" />
    <glyph glyph-name="Ygrave" unicode="&#x1ef2;" horiz-adv-x="151" 
d="M85 0h-17v267l-60 433h17l30 -213c10.667 -75.333 18 -139 22 -191c3.33301 41.333 11 105 23 191l29 213h15l-59 -433v-267zM63 787l31 -71h-11l-41 71h21z" />
    <glyph glyph-name="ygrave" unicode="&#x1ef3;" horiz-adv-x="144" 
d="M77 -45c-2.66699 -26.667 -15.667 -40 -39 -40h-20v14h19c14 0 22 9 24 27l2 26l-56 606h16l31 -323c10.667 -109.333 17 -188.666 19 -237.999c2 49.333 8.33301 128.666 19 237.999l31 323h14zM58 683l31 -71h-11l-41 71h21z" />
    <glyph glyph-name="figuredash" unicode="&#x2012;" 
d="M166 293v-16h-166v16h166z" />
    <glyph glyph-name="endash" unicode="&#x2013;" horiz-adv-x="500" 
d="M500 293v-16h-500v16h500z" />
    <glyph glyph-name="emdash" unicode="&#x2014;" horiz-adv-x="1000" 
d="M1000 293v-16h-1000v16h1000z" />
    <glyph glyph-name="quoteleft" unicode="&#x2018;" horiz-adv-x="83" 
d="M50 648v-35h-19v35l16 52l4 -1l-10 -51h9z" />
    <glyph glyph-name="quoteright" unicode="&#x2019;" horiz-adv-x="83" 
d="M32 665v35h19v-35l-16 -52l-4 1l10 51h-9z" />
    <glyph glyph-name="quotesinglbase" unicode="&#x201a;" horiz-adv-x="83" 
d="M32 0v35h19v-35l-16 -52l-4 1l10 51h-9z" />
    <glyph glyph-name="quotedblleft" unicode="&#x201c;" horiz-adv-x="118" 
d="M93 648v-35h-19v35l16 52l4 -1l-10 -51h9zM42 648v-35h-19v35l16 52l4 -1l-10 -51h9z" />
    <glyph glyph-name="quotedblright" unicode="&#x201d;" horiz-adv-x="118" 
d="M75 665v35h19v-35l-16 -52l-4 1l10 51h-9zM24 665v35h19v-35l-16 -52l-4 1l10 51h-9z" />
    <glyph glyph-name="quotedblbase" unicode="&#x201e;" horiz-adv-x="118" 
d="M75 0v35h19v-35l-16 -52l-4 1l10 51h-9zM24 0v35h19v-35l-16 -52l-4 1l10 51h-9z" />
    <glyph glyph-name="dagger" unicode="&#x2020;" horiz-adv-x="142" 
d="M79 542v-613h-16v613h-57v15h57v143h16v-143h57v-15h-57z" />
    <glyph glyph-name="daggerdbl" unicode="&#x2021;" horiz-adv-x="142" 
d="M79 176v-247h-16v247h-57v15h57v351h-57v15h57v143h16v-143h57v-15h-57v-351h57v-15h-57z" />
    <glyph glyph-name="bullet" unicode="&#x2022;" horiz-adv-x="144" 
d="M26 350c0 12.667 4.5 23.5 13.5 32.5s19.833 13.5 32.5 13.5s23.5 -4.5 32.5 -13.5s13.5 -19.833 13.5 -32.5s-4.5 -23.5 -13.5 -32.5s-19.833 -13.5 -32.5 -13.5s-23.5 4.5 -32.5 13.5s-13.5 19.833 -13.5 32.5z" />
    <glyph glyph-name="ellipsis" unicode="&#x2026;" horiz-adv-x="169" 
d="M24 0v35h19v-35h-19zM75 0v35h19v-35h-19zM126 0v35h19v-35h-19z" />
    <glyph glyph-name="perthousand" unicode="&#x2030;" horiz-adv-x="403" 
d="M21 309v357c0 15.333 2.5 25.666 7.5 30.999s14.167 8 27.5 8h16c13.333 0 22.333 -2.66699 27 -8s7 -15.666 7 -30.999v-357c0 -15.333 -2.33301 -25.5 -7 -30.5s-13.667 -7.5 -27 -7.5h-16c-13.333 0 -22.5 2.66699 -27.5 8s-7.5 15.333 -7.5 30zM35 661v-346
c0 -12.667 1.16699 -21 3.5 -25s8.83301 -6 19.5 -6h11c10.667 0 17.167 2 19.5 6s3.5 12.333 3.5 25v346c0 12.667 -1.16699 21 -3.5 25s-8.83301 6 -19.5 6h-11c-10.667 0 -17.167 -2 -19.5 -6s-3.5 -12.333 -3.5 -25zM180 33v357c0 15.333 2.5 25.666 7.5 30.999
s14.167 8 27.5 8h16c13.333 0 22.333 -2.66699 27 -8s7 -15.666 7 -30.999v-357c0 -15.333 -2.33301 -25.5 -7 -30.5s-13.667 -7.5 -27 -7.5h-16c-13.333 0 -22.5 2.66699 -27.5 8s-7.5 15.333 -7.5 30zM194 385v-346c0 -12.667 1.16699 -21 3.5 -25s8.83301 -6 19.5 -6h11
c10.667 0 17.167 2 19.5 6s3.5 12.333 3.5 25v346c0 12.667 -1.16699 21 -3.5 25s-8.83301 6 -19.5 6h-11c-10.667 0 -17.167 -2 -19.5 -6s-3.5 -12.333 -3.5 -25zM297 33v357c0 15.333 2.5 25.666 7.5 30.999s14.167 8 27.5 8h16c13.333 0 22.333 -2.66699 27 -8
s7 -15.666 7 -30.999v-357c0 -15.333 -2.33301 -25.5 -7 -30.5s-13.667 -7.5 -27 -7.5h-16c-13.333 0 -22.5 2.66699 -27.5 8s-7.5 15.333 -7.5 30zM311 385v-346c0 -12.667 1.16699 -21 3.5 -25s8.83301 -6 19.5 -6h11c10.667 0 17.167 2 19.5 6s3.5 12.333 3.5 25v346
c0 12.667 -1.16699 21 -3.5 25s-8.83301 6 -19.5 6h-11c-10.667 0 -17.167 -2 -19.5 -6s-3.5 -12.333 -3.5 -25zM92 0l90 700h12l-90 -700h-12z" />
    <glyph glyph-name="guilsinglleft" unicode="&#x2039;" horiz-adv-x="86" 
d="M63 81l-55 213l55 213h15l-55 -213l55 -213h-15z" />
    <glyph glyph-name="guilsinglright" unicode="&#x203a;" horiz-adv-x="86" 
d="M78 294l-55 -213h-15l55 213l-55 213h15z" />
    <glyph glyph-name="fraction" unicode="&#x2044;" 
d="M32 0l90 700h12l-90 -700h-12z" />
    <glyph glyph-name="zerosuperior" unicode="&#x2070;" horiz-adv-x="127" 
d="M21 309v357c0 15.333 2.5 25.666 7.5 30.999s14.167 8 27.5 8h16c13.333 0 22.333 -2.66699 27 -8s7 -15.666 7 -30.999v-357c0 -15.333 -2.33301 -25.5 -7 -30.5s-13.667 -7.5 -27 -7.5h-16c-13.333 0 -22.5 2.66699 -27.5 8s-7.5 15.333 -7.5 30zM35 661v-346
c0 -12.667 1.16699 -21 3.5 -25s8.83301 -6 19.5 -6h11c10.667 0 17.167 2 19.5 6s3.5 12.333 3.5 25v346c0 12.667 -1.16699 21 -3.5 25s-8.83301 6 -19.5 6h-11c-10.667 0 -17.167 -2 -19.5 -6s-3.5 -12.333 -3.5 -25z" />
    <glyph glyph-name="foursuperior" unicode="&#x2074;" horiz-adv-x="127" 
d="M82 700h13v-306h16v-13h-16v-105h-14v105h-65v13zM29 394h52.001v69c0 88 0.333008 151.333 1 190c-10.667 -60 -23.334 -123.333 -38.001 -190z" />
    <glyph glyph-name="zeroinferior" unicode="&#x2080;" horiz-adv-x="127" 
d="M21 33v357c0 15.333 2.5 25.666 7.5 30.999s14.167 8 27.5 8h16c13.333 0 22.333 -2.66699 27 -8s7 -15.666 7 -30.999v-357c0 -15.333 -2.33301 -25.5 -7 -30.5s-13.667 -7.5 -27 -7.5h-16c-13.333 0 -22.5 2.66699 -27.5 8s-7.5 15.333 -7.5 30zM35 385v-346
c0 -12.667 1.16699 -21 3.5 -25s8.83301 -6 19.5 -6h11c10.667 0 17.167 2 19.5 6s3.5 12.333 3.5 25v346c0 12.667 -1.16699 21 -3.5 25s-8.83301 6 -19.5 6h-11c-10.667 0 -17.167 -2 -19.5 -6s-3.5 -12.333 -3.5 -25z" />
    <glyph glyph-name="oneinferior" unicode="&#x2081;" horiz-adv-x="76" 
d="M45 0h-14v417c4.66699 0 7 2.33301 7 7h7v-424z" />
    <glyph glyph-name="twoinferior" unicode="&#x2082;" horiz-adv-x="127" 
d="M36 385l-0.000976562 -109.002h-13v114c0 15.333 2.5 25.666 7.5 30.999s14.167 8 27.5 8h14c13.333 0 22.5 -2.66699 27.5 -8s7.5 -15.666 7.5 -30.999v-51c0 -30 -2.16699 -54 -6.5 -72s-15.166 -44.333 -32.499 -79c-14 -29.333 -23.167 -52.666 -27.5 -69.999
s-6.5 -39.333 -6.5 -66v-39h72v-13h-87v52c0 28.667 2.5 52 7.5 70s16.167 45 33.5 81c13.333 27.333 22.166 49.833 26.499 67.5s6.5 40.5 6.5 68.5v46c0 8 -0.333008 13.833 -1 17.5s-2.66699 6.83398 -6 9.50098s-8.66602 4 -15.999 4h-11c-10.667 0 -17.167 -2 -19.5 -6
s-3.5 -12.333 -3.5 -25z" />
    <glyph glyph-name="threeinferior" unicode="&#x2083;" horiz-adv-x="127" 
d="M91 39v142.001c0 12.667 -1.16699 21 -3.5 25s-8.83301 6 -19.5 6h-31v13h31c10.667 0 17.167 2 19.5 6s3.5 12.333 3.5 25v129c0 12.667 -1.16699 21 -3.5 25s-8.83301 6 -19.5 6h-11c-10.667 0 -17.167 -2 -19.5 -6s-3.5 -12.333 -3.5 -25v-112h-13v117
c0 15.333 2.5 25.666 7.5 30.999s14.167 8 27.5 8h15c13.333 0 22.333 -2.66699 27 -8s7 -15.666 7 -30.999v-134c0 -22.667 -6.66699 -35.334 -20 -38.001c13.333 -2.66699 20 -15 20 -37v-147c0 -15.333 -2.33301 -25.666 -7 -30.999s-13.667 -8 -27 -8h-15
c-13.333 0 -22.5 2.66699 -27.5 8s-7.5 15.666 -7.5 30.999v116h13v-111c0 -12.667 1.16699 -21 3.5 -25s8.83301 -6 19.5 -6h11c10.667 0 17.167 2 19.5 6s3.5 12.333 3.5 25z" />
    <glyph glyph-name="fourinferior" unicode="&#x2084;" horiz-adv-x="127" 
d="M82 424h13v-306h16v-13h-16v-105h-14v105h-65v13zM29 118h52.001v69c0 88 0.333008 151.333 1 190c-10.667 -60 -23.334 -123.333 -38.001 -190z" />
    <glyph glyph-name="Euro" unicode="&#x20ac;" 
d="M144 390h-97v-43h97v-14h-97v-280c0 -17.333 1.83301 -28.833 5.5 -34.5s12.834 -8.5 27.501 -8.5h16c14.667 0 23.834 2.83301 27.501 8.5s5.5 17.167 5.5 34.5v238h15v-244c0 -20 -3.16699 -33.667 -9.5 -41s-18.833 -11 -37.5 -11h-18
c-18.667 0 -31.334 3.66699 -38.001 11s-10 21 -10 41v286h-20v14h20v43h-20v14h20v249c0 20 3.33301 33.667 10 41s19.334 11 38.001 11h18c18.667 0 31.167 -3.66699 37.5 -11s9.5 -21 9.5 -41v-207h-15v201c0 17.333 -1.83301 28.833 -5.5 34.5s-12.834 8.5 -27.501 8.5
h-16c-14.667 0 -23.834 -2.83301 -27.501 -8.5s-5.5 -17.167 -5.5 -34.5v-243h97v-14z" />
    <glyph glyph-name="numero" unicode="&#x2116;" horiz-adv-x="301" 
d="M137 0l-81 563.001c-6.66699 48.667 -11 84.667 -13 108c1.33301 -42.667 2 -78.334 2 -107.001v-564h-15v700h23l77 -535c6 -44 10.333 -80.667 13 -110c-1.33301 64 -2 100.333 -2 109v536h15v-700h-19zM198 263.001v14h82v-14h-82zM198 354.001v313
c0 14.667 2.33301 24.667 7 30s13.334 8 26.001 8h15c13.333 0 22.333 -2.66699 27 -8s7 -15.333 7 -30v-313c0 -14.667 -2.33301 -24.667 -7 -30s-13.667 -8 -27 -8h-15c-12.667 0 -21.334 2.66699 -26.001 8s-7 15.333 -7 30zM266 357.001v307
c0 12 -1.33301 19.833 -4 23.5s-8.66699 5.5 -18 5.5h-10c-9.33301 0 -15.333 -1.83301 -18 -5.5s-4 -11.5 -4 -23.5v-307c0 -11.333 1.33301 -19 4 -23s8.66699 -6 18 -6h10c9.33301 0 15.333 2 18 6s4 11.667 4 23z" />
    <glyph glyph-name="uni2117" unicode="&#x2117;" horiz-adv-x="269" 
d="M243 608v-516c0 -34 -6.33301 -58.667 -19 -74s-36 -23 -70 -23h-39c-34 0 -57.333 7.66699 -70 23s-19 40 -19 74v516c0 34 6.33301 58.667 19 74s36 23 70 23h39c34 0 57.333 -7.66699 70 -23s19 -40 19 -74zM42 608v-516c0 -31.333 5.16699 -53 15.5 -65
s29.833 -18 58.5 -18h38c28.667 0 48.167 6 58.5 18s15.5 33.667 15.5 65v516c0 31.333 -5.16699 53 -15.5 65s-29.833 18 -58.5 18h-38c-28.667 0 -48.167 -6 -58.5 -18s-15.5 -33.667 -15.5 -65zM179 591v-237c0 -14.667 -2.5 -24.5 -7.5 -29.5s-14.5 -7.5 -28.5 -7.5h-32
v-251h-15v562h47c14 0 23.5 -2.66699 28.5 -8s7.5 -15 7.5 -29zM140 616l-29 -0.00195312v-287h29c10 0 16.5 1.83301 19.5 5.5s4.5 10.834 4.5 21.501v233c0 10.667 -1.5 17.834 -4.5 21.501s-9.5 5.5 -19.5 5.5z" />
    <glyph glyph-name="trademark" unicode="&#x2122;" horiz-adv-x="229" 
d="M159 400l30 300h23v-414h-16v301c0 22.667 0.666992 50 2 82c0 -5.33301 -0.5 -13 -1.5 -23s-2 -21 -3 -33s-1.83301 -20.667 -2.5 -26l-30 -301h-13l-33 301c-0.666992 6 -3 32 -7 78c1.33301 -30.667 2 -56.667 2 -78v-301h-13v414h22l31 -300
c2 -22.667 3.66699 -48 5 -76c2 42.667 3.33301 68 4 76zM6 686v14h68v-14h-26v-400h-16v400h-26z" />
    <glyph glyph-name="uni2126" unicode="&#x2126;" horiz-adv-x="179" 
d="M28 0l-0.000976562 14.999h34v41c-14 1.33301 -23.167 5.83301 -27.5 13.5s-6.5 21.5 -6.5 41.5v538c0 22 3.33301 36.833 10 44.5s20.334 11.5 41.001 11.5h21c20 0 33.5 -3.83301 40.5 -11.5s10.5 -22.5 10.5 -44.5v-538c0 -19.333 -2.33301 -33 -7 -41
s-13.667 -12.667 -27 -14v-41h34v-15h-48v70c15.333 0 24.333 2.83301 27 8.5s4 18.5 4 38.5v526c0 19.333 -2 32 -6 38s-14 9 -30 9h-17c-16 0 -26 -3 -30 -9s-6 -18.667 -6 -38v-526v-23c0 -3.33301 1 -7.66602 3 -12.999s5.16699 -8.5 9.5 -9.5s10.5 -1.5 18.5 -1.5v-70
h-48z" />
    <glyph glyph-name="onethird" unicode="&#x2153;" horiz-adv-x="242" 
d="M206 39v142.001c0 12.667 -1.16699 21 -3.5 25s-8.83301 6 -19.5 6h-31v13h31c10.667 0 17.167 2 19.5 6s3.5 12.333 3.5 25v129c0 12.667 -1.16699 21 -3.5 25s-8.83301 6 -19.5 6h-11c-10.667 0 -17.167 -2 -19.5 -6s-3.5 -12.333 -3.5 -25v-112h-13v117
c0 15.333 2.5 25.666 7.5 30.999s14.167 8 27.5 8h15c13.333 0 22.333 -2.66699 27 -8s7 -15.666 7 -30.999v-134c0 -22.667 -6.66699 -35.334 -20 -38.001c13.333 -2.66699 20 -15 20 -37v-147c0 -15.333 -2.33301 -25.666 -7 -30.999s-13.667 -8 -27 -8h-15
c-13.333 0 -22.5 2.66699 -27.5 8s-7.5 15.666 -7.5 30.999v116h13v-111c0 -12.667 1.16699 -21 3.5 -25s8.83301 -6 19.5 -6h11c10.667 0 17.167 2 19.5 6s3.5 12.333 3.5 25zM48 0.000976562l90 700h12l-90 -700h-12zM45 276.001h-14v417c4.66699 0 7 2.33301 7 7h7v-424z
" />
    <glyph glyph-name="twothirds" unicode="&#x2154;" horiz-adv-x="286" 
d="M250 39v142.001c0 12.667 -1.16699 21 -3.5 25s-8.83301 6 -19.5 6h-31v13h31c10.667 0 17.167 2 19.5 6s3.5 12.333 3.5 25v129c0 12.667 -1.16699 21 -3.5 25s-8.83301 6 -19.5 6h-11c-10.667 0 -17.167 -2 -19.5 -6s-3.5 -12.333 -3.5 -25v-112h-13v117
c0 15.333 2.5 25.666 7.5 30.999s14.167 8 27.5 8h15c13.333 0 22.333 -2.66699 27 -8s7 -15.666 7 -30.999v-134c0 -22.667 -6.66699 -35.334 -20 -38.001c13.333 -2.66699 20 -15 20 -37v-147c0 -15.333 -2.33301 -25.666 -7 -30.999s-13.667 -8 -27 -8h-15
c-13.333 0 -22.5 2.66699 -27.5 8s-7.5 15.666 -7.5 30.999v116h13v-111c0 -12.667 1.16699 -21 3.5 -25s8.83301 -6 19.5 -6h11c10.667 0 17.167 2 19.5 6s3.5 12.333 3.5 25zM36 661.001l-0.000976562 -109.002h-13v114c0 15.333 2.5 25.666 7.5 30.999s14.167 8 27.5 8
h14c13.333 0 22.5 -2.66699 27.5 -8s7.5 -15.666 7.5 -30.999v-51c0 -30 -2.16699 -54 -6.5 -72s-15.166 -44.333 -32.499 -79c-14 -29.333 -23.167 -52.666 -27.5 -69.999s-6.5 -39.333 -6.5 -66v-39h72v-13h-87v52c0 28.667 2.5 52 7.5 70s16.167 45 33.5 81
c13.333 27.333 22.166 49.833 26.499 67.5s6.5 40.5 6.5 68.5v46c0 8 -0.333008 13.833 -1 17.5s-2.66699 6.83398 -6 9.50098s-8.66602 4 -15.999 4h-11c-10.667 0 -17.167 -2 -19.5 -6s-3.5 -12.333 -3.5 -25zM91.999 -0.000976562l90 700h12l-90 -700h-12z" />
    <glyph glyph-name="partialdiff" unicode="&#x2202;" 
d="M138 647v-602.001c0 -19.333 -3 -32.5 -9 -39.5s-18 -10.5 -36 -10.5h-21c-18 0 -30 3.5 -36 10.5s-9 20.167 -9 39.5v500c0 18 3 30.5 9 37.5s17.333 10.5 34 10.5h10c20.667 0 34.667 -8.66699 42 -26v77c0 16.667 -1.66699 27.834 -5 33.501s-12 8.5 -26 8.5h-17v14
h17c16.667 0 28.667 -4.16699 36 -12.5s11 -21.833 11 -40.5zM43 51.999c0 -17.333 1.66699 -28.833 5 -34.5s12 -8.5 26 -8.5h17c14 0 22.667 2.83301 26 8.5s5 17.167 5 34.5v474c0 35.333 -12.333 53 -37 53h-13c-12.667 0 -20.667 -2.66699 -24 -8s-5 -16 -5 -32v-487z
" />
    <glyph glyph-name="uni2206" unicode="&#x2206;" 
d="M150 0h-134l60 700h13zM82 645c0 -2.66699 -2 -32 -6 -88s-8 -108.333 -12 -157l-32 -385h100l-32 385c-4 48.667 -8 101 -12 157s-6 85.333 -6 88z" />
    <glyph glyph-name="product" unicode="&#x220f;" horiz-adv-x="183" 
d="M47 -50h-17v750h123v-750h-17v735h-89v-735z" />
    <glyph glyph-name="summation" unicode="&#x2211;" horiz-adv-x="143" 
d="M113 324l-82 -360h98v-14h-115v14l83 360l-83 361v15h115v-15h-98z" />
    <glyph glyph-name="minus" unicode="&#x2212;" 
d="M140 357v-15h-114v15h114z" />
    <glyph glyph-name="radical" unicode="&#x221a;" 
d="M113 486l16 214h14l-51 -700h-23l-25 304h-18v16h31l24 -292z" />
    <glyph glyph-name="infinity" unicode="&#x221e;" horiz-adv-x="733" 
d="M345 317c-8 0 -15.8379 4.16406 -23.5049 12.4971s-12.5 12.5 -14.5 12.5s-5.66699 -0.666992 -11 -2s-10 -2 -14 -2c-5.33301 0 -10.166 2.66699 -14.499 8s-6.5 11 -6.5 17c0 14.667 2.66699 26.334 8 35.001c-4.66699 -4.66699 -10 -17 -16 -37
s-14.667 -33.667 -26 -41c-12 -8 -18 -21.333 -18 -40c0 -7.33301 3.66699 -14.5 11 -21.5s11 -11.167 11 -12.5c0 -2.66699 -1 -4 -3 -4c-4.66699 0 -8.66699 1.66699 -12 5c8.66699 -45.333 24.667 -80 48 -104h-55c-23.333 76 -35 151.333 -35 226
c0 70 13.5 127.167 40.5 171.5s72.167 66.5 135.5 66.5c126.667 0 190 -84.667 190 -254c0 -50 -8.33301 -120 -25 -210h-73c35.333 31.333 56 70.333 62 117c-2.66699 -5.33301 -7 -8 -13 -8c-2 0 -3 0.666992 -3 2l4 4c3.33301 2 6.5 5.83301 9.5 11.5
s4.5 12.834 4.5 21.501c-2.66699 -4 -7.66699 -6 -15 -6c-0.666992 0 -4.16699 -1.5 -10.5 -4.5s-11.5 -4.5 -15.5 -4.5c-9.33301 0 -22.666 1.16699 -39.999 3.5s-40.666 3.5 -69.999 3.5c-14.667 0 -32.167 -2 -52.5 -6s-33.166 -6 -38.499 -6
c-3.33301 0 -7.66602 0.666992 -12.999 2s-9 2 -11 2c-18.667 0 -28 4 -28 12c0 6.66699 12.333 12.834 37 18.501s49.334 8.5 74.001 8.5c3.33301 0 7.33301 -0.166992 12 -0.5s8.66699 -0.5 12 -0.5s8.5 0.666992 15.5 2s11.833 2 14.5 2c74.667 0 117 -6.66699 127 -20
c-0.666992 10.667 -5.33398 20.334 -14.001 29.001s-18.667 13 -30 13c-4 0 -6 2.33301 -6 7c0 38 -5.33301 57.333 -16 58c2.66699 -4.66699 4 -10.334 4 -17.001c0 -12 -3.66699 -22.667 -11 -32s-16.333 -14 -27 -14c-2.66699 0 -6 0.666992 -10 2l-7 2
c-0.666992 0 -5.5 -4.66699 -14.5 -14s-18.167 -14 -27.5 -14zM732.995 290.997l-0.00195312 -147.998c-14.667 32 -37.667 69.5 -69 112.5s-53.666 64.5 -66.999 64.5c4 -56.667 0 -115.667 -12 -177h-42c10.667 69.333 16 135.666 16 198.999c0 212.667 -71 319 -213 319
c-35.333 0 -65.833 -8.83301 -91.5 -26.5s-45.334 -41.834 -59.001 -72.501s-23.667 -63.167 -30 -97.5s-9.5 -71.5 -9.5 -111.5c0 -82 9.66699 -152 29 -210h-47c-12.667 44.667 -19 106 -19 184c-11.333 -6 -24.5 -20.5 -39.5 -43.5s-31.333 -51.167 -49 -84.5
s-27.834 -52 -30.501 -56v148c7.33301 18 18.333 36 33 54s31.334 35.833 50.001 53.5s28.667 27.167 30 28.5c2 48 11 93 27 135s41.167 77.833 75.5 107.5s74.5 44.5 120.5 44.5c44.667 0 83.167 -7.5 115.5 -22.5s57.833 -36.333 76.5 -64s32.834 -56.667 42.501 -87
s17.167 -65.5 22.5 -105.5c14.667 -3.33301 37.334 -19.333 68.001 -48s54.667 -60.667 72 -96zM344.993 502.999c-2 2 -3.00195 4.00098 -3.00195 6.00098c0 1.33301 0.666992 2 2 2c0.666992 0 2.66699 -1.5 6 -4.5s8.33301 -5.83301 15 -8.5s14 -4 22 -4
c10.667 0 20.334 1.33301 29.001 4s15.334 5.33398 20.001 8.00098l6 5c2.66699 0 4 -0.666992 4 -2l-8 -8c16 0 33.333 -3.66699 52 -11c-19.333 53.333 -65.666 80 -138.999 80c-36.667 0 -67.334 -11 -92.001 -33s-41.334 -50.333 -50.001 -85
c24.667 13.333 38.334 26.333 41.001 39c-4 2.66699 -6 5 -6 7c0 2.66699 1 4 3 4l2 -2c1.33301 -0.666992 3.5 -1.83398 6.5 -3.50098s6.33301 -3.33398 10 -5.00098s8.16699 -3 13.5 -4s11 -1.5 17 -1.5c16 0 32.333 5.66699 49 17zM370.991 416
c0 13.333 -1.50098 26.667 -4.50098 40s-6.16699 20 -9.5 20c-6.66699 0 -13 -13 -19 -39s-10.667 -39 -14 -39c-2 0 -5.16699 1 -9.5 3s-8.16602 3 -11.499 3c-8.66699 0 -15.667 -3.5 -21 -10.5s-8 -15.167 -8 -24.5s3.66699 -14 11 -14s13.333 2.16699 18 6.5
s7.66699 6.5 9 6.5s5.33301 -4.5 12 -13.5s13.334 -13.5 20.001 -13.5c9.33301 0 17.666 3.5 24.999 10.5s11.333 10.5 12 10.5c2 0 5.33301 -1.16699 10 -3.5s7.66699 -3.5 9 -3.5c6.66699 0 12.667 3.66699 18 11s8 15.333 8 24c0 6.66699 -2 12.667 -6 18
s-9.33301 8 -16 8c-4.66699 0 -9.5 -2.16699 -14.5 -6.5s-8.83301 -6.5 -11.5 -6.5c-4.66699 0 -7 4.33301 -7 13zM509.99 318.001c0 63.333 -4 112.335 -12 147.002l-5 3c0 -14 -6 -24.667 -18 -32s-25.667 -11 -41 -11c-14 0 -26.333 4.16699 -37 12.5
s-16 18.166 -16 29.499c0 4 0.666992 7 2 9c-8 1.33301 -13 2.66602 -15 3.99902c4 -6 7.33301 -14 10 -24s4.5 -18 5.5 -24s2.5 -9 4.5 -9c4.66699 1.33301 9.66699 2 15 2c12.667 0 23 -4.66699 31 -14c22.667 0 34 -17 34 -51c0 -2 2.66699 -4.33301 8 -7
s11.5 -7 18.5 -13s12.167 -13.333 15.5 -22zM382.99 310.003c-0.666992 0 -3.33398 -0.331055 -8.00098 -0.998047s-9.83398 -1.33398 -15.501 -2.00098s-10.167 -1 -13.5 -1s-7.66602 0.5 -12.999 1.5s-9 1.5 -11 1.5c-10 0 -22 -1.33301 -36 -4s-25.667 -5.66699 -35 -9
s-14 -6 -14 -8c0 -6.66699 6.66699 -10 20 -10c16 0 34 2.16699 54 6.5s34.667 6.5 44 6.5c12.667 0 31.834 -1.16699 57.501 -3.5s43.167 -3.5 52.5 -3.5c3.33301 0 6.5 0.666992 9.5 2s5.5 2.66602 7.5 3.99902s3 2.33301 3 3c0 3.33301 -12 7 -36 11s-46 6 -66 6z
M266.99 413.005c-12 0 -22.3311 3.33105 -30.998 9.99805s-13.667 13.667 -15 21c-2.66699 -1.33301 -7.66699 -3 -15 -5c-2.66699 -14 -4 -28.333 -4 -43c0 -33.333 1 -59.333 3 -78c2.66699 4 10 11.333 22 22s18.667 21 20 31c3.33301 24.667 16 38.334 38 41.001
c8 3.33301 15.667 5 23 5c3.33301 0 6.16602 2.83301 8.49902 8.5s5.5 13.834 9.5 24.501s9.33301 20 16 28l-13 -4c-0.666992 -16 -6.83398 -30.167 -18.501 -42.5s-26.167 -18.5 -43.5 -18.5zM418.992 465.003c-8.66699 0 -14.002 4.33398 -16.002 13.001
c-3.33301 0 -6.16602 -1.83301 -8.49902 -5.5s-3.5 -6.83398 -3.5 -9.50098c0 -6.66699 5 -12.334 15 -17.001s20.333 -7 31 -7c9.33301 0 19 2.83301 29 8.5s15 12.834 15 21.501c0 5.33301 -4.83301 9.5 -14.5 12.5s-19.167 4.5 -28.5 4.5
c-3.33301 -14 -9.66602 -21 -18.999 -21zM266.99 427.004c9.33301 0 19.333 3.66699 30 11s16 15.333 16 24c0 4 -0.333008 7 -1 9c-13.333 0 -22.333 0.333008 -27 1c-3.33301 -9.33301 -9.33301 -14 -18 -14c-6.66699 0 -11.667 1.66699 -15 5
c-2.66699 -2.66699 -8.66699 -6.66699 -18 -12c2.66699 -16 13.667 -24 33 -24zM265.99 288.004c-1.33301 0 -2 1.00098 -2 3.00098c0 8 35.667 12 107 12c62 0 93 -2.66699 93 -8c0 -2 -1 -3 -3 -3c-0.666992 0 -2 0.166992 -4 0.5s-5.33301 0.666016 -10 0.999023
s-10 0.833008 -16 1.5s-14.167 1.16699 -24.5 1.5s-21.5 0.5 -33.5 0.5c-24 0 -44.333 -0.833008 -61 -2.5s-28.667 -3.16699 -36 -4.5zM304.99 262.005c0 6.66699 21 10 63 10c20.667 0 31 -2.66699 31 -8c0 -2 -0.666992 -3 -2 -3c-2.66699 0 -6 0.666992 -10 2
s-7.33301 2 -10 2c-7.33301 0 -16 -0.166992 -26 -0.5s-16.667 -0.5 -20 -0.5c-2.66699 0 -6.5 -1 -11.5 -3s-8.5 -3 -10.5 -3c-2.66699 0 -4 1.33301 -4 4zM416.99 473.005c6 0 9 4.33301 9 13c-0.666992 0 -6 -2 -16 -6c0 -4.66699 2.33301 -7 7 -7zM265.99 466.005
c4.66699 0 8 3 10 9c-4 0.666992 -7.66699 2 -11 4c0 -2.66699 -2 -6 -6 -10c0.666992 -2 3 -3 7 -3zM324.99 34.0049l-3 48l-10 -82h-21l15 125h25l4 -60l21 60h26l-15 -125h-22l10 82l-16 -48h-14zM20.9902 125.005h35c15.333 0 22 -7 20 -21l-10 -82
c-2 -14.667 -9.33301 -22 -22 -22h-38zM281.99 44.0049c-0.666992 -8 -4 -13.667 -10 -17l8 -27h-21l-7 23h-7l-3 -23h-22l15 125h36c14 0 20 -8 18 -24zM182.99 0.00488281l3.00098 23h-14l-3 -23h-21l12 104c1.33301 14 8.66602 21 21.999 21h17
c12.667 0 18.667 -7 18 -21l-12 -104h-22zM593.991 0.00488281l15 125h35c15.333 0 22 -7 20 -21l-8 -62c-2 -12.667 -9.33301 -19 -22 -19h-15l-3 -23h-22zM110.991 0.00488281l3 23h-13l-3 -23h-22l15 125h22l-10 -83h13l10 83h22l-15 -125h-22zM538.991 125.005h22
l-10 -79c0 -2.66699 1.33301 -4 4 -4h5c3.33301 0 5 1.33301 5 4l9 79h22l-10 -81c-2 -14 -8.33301 -21 -19 -21l-9 -23h-23l9 23c-12 0 -17 7 -15 21zM476.991 106.005l3 19h50l-3 -19h-13l-12 -106h-23l12 106h-14zM40.9912 106.005l-11 -88h11c2 0 3 1.33301 3 4l9 80
c0 2.66699 -1.33301 4 -4 4h-8zM628.991 106.005l-8 -64h8c3.33301 0 5 1.33301 5 4l7 56c0 2.66699 -1.33301 4 -4 4h-8zM173.991 42.0049h14l7 60c0 2.66699 -1.33301 4 -4 4h-5c-3.33301 0 -5 -1.33301 -5 -4zM254.991 106.005l-8 -64h8c3.33301 0 5 1.33301 5 4l7 56
c0 2.66699 -1 4 -3 4h-9zM710.991 57.0049l-3 -18h-19l-3 -21h27l-2 -18h-49l15 125h47l-3 -19h-24l-6 -49h20zM416.991 0.00488281l3.00098 23h-14l-3 -23h-21l12 104c1.33301 14 8.66602 21 21.999 21h17c12.667 0 18.667 -7 18 -21l-12 -104h-22zM407.992 42.0049h14
l7 60c0 2.66699 -1.33301 4 -4 4h-5c-3.33301 0 -5 -1.33301 -5 -4z" />
    <glyph glyph-name="integral" unicode="&#x222b;" 
d="M75 1v649c0 19.333 3 32.5 9 39.5s17.667 10.5 35 10.5h16v-14h-13c-12.667 0 -21 -2.16699 -25 -6.5s-6 -14.833 -6 -31.5v-648c0 -19.333 -3 -32.5 -9 -39.5s-18 -10.5 -36 -10.5h-16v14h14c12.667 0 21 2.16699 25 6.5s6 14.5 6 30.5z" />
    <glyph glyph-name="approxequal" unicode="&#x2248;" 
d="M140 333l-0.000976562 -22c-8.66699 -13.333 -18.334 -20 -29.001 -20c-6.66699 0 -16.5 4 -29.5 12s-22.5 12 -28.5 12c-10 0 -19 -8 -27 -24v21c8.66699 13.333 18.334 20 29.001 20c6.66699 0 16.334 -3.83301 29.001 -11.5s22 -11.5 28 -11.5c10.667 0 20 8 28 24z
M139.999 409l-0.000976562 -22c-8.66699 -13.333 -18.334 -20 -29.001 -20c-6.66699 0 -16.5 4 -29.5 12s-22.5 12 -28.5 12c-10 0 -19 -8 -27 -24v21c8.66699 13.333 18.334 20 29.001 20c6.66699 0 16.334 -3.83301 29.001 -11.5s22 -11.5 28 -11.5c10.667 0 20 8 28 24z
" />
    <glyph glyph-name="notequal" unicode="&#x2260;" 
d="M140 318v-15h-71l-22 -49h-15l22 49h-28v15h35l29 63h-64v15h71l23 48h15l-23 -48h28v-15h-35l-29 -63h64z" />
    <glyph glyph-name="lessequal" unicode="&#x2264;" 
d="M140 290v-14h-114v14h114zM52 364l88 -55h-27l-87 55l87 55h27z" />
    <glyph glyph-name="greaterequal" unicode="&#x2265;" 
d="M26 276v14h114v-14h-114zM26 309l88 55l-88 55h27l87 -55l-87 -55h-27z" />
    <glyph glyph-name="lozenge" unicode="&#x25ca;" 
d="M91 0h-17l-59 350l59 350h17l59 -350zM31 350l8 -50l17.5 -106.5l16 -96.5c4.33301 -25.333 7.83301 -47 10.5 -65l43 268l8 50l-8 50l-17.5 106.5l-16 96.5c-4.33301 25.333 -7.83301 47 -10.5 65l-43 -268z" />
    <glyph glyph-name="fi" unicode="&#xfb01;" horiz-adv-x="163" 
d="M6 574v14h26v62c0 19.333 3 32.5 9 39.5s17.667 10.5 35 10.5h9v-14h-6c-12.667 0 -21 -2.16699 -25 -6.5s-6 -14.833 -6 -31.5v-60h37v-14h-37v-574h-16v574h-26zM135 588v-588h-16v588h16zM119 663v37h16v-37h-16z" />
    <glyph glyph-name="fl" unicode="&#xfb02;" horiz-adv-x="163" 
d="M6 574v14h26v62c0 19.333 3 32.5 9 39.5s17.667 10.5 35 10.5h9v-14h-6c-12.667 0 -21 -2.16699 -25 -6.5s-6 -14.833 -6 -31.5v-60h37v-14h-37v-574h-16v574h-26zM135 0h-16v700h16v-700z" />
    <glyph glyph-name=".null" horiz-adv-x="0" 
 />
    <glyph glyph-name="nonmarkingreturn" horiz-adv-x="333" 
 />
    <glyph glyph-name="commaaccent" horiz-adv-x="83" 
d="M32 -76v26h20v-26l-17 -42l-4 2l10 40h-9z" />
    <glyph glyph-name="g.alt" horiz-adv-x="165" 
d="M42 49c0 -16 1.66699 -26.667 5 -32s11.333 -8 24 -8h13c24.667 0 37 17.667 37 53v464c0 35.333 -12.333 53 -37 53h-13c-12.667 0 -20.667 -2.66699 -24 -8s-5 -16 -5 -32v-490zM121 -42l-0.00195312 63c-7.33301 -17.333 -21.333 -26 -42 -26h-10
c-16.667 0 -28 3.5 -34 10.5s-9 19.5 -9 37.5v502c0 18 3 30.5 9 37.5s17.333 10.5 34 10.5h10c22.667 0 37.334 -10.667 44.001 -32l3 27h11v-636c0 -17.333 -3.5 -30 -10.5 -38s-18.5 -12 -34.5 -12h-20c-17.333 0 -29.166 3.5 -35.499 10.5s-9.5 20.167 -9.5 39.5v16h15
v-9c0 -17.333 1.83301 -28.833 5.5 -34.5s12.5 -8.5 26.5 -8.5h16c12.667 0 21 3 25 9s6 17 6 33z" />
    <glyph glyph-name="i.trk" horiz-adv-x="72" 
d="M44 588v-588h-16v588h16zM28 663v37h16v-37h-16z" />
    <glyph glyph-name="r.alt" horiz-adv-x="146" 
d="M44 0h-16.001v588h14v-27c6.66699 21.333 21.334 32 44.001 32h1c16.667 0 28 -3.5 34 -10.5s9 -19.5 9 -37.5v-256h-15v250c0 16 -1.66699 26.667 -5 32s-11.333 8 -24 8h-5c-24.667 0 -37 -17.667 -37 -53v-526z" />
    <glyph glyph-name="y.alt" 
d="M43 588l-0.000976562 -538.999c0 -16 1.66699 -26.667 5 -32s11.333 -8 24 -8h13c24.667 0 37 17.667 37 53v526h16v-636c0 -17.333 -3.5 -30 -10.5 -38s-18.5 -12 -34.5 -12h-20c-17.333 0 -29.166 3.5 -35.499 10.5s-9.5 20.167 -9.5 39.5v16h15v-9
c0 -17.333 1.83301 -28.833 5.5 -34.5s12.5 -8.5 26.5 -8.5h16c12.667 0 21 3.16699 25 9.5s6 17.166 6 32.499v63c-7.33301 -17.333 -21.333 -26 -42 -26h-10c-16.667 0 -28 3.5 -34 10.5s-9 19.5 -9 37.5v545h16z" />
    <glyph glyph-name="zero.alt" 
d="M140 653v-606c0 -20 -3.16699 -33.667 -9.5 -41s-18.833 -11 -37.5 -11h-20c-18.667 0 -31.167 3.66699 -37.5 11s-9.5 21 -9.5 41v606c0 20 3.16699 33.667 9.5 41s18.833 11 37.5 11h20c18.667 0 31.167 -3.66699 37.5 -11s9.5 -21 9.5 -41zM42 647v-594
c0 -17.333 1.83301 -28.833 5.5 -34.5s12.834 -8.5 27.501 -8.5h16c14.667 0 23.834 2.83301 27.501 8.5s5.5 17.167 5.5 34.5v594c0 17.333 -1.83301 28.833 -5.5 34.5s-12.834 8.5 -27.501 8.5h-16c-14.667 0 -23.834 -2.83301 -27.501 -8.5s-5.5 -17.167 -5.5 -34.5z" />
    <glyph glyph-name="one.alt" 
d="M99 0h-16v692c5.33301 0 8 2.66699 8 8h8v-700z" />
    <glyph glyph-name="two.alt" 
d="M126 512l0.00195312 135c0 17.333 -1.83301 28.833 -5.5 34.5s-12.834 8.5 -27.501 8.5h-16c-14.667 0 -23.834 -2.83301 -27.501 -8.5s-5.5 -17.167 -5.5 -34.5v-229h-15v235c0 20 3.16699 33.667 9.5 41s18.833 11 37.5 11h19c18.667 0 31.167 -3.66699 37.5 -11
s9.5 -21 9.5 -41v-139c0 -41.333 -3 -74.333 -9 -99s-20.333 -59 -43 -103c-20.667 -39.333 -33.5 -70 -38.5 -92s-7.5 -53 -7.5 -93v-112h101v-15h-117v125c0 41.333 3 74.333 9 99s20.333 59 43 103c20.667 39.333 33.5 70 38.5 92s7.5 53 7.5 93z" />
    <glyph glyph-name="three.alt" 
d="M41 647v-211.001h-15v217c0 20 3.33301 33.667 10 41s19.334 11 38.001 11h18c18.667 0 31.167 -3.66699 37.5 -11s9.5 -21 9.5 -41v-235c0 -30 -9.33301 -46.667 -28 -50c18.667 -3.33301 28 -19.666 28 -48.999v-272c0 -20 -3.16699 -33.667 -9.5 -41
s-18.833 -11 -37.5 -11h-18c-18.667 0 -31.334 3.66699 -38.001 11s-10 21 -10 41v254h15v-248c0 -17.333 1.83301 -28.833 5.5 -34.5s12.834 -8.5 27.501 -8.5h16c14.667 0 23.834 2.83301 27.501 8.5s5.5 17.167 5.5 34.5v265c0 17.333 -1.83301 28.833 -5.5 34.5
s-12.834 8.5 -27.501 8.5h-49v15h49c14.667 0 23.834 2.83301 27.501 8.5s5.5 17.167 5.5 34.5v228c0 17.333 -1.83301 28.833 -5.5 34.5s-12.834 8.5 -27.501 8.5h-16c-14.667 0 -23.834 -2.83301 -27.501 -8.5s-5.5 -17.167 -5.5 -34.5z" />
    <glyph glyph-name="four.alt" 
d="M103 700h18v-536h36v-15h-36v-149h-16v149h-90v15zM29 164l76 0.000976562v235c0 76 0.666992 161.333 2 256c-5.33301 -38.667 -18.333 -123.334 -39 -254.001z" />
    <glyph glyph-name="five.alt" 
d="M42 468l-0.000976562 -102h-15v334h108v-15h-93v-176c6.66699 17.333 20.667 26 42 26h13c16.667 0 28 -3.5 34 -10.5s9 -19.5 9 -37.5v-440c0 -20 -3.16699 -33.667 -9.5 -41s-18.833 -11 -37.5 -11h-19c-18.667 0 -31.167 3.66699 -37.5 11s-9.5 21 -9.5 41v254h15
v-248c0 -17.333 2 -28.833 6 -34.5s13 -8.5 27 -8.5h16c14.667 0 23.834 2.83301 27.501 8.5s5.5 17.167 5.5 34.5v428c0 16 -1.66699 26.667 -5 32s-11.333 8 -24 8h-16c-24.667 0 -37 -17.667 -37 -53z" />
    <glyph glyph-name="six.alt" 
d="M140 438l0.00195312 -391c0 -20 -3.16699 -33.667 -9.5 -41s-18.833 -11 -37.5 -11h-20c-18.667 0 -31.167 3.66699 -37.5 11s-9.5 21 -9.5 41v606c0 20 3.16699 33.667 9.5 41s18.833 11 37.5 11h19c18.667 0 31.167 -3.66699 37.5 -11s9.5 -21 9.5 -41v-127h-15v121
c0 17.333 -1.83301 28.833 -5.5 34.5s-12.834 8.5 -27.501 8.5h-16c-14.667 0 -23.834 -2.83301 -27.501 -8.5s-5.5 -17.167 -5.5 -34.5v-187c6.66699 17.333 20.667 26 42 26h13c16.667 0 28 -3.5 34 -10.5s9 -19.5 9 -37.5zM95.002 472h-16.002
c-24.667 0 -37 -17.667 -37 -53v-366c0 -17.333 1.83301 -28.833 5.5 -34.5s12.834 -8.5 27.501 -8.5h16c14.667 0 23.834 2.83301 27.501 8.5s5.5 17.167 5.5 34.5v379c0 16 -1.66699 26.667 -5 32s-11.333 8 -24 8z" />
    <glyph glyph-name="seven.alt" 
d="M71 0h-17l71 685h-101v15h116v-13z" />
    <glyph glyph-name="eight.alt" 
d="M93 -5l-20 -0.000976562c-18.667 0 -31.167 3.66699 -37.5 11s-9.5 21 -9.5 41v282c0 16.667 1.83301 28.5 5.5 35.5s10.834 11.5 21.501 13.5c-10.667 2 -17.834 6.66699 -21.501 14s-5.5 19.333 -5.5 36v225c0 20 3.16699 33.667 9.5 41s18.833 11 37.5 11h20
c18.667 0 31.167 -3.66699 37.5 -11s9.5 -21 9.5 -41v-225c0 -30 -9.33301 -46.667 -28 -50c18.667 -3.33301 28 -19.666 28 -48.999v-282c0 -20 -3.16699 -33.667 -9.5 -41s-18.833 -11 -37.5 -11zM124 52.999v275c0 17.333 -1.83301 28.833 -5.5 34.5
s-12.834 8.5 -27.501 8.5h-16c-14.667 0 -23.834 -2.83301 -27.501 -8.5s-5.5 -17.167 -5.5 -34.5v-275c0 -17.333 1.83301 -28.833 5.5 -34.5s12.834 -8.5 27.501 -8.5h16c14.667 0 23.834 2.83301 27.501 8.5s5.5 17.167 5.5 34.5zM124 428.999v218
c0 17.333 -1.83301 28.833 -5.5 34.5s-12.834 8.5 -27.501 8.5h-16c-14.667 0 -23.834 -2.83301 -27.501 -8.5s-5.5 -17.167 -5.5 -34.5v-218c0 -17.333 1.83301 -28.833 5.5 -34.5s12.834 -8.5 27.501 -8.5h16c14.667 0 23.834 2.83301 27.501 8.5s5.5 17.167 5.5 34.5z
" />
    <glyph glyph-name="nine.alt" 
d="M91 10c14.667 0 23.832 2.83301 27.499 8.5s5.5 17.167 5.5 34.5v197c-7.33301 -17.333 -21.333 -26 -42 -26h-13c-16.667 0 -28 3.5 -34 10.5s-9 19.5 -9 37.5v381c0 20 3.16699 33.667 9.5 41s18.833 11 37.5 11h20c18.667 0 31.167 -3.66699 37.5 -11s9.5 -21 9.5 -41
v-606c0 -20 -3.16699 -33.667 -9.5 -41s-18.833 -11 -37.5 -11h-19c-18.667 0 -31.167 3.66699 -37.5 11s-9.5 21 -9.5 41v137h15v-131c0 -17.333 1.83301 -28.833 5.5 -34.5s12.834 -8.5 27.501 -8.5h16zM70.998 238h16.002c24.667 0 37 17.667 37 53v356
c0 17.333 -1.83301 28.833 -5.5 34.5s-12.834 8.5 -27.501 8.5h-16c-14.667 0 -23.834 -2.83301 -27.501 -8.5s-5.5 -17.167 -5.5 -34.5v-369c0 -16 1.66699 -26.667 5 -32s11.333 -8 24 -8z" />
    <glyph glyph-name="gbreve.alt" horiz-adv-x="165" 
d="M42 49c0 -16 1.66699 -26.667 5 -32s11.333 -8 24 -8h13c24.667 0 37 17.667 37 53v464c0 35.333 -12.333 53 -37 53h-13c-12.667 0 -20.667 -2.66699 -24 -8s-5 -16 -5 -32v-490zM121 -42l-0.00195312 63c-7.33301 -17.333 -21.333 -26 -42 -26h-10
c-16.667 0 -28 3.5 -34 10.5s-9 19.5 -9 37.5v502c0 18 3 30.5 9 37.5s17.333 10.5 34 10.5h10c22.667 0 37.334 -10.667 44.001 -32l3 27h11v-636c0 -17.333 -3.5 -30 -10.5 -38s-18.5 -12 -34.5 -12h-20c-17.333 0 -29.166 3.5 -35.499 10.5s-9.5 20.167 -9.5 39.5v16h15
v-9c0 -17.333 1.83301 -28.833 5.5 -34.5s12.5 -8.5 26.5 -8.5h16c12.667 0 21 3 25 9s6 17 6 33zM81.998 636c11.333 0 19.5 2.66699 24.5 8s7.5 15 7.5 29h11c0 -18 -3 -31.333 -9 -40s-17.333 -13 -34 -13s-28 4.33301 -34 13s-9 22 -9 40h11c0 -14 2.5 -23.667 7.5 -29
s13.167 -8 24.5 -8z" />
    <glyph glyph-name="gcircumflex.alt" horiz-adv-x="165" 
d="M42 49c0 -16 1.66699 -26.667 5 -32s11.333 -8 24 -8h13c24.667 0 37 17.667 37 53v464c0 35.333 -12.333 53 -37 53h-13c-12.667 0 -20.667 -2.66699 -24 -8s-5 -16 -5 -32v-490zM121 -42l-0.00195312 63c-7.33301 -17.333 -21.333 -26 -42 -26h-10
c-16.667 0 -28 3.5 -34 10.5s-9 19.5 -9 37.5v502c0 18 3 30.5 9 37.5s17.333 10.5 34 10.5h10c22.667 0 37.334 -10.667 44.001 -32l3 27h11v-636c0 -17.333 -3.5 -30 -10.5 -38s-18.5 -12 -34.5 -12h-20c-17.333 0 -29.166 3.5 -35.499 10.5s-9.5 20.167 -9.5 39.5v16h15
v-9c0 -17.333 1.83301 -28.833 5.5 -34.5s12.5 -8.5 26.5 -8.5h16c12.667 0 21 3 25 9s6 17 6 33zM87.998 683l35 -71h-11l-30 49l-30 -49h-11l35 71h12z" />
    <glyph glyph-name="uni0123.alt" horiz-adv-x="165" 
d="M92 659v-26h-20v26l17 42l4 -2l-10 -40h9zM42 49c0 -16 1.66699 -26.667 5 -32s11.333 -8 24 -8h13c24.667 0 37 17.667 37 53v464c0 35.333 -12.333 53 -37 53h-13c-12.667 0 -20.667 -2.66699 -24 -8s-5 -16 -5 -32v-490zM121 -42l-0.00195312 63
c-7.33301 -17.333 -21.333 -26 -42 -26h-10c-16.667 0 -28 3.5 -34 10.5s-9 19.5 -9 37.5v502c0 18 3 30.5 9 37.5s17.333 10.5 34 10.5h10c22.667 0 37.334 -10.667 44.001 -32l3 27h11v-636c0 -17.333 -3.5 -30 -10.5 -38s-18.5 -12 -34.5 -12h-20
c-17.333 0 -29.166 3.5 -35.499 10.5s-9.5 20.167 -9.5 39.5v16h15v-9c0 -17.333 1.83301 -28.833 5.5 -34.5s12.5 -8.5 26.5 -8.5h16c12.667 0 21 3 25 9s6 17 6 33z" />
    <glyph glyph-name="gdotaccent.alt" horiz-adv-x="165" 
d="M42 49c0 -16 1.66699 -26.667 5 -32s11.333 -8 24 -8h13c24.667 0 37 17.667 37 53v464c0 35.333 -12.333 53 -37 53h-13c-12.667 0 -20.667 -2.66699 -24 -8s-5 -16 -5 -32v-490zM121 -42l-0.00195312 63c-7.33301 -17.333 -21.333 -26 -42 -26h-10
c-16.667 0 -28 3.5 -34 10.5s-9 19.5 -9 37.5v502c0 18 3 30.5 9 37.5s17.333 10.5 34 10.5h10c22.667 0 37.334 -10.667 44.001 -32l3 27h11v-636c0 -17.333 -3.5 -30 -10.5 -38s-18.5 -12 -34.5 -12h-20c-17.333 0 -29.166 3.5 -35.499 10.5s-9.5 20.167 -9.5 39.5v16h15
v-9c0 -17.333 1.83301 -28.833 5.5 -34.5s12.5 -8.5 26.5 -8.5h16c12.667 0 21 3 25 9s6 17 6 33zM91.998 634h-20v25h20v-25z" />
    <glyph glyph-name="racute.alt" horiz-adv-x="146" 
d="M44 0h-16.001v588h14v-27c6.66699 21.333 21.334 32 44.001 32h1c16.667 0 28 -3.5 34 -10.5s9 -19.5 9 -37.5v-256h-15v250c0 16 -1.66699 26.667 -5 32s-11.333 8 -24 8h-5c-24.667 0 -37 -17.667 -37 -53v-526zM62.999 612l31 71h21l-41 -71h-11z" />
    <glyph glyph-name="rcaron.alt" horiz-adv-x="146" 
d="M44 0h-16.001v588h14v-27c6.66699 21.333 21.334 32 44.001 32h1c16.667 0 28 -3.5 34 -10.5s9 -19.5 9 -37.5v-256h-15v250c0 16 -1.66699 26.667 -5 32s-11.333 8 -24 8h-5c-24.667 0 -37 -17.667 -37 -53v-526zM117.999 683l-34 -71h-12l-34 71h11l29 -49l29 49h11z
" />
    <glyph glyph-name="uni0157.alt" horiz-adv-x="146" 
d="M44 0h-16.001v588h14v-27c6.66699 21.333 21.334 32 44.001 32h1c16.667 0 28 -3.5 34 -10.5s9 -19.5 9 -37.5v-256h-15v250c0 16 -1.66699 26.667 -5 32s-11.333 8 -24 8h-5c-24.667 0 -37 -17.667 -37 -53v-526zM25.999 -76v26h20v-26l-17 -42l-4 2l10 40h-9z" />
    <glyph glyph-name="yacute.alt" 
d="M43 588l-0.000976562 -538.999c0 -16 1.66699 -26.667 5 -32s11.333 -8 24 -8h13c24.667 0 37 17.667 37 53v526h16v-636c0 -17.333 -3.5 -30 -10.5 -38s-18.5 -12 -34.5 -12h-20c-17.333 0 -29.166 3.5 -35.499 10.5s-9.5 20.167 -9.5 39.5v16h15v-9
c0 -17.333 1.83301 -28.833 5.5 -34.5s12.5 -8.5 26.5 -8.5h16c12.667 0 21 3.16699 25 9.5s6 17.166 6 32.499v63c-7.33301 -17.333 -21.333 -26 -42 -26h-10c-16.667 0 -28 3.5 -34 10.5s-9 19.5 -9 37.5v545h16zM67.999 612.001l31 71h21l-41 -71h-11z" />
    <glyph glyph-name="ycircumflex.alt" 
d="M43 588l-0.000976562 -538.999c0 -16 1.66699 -26.667 5 -32s11.333 -8 24 -8h13c24.667 0 37 17.667 37 53v526h16v-636c0 -17.333 -3.5 -30 -10.5 -38s-18.5 -12 -34.5 -12h-20c-17.333 0 -29.166 3.5 -35.499 10.5s-9.5 20.167 -9.5 39.5v16h15v-9
c0 -17.333 1.83301 -28.833 5.5 -34.5s12.5 -8.5 26.5 -8.5h16c12.667 0 21 3.16699 25 9.5s6 17.166 6 32.499v63c-7.33301 -17.333 -21.333 -26 -42 -26h-10c-16.667 0 -28 3.5 -34 10.5s-9 19.5 -9 37.5v545h16zM88.999 683.001l35 -71h-11l-30 49l-30 -49h-11l35 71h12z
" />
    <glyph glyph-name="ydieresis.alt" 
d="M43 588l-0.000976562 -538.999c0 -16 1.66699 -26.667 5 -32s11.333 -8 24 -8h13c24.667 0 37 17.667 37 53v526h16v-636c0 -17.333 -3.5 -30 -10.5 -38s-18.5 -12 -34.5 -12h-20c-17.333 0 -29.166 3.5 -35.499 10.5s-9.5 20.167 -9.5 39.5v16h15v-9
c0 -17.333 1.83301 -28.833 5.5 -34.5s12.5 -8.5 26.5 -8.5h16c12.667 0 21 3.16699 25 9.5s6 17.166 6 32.499v63c-7.33301 -17.333 -21.333 -26 -42 -26h-10c-16.667 0 -28 3.5 -34 10.5s-9 19.5 -9 37.5v545h16zM116.999 634.001h-18v25h18v-25zM65.999 634.001h-18v25
h18v-25z" />
    <glyph glyph-name="ygrave.alt" 
d="M43 588l-0.000976562 -538.999c0 -16 1.66699 -26.667 5 -32s11.333 -8 24 -8h13c24.667 0 37 17.667 37 53v526h16v-636c0 -17.333 -3.5 -30 -10.5 -38s-18.5 -12 -34.5 -12h-20c-17.333 0 -29.166 3.5 -35.499 10.5s-9.5 20.167 -9.5 39.5v16h15v-9
c0 -17.333 1.83301 -28.833 5.5 -34.5s12.5 -8.5 26.5 -8.5h16c12.667 0 21 3.16699 25 9.5s6 17.166 6 32.499v63c-7.33301 -17.333 -21.333 -26 -42 -26h-10c-16.667 0 -28 3.5 -34 10.5s-9 19.5 -9 37.5v545h16zM67.999 683.001l31 -71h-11l-41 71h21z" />
  </font>
</defs>
</svg>
